  0
SECTION
  2
HEADER
  9
$ACADVER
  1
AC1015
  9
$ACADMAINTVER
 70
     6
  9
$DWGCODEPAGE
  3
ANSI_1252
  9
$INSBASE
 10
0.0
 20
0.0
 30
0.0
  9
$EXTMIN
 10
0.0
 20
0.0
 30
0.0
  9
$EXTMAX
 10
431.8
 20
279.4
 30
0.0
  9
$LIMMIN
 10
0.0
 20
0.0
  9
$LIMMAX
 10
431.8
 20
279.4
  9
$ORTHOMODE
 70
     0
  9
$REGENMODE
 70
     1
  9
$FILLMODE
 70
     1
  9
$QTEXTMODE
 70
     0
  9
$MIRRTEXT
 70
     1
  9
$LTSCALE
 40
1.0
  9
$ATTMODE
 70
     1
  9
$TEXTSIZE
 40
3.175
  9
$TRACEWID
 40
1.0
  9
$TEXTSTYLE
  7
Standard
  9
$CLAYER
  8
0
  9
$CELTYPE
  6
ByLayer
  9
$CECOLOR
 62
   256
  9
$CELTSCALE
 40
1.0
  9
$DISPSILH
 70
     0
  9
$DIMSCALE
 40
1.0
  9
$DIMASZ
 40
3.302
  9
$DIMEXO
 40
1.27
  9
$DIMDLI
 40
3.75
  9
$DIMRND
 40
0.0
  9
$DIMDLE
 40
0.0
  9
$DIMEXE
 40
3.175
  9
$DIMTP
 40
0.0
  9
$DIMTM
 40
0.0
  9
$DIMTXT
 40
3.175
  9
$DIMCEN
 40
2.5
  9
$DIMTSZ
 40
0.0
  9
$DIMTOL
 70
     0
  9
$DIMLIM
 70
     0
  9
$DIMTIH
 70
     1
  9
$DIMTOH
 70
     1
  9
$DIMSE1
 70
     0
  9
$DIMSE2
 70
     0
  9
$DIMTAD
 70
     0
  9
$DIMZIN
 70
     1
  9
$DIMBLK
  1

  9
$DIMASO
 70
     1
  9
$DIMSHO
 70
     1
  9
$DIMPOST
  1

  9
$DIMAPOST
  1

  9
$DIMALT
 70
     0
  9
$DIMALTD
 70
     3
  9
$DIMALTF
 40
0.0393700787
  9
$DIMLFAC
 40
5.0
  9
$DIMTOFL
 70
     1
  9
$DIMTVP
 40
0.0
  9
$DIMTIX
 70
     0
  9
$DIMSOXD
 70
     0
  9
$DIMSAH
 70
     0
  9
$DIMBLK1
  1

  9
$DIMBLK2
  1

  9
$DIMSTYLE
  2
ISO-25
  9
$DIMCLRD
 70
     0
  9
$DIMCLRE
 70
     0
  9
$DIMCLRT
 70
     0
  9
$DIMTFAC
 40
1.0
  9
$DIMGAP
 40
1.524
  9
$DIMJUST
 70
     0
  9
$DIMSD1
 70
     0
  9
$DIMSD2
 70
     0
  9
$DIMTOLJ
 70
     0
  9
$DIMTZIN
 70
     1
  9
$DIMALTZ
 70
     0
  9
$DIMALTTZ
 70
     0
  9
$DIMUPT
 70
     0
  9
$DIMDEC
 70
     2
  9
$DIMTDEC
 70
     2
  9
$DIMALTU
 70
     2
  9
$DIMALTTD
 70
     3
  9
$DIMTXSTY
  7
Standard
  9
$DIMAUNIT
 70
     0
  9
$DIMADEC
 70
     2
  9
$DIMALTRND
 40
0.0
  9
$DIMAZIN
 70
     0
  9
$DIMDSEP
 70
    44
  9
$DIMATFIT
 70
     3
  9
$DIMFRAC
 70
     0
  9
$DIMLDRBLK
  1

  9
$DIMLUNIT
 70
     2
  9
$DIMLWD
 70
    -2
  9
$DIMLWE
 70
    -2
  9
$DIMTMOVE
 70
     0
  9
$LUNITS
 70
     2
  9
$LUPREC
 70
     2
  9
$SKETCHINC
 40
1.0
  9
$FILLETRAD
 40
10.0
  9
$AUNITS
 70
     0
  9
$AUPREC
 70
     2
  9
$MENU
  1
.
  9
$ELEVATION
 40
0.0
  9
$PELEVATION
 40
0.0
  9
$THICKNESS
 40
0.0
  9
$LIMCHECK
 70
     0
  9
$CHAMFERA
 40
0.0
  9
$CHAMFERB
 40
0.0
  9
$CHAMFERC
 40
0.0
  9
$CHAMFERD
 40
0.0
  9
$SKPOLY
 70
     0
  9
$TDCREATE
 40
2460607.959197523
  9
$TDUCREATE
 40
2460607.730030857
  9
$TDUPDATE
 40
2460607.959199456
  9
$TDUUPDATE
 40
2460607.73003279
  9
$TDINDWG
 40
0.0000000116
  9
$TDUSRTIMER
 40
0.0000000116
  9
$USRTIMER
 70
     1
  9
$ANGBASE
 50
0.0
  9
$ANGDIR
 70
     0
  9
$PDMODE
 70
     0
  9
$PDSIZE
 40
-1.0
  9
$PLINEWID
 40
0.0
  9
$SPLFRAME
 70
     0
  9
$SPLINETYPE
 70
     6
  9
$SPLINESEGS
 70
     8
  9
$HANDSEED
  5
2A1
  9
$SURFTAB1
 70
     6
  9
$SURFTAB2
 70
     6
  9
$SURFTYPE
 70
     6
  9
$SURFU
 70
     6
  9
$SURFV
 70
     6
  9
$UCSBASE
  2

  9
$UCSNAME
  2

  9
$UCSORG
 10
0.0
 20
0.0
 30
0.0
  9
$UCSXDIR
 10
1.0
 20
0.0
 30
0.0
  9
$UCSYDIR
 10
0.0
 20
1.0
 30
0.0
  9
$UCSORTHOREF
  2

  9
$UCSORTHOVIEW
 70
     0
  9
$UCSORGTOP
 10
0.0
 20
0.0
 30
0.0
  9
$UCSORGBOTTOM
 10
0.0
 20
0.0
 30
0.0
  9
$UCSORGLEFT
 10
0.0
 20
0.0
 30
0.0
  9
$UCSORGRIGHT
 10
0.0
 20
0.0
 30
0.0
  9
$UCSORGFRONT
 10
0.0
 20
0.0
 30
0.0
  9
$UCSORGBACK
 10
0.0
 20
0.0
 30
0.0
  9
$PUCSBASE
  2

  9
$PUCSNAME
  2

  9
$PUCSORG
 10
0.0
 20
0.0
 30
0.0
  9
$PUCSXDIR
 10
1.0
 20
0.0
 30
0.0
  9
$PUCSYDIR
 10
0.0
 20
1.0
 30
0.0
  9
$PUCSORTHOREF
  2

  9
$PUCSORTHOVIEW
 70
     0
  9
$PUCSORGTOP
 10
0.0
 20
0.0
 30
0.0
  9
$PUCSORGBOTTOM
 10
0.0
 20
0.0
 30
0.0
  9
$PUCSORGLEFT
 10
0.0
 20
0.0
 30
0.0
  9
$PUCSORGRIGHT
 10
0.0
 20
0.0
 30
0.0
  9
$PUCSORGFRONT
 10
0.0
 20
0.0
 30
0.0
  9
$PUCSORGBACK
 10
0.0
 20
0.0
 30
0.0
  9
$USERI1
 70
     0
  9
$USERI2
 70
     0
  9
$USERI3
 70
     0
  9
$USERI4
 70
     0
  9
$USERI5
 70
     0
  9
$USERR1
 40
0.0
  9
$USERR2
 40
0.0
  9
$USERR3
 40
0.0
  9
$USERR4
 40
0.0
  9
$USERR5
 40
0.0
  9
$WORLDVIEW
 70
     1
  9
$SHADEDGE
 70
     3
  9
$SHADEDIF
 70
    70
  9
$TILEMODE
 70
     1
  9
$MAXACTVP
 70
    64
  9
$PINSBASE
 10
0.0
 20
0.0
 30
0.0
  9
$PLIMCHECK
 70
     0
  9
$PEXTMIN
 10
1.0000000000E+20
 20
1.0000000000E+20
 30
1.0000000000E+20
  9
$PEXTMAX
 10
-1.0000000000E+20
 20
-1.0000000000E+20
 30
-1.0000000000E+20
  9
$PLIMMIN
 10
0.0
 20
0.0
  9
$PLIMMAX
 10
420.0
 20
297.0
  9
$UNITMODE
 70
     0
  9
$VISRETAIN
 70
     1
  9
$PLINEGEN
 70
     0
  9
$PSLTSCALE
 70
     1
  9
$TREEDEPTH
 70
  3020
  9
$CMLSTYLE
  2
Standard
  9
$CMLJUST
 70
     0
  9
$CMLSCALE
 40
20.0
  9
$PROXYGRAPHICS
 70
     1
  9
$MEASUREMENT
 70
     1
  9
$CELWEIGHT
370
    -1
  9
$ENDCAPS
280
     0
  9
$JOINSTYLE
280
     0
  9
$LWDISPLAY
290
     1
  9
$INSUNITS
 70
     4
  9
$HYPERLINKBASE
  1

  9
$STYLESHEET
  1

  9
$XEDIT
290
     1
  9
$CEPSNTYPE
380
     0
  9
$PSTYLEMODE
290
     1
  9
$FINGERPRINTGUID
  2
{72de22b3-3e94-4d3d-9b23-e436fa934969}
  9
$VERSIONGUID
  2
{FAEB1C32-E019-11D5-929B-00C0DF256EC4}
  9
$EXTNAMES
290
     1
  9
$PSVPSCALE
 40
0.0
  9
$OLESTARTUP
290
     0
  0
ENDSEC
  0
SECTION
  2
CLASSES
  0
CLASS
  1
ACDBDICTIONARYWDFLT
  2
AcDbDictionaryWithDefault
  3
ObjectDBX Classes
 90
        0
280
     0
281
     0
  0
CLASS
  1
VISUALSTYLE
  2
AcDbVisualStyle
  3
ObjectDBX Classes
 90
     4095
280
     0
281
     0
  0
CLASS
  1
MATERIAL
  2
AcDbMaterial
  3
ObjectDBX Classes
 90
     1153
280
     0
281
     0
  0
CLASS
  1
SCALE
  2
AcDbScale
  3
ObjectDBX Classes
 90
     1153
280
     0
281
     0
  0
CLASS
  1
TABLESTYLE
  2
AcDbTableStyle
  3
ObjectDBX Classes
 90
     4095
280
     0
281
     0
  0
CLASS
  1
MLEADERSTYLE
  2
AcDbMLeaderStyle
  3
ACDB_MLEADERSTYLE_CLASS
 90
     4095
280
     0
281
     0
  0
CLASS
  1
SUN
  2
AcDbSun
  3
SCENEOE
 90
     1153
280
     0
281
     0
  0
CLASS
  1
ACDBPLACEHOLDER
  2
AcDbPlaceHolder
  3
ObjectDBX Classes
 90
        0
280
     0
281
     0
  0
CLASS
  1
LAYOUT
  2
AcDbLayout
  3
ObjectDBX Classes
 90
        0
280
     0
281
     0
  0
ENDSEC
  0
SECTION
  2
TABLES
  0
TABLE
  2
VPORT
  5
8
330
0
100
AcDbSymbolTable
 70
     1
  0
VPORT
  5
29
330
8
100
AcDbSymbolTableRecord
100
AcDbViewportTableRecord
  2
*Active
 70
     0
 10
0.0
 20
0.0
 11
1.0
 21
1.0
 12
215.9
 22
139.7
 13
0.0
 23
0.0
 14
10.0
 24
10.0
 15
10.0
 25
10.0
 16
0.0
 26
0.0
 36
1.0
 17
0.0
 27
0.0
 37
0.0
 40
279.4
 41
1.5454545455
 42
50.0
 43
0.0
 44
0.0
 50
0.0
 51
0.0
 71
     0
 72
  2000
 73
     1
 74
     3
 75
     0
 76
     0
 77
     0
 78
     0
281
     0
 65
     1
110
0.0
120
0.0
130
0.0
111
1.0
121
0.0
131
0.0
112
0.0
122
1.0
132
0.0
 79
     0
146
0.0
  0
ENDTAB
  0
TABLE
  2
LTYPE
  5
5
330
0
100
AcDbSymbolTable
 70
     6
  0
LTYPE
  5
14
330
5
100
AcDbSymbolTableRecord
100
AcDbLinetypeTableRecord
  2
ByBlock
 70
     0
  3

 72
    65
 73
     0
 40
0.0
  0
LTYPE
  5
15
330
5
100
AcDbSymbolTableRecord
100
AcDbLinetypeTableRecord
  2
ByLayer
 70
     0
  3

 72
    65
 73
     0
 40
0.0
  0
LTYPE
  5
16
330
5
100
AcDbSymbolTableRecord
100
AcDbLinetypeTableRecord
  2
Continuous
 70
     0
  3
Solid line
 72
    65
 73
     0
 40
0.0
  0
LTYPE
  5
6E
330
5
100
AcDbSymbolTableRecord
100
AcDbLinetypeTableRecord
  2
HIDDEN
 70
     0
  3
Hidden __ __ __ __ __ __ __ __ __ __ __ __ __ __
 72
    65
 73
     2
 40
1.905
 49
1.27
 74
     0
 49
-0.635
 74
     0
  0
LTYPE
  5
6F
330
5
100
AcDbSymbolTableRecord
100
AcDbLinetypeTableRecord
  2
PHANTOM
 70
     0
  3
Phantom ______  __  __  ______  __  __  ______
 72
    65
 73
     6
 40
12.7
 49
6.35
 74
     0
 49
-1.27
 74
     0
 49
1.27
 74
     0
 49
-1.27
 74
     0
 49
1.27
 74
     0
 49
-1.27
 74
     0
  0
LTYPE
  5
70
330
5
100
AcDbSymbolTableRecord
100
AcDbLinetypeTableRecord
  2
CENTER
 70
     0
  3
Center ____ _ ____ _ ____ _ ____ _ ____ _ ____
 72
    65
 73
     4
 40
10.16
 49
6.35
 74
     0
 49
-1.27
 74
     0
 49
1.27
 74
     0
 49
-1.27
 74
     0
  0
LTYPE
  5
71
330
5
100
AcDbSymbolTableRecord
100
AcDbLinetypeTableRecord
  2
CENTERX2
 70
     0
  3
Center (2x) ________  __  ________  __  _____
 72
    65
 73
     4
 40
20.32
 49
12.7
 74
     0
 49
-2.54
 74
     0
 49
2.54
 74
     0
 49
-2.54
 74
     0
  0
LTYPE
  5
72
330
5
100
AcDbSymbolTableRecord
100
AcDbLinetypeTableRecord
  2
DOT2
 70
     0
  3
Dot (.5x) ........................................
 72
    65
 73
     2
 40
0.635
 49
0.0
 74
     0
 49
-0.635
 74
     0
  0
ENDTAB
  0
TABLE
  2
LAYER
  5
2
330
0
100
AcDbSymbolTable
 70
     2
  0
LAYER
  5
10
330
2
100
AcDbSymbolTableRecord
100
AcDbLayerTableRecord
  2
0
 70
     0
 62
     7
  6
Continuous
370
    -3
390
F
  0
LAYER
  5
73
330
2
100
AcDbSymbolTableRecord
100
AcDbLayerTableRecord
  2
FORMAT
 70
     0
 62
     7
  6
Continuous
370
    -3
390
F
  0
ENDTAB
  0
TABLE
  2
STYLE
  5
3
330
0
100
AcDbSymbolTable
 70
     5
  0
STYLE
  5
11
330
3
100
AcDbSymbolTableRecord
100
AcDbTextStyleTableRecord
  2
Standard
 70
     0
 40
0.0
 41
1.0
 50
0.0
 71
     0
 42
3.175
  3
txt
  4

  0
STYLE
  5
A6
330
3
100
AcDbSymbolTableRecord
100
AcDbTextStyleTableRecord
  2
SLDTEXTSTYLE0
 70
     0
 40
0.0
 41
0.75
 50
0.0
 71
     0
 42
3.175
  3
TXT
  4

  0
STYLE
  5
B4
330
3
100
AcDbSymbolTableRecord
100
AcDbTextStyleTableRecord
  2
SLDTEXTSTYLE1
 70
     0
 40
0.0
 41
0.6985294118
 50
0.0
 71
     0
 42
3.175
  3
TXT
  4

  0
STYLE
  5
B6
330
3
100
AcDbSymbolTableRecord
100
AcDbTextStyleTableRecord
  2
SLDTEXTSTYLE2
 70
     0
 40
0.0
 41
0.6875
 50
0.0
 71
     0
 42
3.175
  3
TXT
  4

  0
STYLE
  5
BC
330
3
100
AcDbSymbolTableRecord
100
AcDbTextStyleTableRecord
  2
SLDTEXTSTYLE3
 70
     0
 40
0.0
 41
0.6944444444
 50
0.0
 71
     0
 42
3.175
  3
TXT
  4

  0
ENDTAB
  0
TABLE
  2
VIEW
  5
6
330
0
100
AcDbSymbolTable
 70
     0
  0
ENDTAB
  0
TABLE
  2
UCS
  5
7
330
0
100
AcDbSymbolTable
 70
     0
  0
ENDTAB
  0
TABLE
  2
APPID
  5
9
330
0
100
AcDbSymbolTable
 70
     1
  0
APPID
  5
12
330
9
100
AcDbSymbolTableRecord
100
AcDbRegAppTableRecord
  2
ACAD
 70
     0
  0
ENDTAB
  0
TABLE
  2
DIMSTYLE
  5
A
330
0
100
AcDbSymbolTable
 70
     1
100
AcDbDimStyleTable
  0
DIMSTYLE
105
27
330
A
100
AcDbSymbolTableRecord
100
AcDbDimStyleTableRecord
  2
ISO-25
 70
     0
 41
2.5
 42
0.625
 43
3.75
 44
1.25
 73
     0
 74
     0
 77
     1
 78
     8
140
2.5
141
2.5
143
0.0393700787
147
0.625
171
     3
172
     1
178
     0
271
     2
272
     2
274
     3
278
    44
283
     0
284
     8
340
11
  0
ENDTAB
  0
TABLE
  2
BLOCK_RECORD
  5
1
330
0
100
AcDbSymbolTable
 70
     5
  0
BLOCK_RECORD
  5
1F
330
1
100
AcDbSymbolTableRecord
100
AcDbBlockTableRecord
  2
*Model_Space
340
22
  0
BLOCK_RECORD
  5
1B
330
1
100
AcDbSymbolTableRecord
100
AcDbBlockTableRecord
  2
*Paper_Space
340
1E
  0
BLOCK_RECORD
  5
23
330
1
100
AcDbSymbolTableRecord
100
AcDbBlockTableRecord
  2
*Paper_Space0
340
26
  0
BLOCK_RECORD
  5
CB
330
1
100
AcDbSymbolTableRecord
100
AcDbBlockTableRecord
  2
SW_NOTE_0
340
0
102
{BLKREFS
331
D0
102
}
  0
BLOCK_RECORD
  5
D1
330
1
100
AcDbSymbolTableRecord
100
AcDbBlockTableRecord
  2
SW_NOTE_0_1
340
0
102
{BLKREFS
331
E0
102
}
  0
BLOCK_RECORD
  5
E5
330
1
100
AcDbSymbolTableRecord
100
AcDbBlockTableRecord
  2
SW_NOTE_0_2
340
0
102
{BLKREFS
331
EF
102
}
  0
BLOCK_RECORD
  5
227
330
1
100
AcDbSymbolTableRecord
100
AcDbBlockTableRecord
  2
SW_CENTERMARKSYMBOL_0
340
0
102
{BLKREFS
331
232
102
}
  0
ENDTAB
  0
ENDSEC
  0
SECTION
  2
BLOCKS
  0
BLOCK
  5
20
330
1F
100
AcDbEntity
  8
0
100
AcDbBlockBegin
  2
*Model_Space
 70
     0
 10
0.0
 20
0.0
 30
0.0
  3
*Model_Space
  1

  0
ENDBLK
  5
21
330
1F
100
AcDbEntity
  8
0
100
AcDbBlockEnd
  0
BLOCK
  5
1C
330
1B
100
AcDbEntity
 67
     1
  8
0
100
AcDbBlockBegin
  2
*Paper_Space
 70
     0
 10
0.0
 20
0.0
 30
0.0
  3
*Paper_Space
  1

  0
ENDBLK
  5
1D
330
1B
100
AcDbEntity
 67
     1
  8
0
100
AcDbBlockEnd
  0
BLOCK
  5
24
330
23
100
AcDbEntity
  8
0
100
AcDbBlockBegin
  2
*Paper_Space0
 70
     0
 10
0.0
 20
0.0
 30
0.0
  3
*Paper_Space0
  1

  0
ENDBLK
  5
25
330
23
100
AcDbEntity
  8
0
100
AcDbBlockEnd
  0
BLOCK
  5
CC
330
CB
100
AcDbEntity
  8
0
100
AcDbBlockBegin
  2
SW_NOTE_0
 70
     0
 10
0.0
 20
0.0
 30
0.0
  3
SW_NOTE_0
  1

  0
MTEXT
  5
CE
330
CB
100
AcDbEntity
  8
0
  6
Continuous
 62
     0
370
     0
100
AcDbMText
 10
0.0
 20
1.9645392354
 30
0.0
 40
1.524
 41
0.0
 71
     1
 72
     1
  1
INTERPRET GEOMETRIC
  7
SLDTEXTSTYLE0
 73
     1
 44
1.0
  0
MTEXT
  5
CF
330
CB
100
AcDbEntity
  8
0
  6
Continuous
 62
     0
370
     0
100
AcDbMText
 10
0.0
 20
-0.5594606586
 30
0.0
 40
1.524
 41
0.0
 71
     1
 72
     1
  1
TOLERANCING PER:
  7
SLDTEXTSTYLE0
 73
     1
 44
1.0
  0
ENDBLK
  5
CD
330
CB
100
AcDbEntity
  8
0
100
AcDbBlockEnd
  0
BLOCK
  5
D2
330
D1
100
AcDbEntity
  8
0
100
AcDbBlockBegin
  2
SW_NOTE_0_1
 70
     0
 10
0.0
 20
0.0
 30
0.0
  3
SW_NOTE_0_1
  1

  0
MTEXT
  5
D4
330
D1
100
AcDbEntity
  8
0
  6
Continuous
 62
     0
370
     0
100
AcDbMText
 10
0.0
 20
2.1282508384
 30
0.0
 40
1.651
 41
0.0
 71
     1
 72
     1
  1
DIMENSIONS ARE IN INCHES
  7
SLDTEXTSTYLE0
 73
     1
 44
1.0
  0
MTEXT
  5
D5
330
D1
100
AcDbEntity
  8
0
  6
Continuous
 62
     0
370
     0
100
AcDbMText
 10
0.0
 20
-0.5227490914
 30
0.0
 40
1.651
 41
0.0
 71
     1
 72
     1
  1
TOLERANCES:
  7
SLDTEXTSTYLE0
 73
     1
 44
1.0
  0
MTEXT
  5
D6
330
D1
100
AcDbEntity
  8
0
  6
Continuous
 62
     0
370
     0
100
AcDbMText
 10
0.0
 20
-3.1737490211
 30
0.0
 40
1.651
 41
0.0
 71
     1
 72
     1
  1
FRACTIONAL
  7
SLDTEXTSTYLE0
 73
     1
 44
1.0
  0
MTEXT
  5
D7
330
D1
100
AcDbEntity
  8
0
  6
Continuous
 62
     0
370
     0
100
AcDbMText
 10
13.1466602907
 20
-3.1737490211
 30
0.0
 40
1.651
 41
0.0
 71
     1
 72
     1
  1
%%p
  7
SLDTEXTSTYLE0
 73
     1
 44
1.0
  0
MTEXT
  5
D8
330
D1
100
AcDbEntity
  8
0
  6
Continuous
 62
     0
370
     0
100
AcDbMText
 10
0.0
 20
-5.8247489509
 30
0.0
 40
1.651
 41
0.0
 71
     1
 72
     1
  1
ANGULAR: MACH
  7
SLDTEXTSTYLE0
 73
     1
 44
1.0
  0
MTEXT
  5
D9
330
D1
100
AcDbEntity
  8
0
  6
Continuous
 62
     0
370
     0
100
AcDbMText
 10
18.3736812323
 20
-5.8247489509
 30
0.0
 40
1.651
 41
0.0
 71
     1
 72
     1
  1
%%p
  7
SLDTEXTSTYLE0
 73
     1
 44
1.0
  0
MTEXT
  5
DA
330
D1
100
AcDbEntity
  8
0
  6
Continuous
 62
     0
370
     0
100
AcDbMText
 10
23.0418835151
 20
-5.8247489509
 30
0.0
 40
1.651
 41
0.0
 71
     1
 72
     1
  1
BEND
  7
SLDTEXTSTYLE0
 73
     1
 44
1.0
  0
MTEXT
  5
DB
330
D1
100
AcDbEntity
  8
0
  6
Continuous
 62
     0
370
     0
100
AcDbMText
 10
29.1551686823
 20
-5.8247489509
 30
0.0
 40
1.651
 41
0.0
 71
     1
 72
     1
  1
%%p
  7
SLDTEXTSTYLE0
 73
     1
 44
1.0
  0
MTEXT
  5
DC
330
D1
100
AcDbEntity
  8
0
  6
Continuous
 62
     0
370
     0
100
AcDbMText
 10
0.0
 20
-8.4757488807
 30
0.0
 40
1.651
 41
0.0
 71
     1
 72
     1
  1
TWO PLACE DECIMAL
  7
SLDTEXTSTYLE0
 73
     1
 44
1.0
  0
MTEXT
  5
DD
330
D1
100
AcDbEntity
  8
0
  6
Continuous
 62
     0
370
     0
100
AcDbMText
 10
24.877646938
 20
-8.4757488807
 30
0.0
 40
1.651
 41
0.0
 71
     1
 72
     1
  1
%%p
  7
SLDTEXTSTYLE0
 73
     1
 44
1.0
  0
MTEXT
  5
DE
330
D1
100
AcDbEntity
  8
0
  6
Continuous
 62
     0
370
     0
100
AcDbMText
 10
0.0
 20
-11.1267488104
 30
0.0
 40
1.651
 41
0.0
 71
     1
 72
     1
  1
THREE PLACE DECIMAL
  7
SLDTEXTSTYLE0
 73
     1
 44
1.0
  0
MTEXT
  5
DF
330
D1
100
AcDbEntity
  8
0
  6
Continuous
 62
     0
370
     0
100
AcDbMText
 10
24.7346162796
 20
-11.1267488104
 30
0.0
 40
1.651
 41
0.0
 71
     1
 72
     1
  1
%%p
  7
SLDTEXTSTYLE0
 73
     1
 44
1.0
  0
ENDBLK
  5
D3
330
D1
100
AcDbEntity
  8
0
100
AcDbBlockEnd
  0
BLOCK
  5
E6
330
E5
100
AcDbEntity
  8
0
100
AcDbBlockBegin
  2
SW_NOTE_0_2
 70
     0
 10
0.0
 20
0.0
 30
0.0
  3
SW_NOTE_0_2
  1

  0
MTEXT
  5
E8
330
E5
100
AcDbEntity
  8
0
  6
Continuous
 62
     0
370
     0
100
AcDbMText
 10
0.0
 20
1.9645392354
 30
0.0
 40
1.524
 41
0.0
 71
     1
 72
     1
  1
THE INFORMATION CONTAINED IN THIS
  7
SLDTEXTSTYLE0
 73
     1
 44
1.0
  0
MTEXT
  5
E9
330
E5
100
AcDbEntity
  8
0
  6
Continuous
 62
     0
370
     0
100
AcDbMText
 10
0.0
 20
-0.5594606586
 30
0.0
 40
1.524
 41
0.0
 71
     1
 72
     1
  1
DRAWING IS THE SOLE PROPERTY OF
  7
SLDTEXTSTYLE0
 73
     1
 44
1.0
  0
MTEXT
  5
EA
330
E5
100
AcDbEntity
  8
0
  6
Continuous
 62
     0
370
     0
100
AcDbMText
 10
0.0
 20
-3.0834605527
 30
0.0
 40
1.524
 41
0.0
 71
     1
 72
     1
  1
<INSERT COMPANY NAME HERE>.  ANY
  7
SLDTEXTSTYLE0
 73
     1
 44
1.0
  0
MTEXT
  5
EB
330
E5
100
AcDbEntity
  8
0
  6
Continuous
 62
     0
370
     0
100
AcDbMText
 10
0.0
 20
-5.6074604467
 30
0.0
 40
1.524
 41
0.0
 71
     1
 72
     1
  1
REPRODUCTION IN PART OR AS A WHOLE
  7
SLDTEXTSTYLE0
 73
     1
 44
1.0
  0
MTEXT
  5
EC
330
E5
100
AcDbEntity
  8
0
  6
Continuous
 62
     0
370
     0
100
AcDbMText
 10
0.0
 20
-8.1314603407
 30
0.0
 40
1.524
 41
0.0
 71
     1
 72
     1
  1
WITHOUT THE WRITTEN PERMISSION OF
  7
SLDTEXTSTYLE0
 73
     1
 44
1.0
  0
MTEXT
  5
ED
330
E5
100
AcDbEntity
  8
0
  6
Continuous
 62
     0
370
     0
100
AcDbMText
 10
0.0
 20
-10.6554602348
 30
0.0
 40
1.524
 41
0.0
 71
     1
 72
     1
  1
<INSERT COMPANY NAME HERE> IS
  7
SLDTEXTSTYLE0
 73
     1
 44
1.0
  0
MTEXT
  5
EE
330
E5
100
AcDbEntity
  8
0
  6
Continuous
 62
     0
370
     0
100
AcDbMText
 10
0.0
 20
-13.1794601288
 30
0.0
 40
1.524
 41
0.0
 71
     1
 72
     1
  1
PROHIBITED.
  7
SLDTEXTSTYLE0
 73
     1
 44
1.0
  0
ENDBLK
  5
E7
330
E5
100
AcDbEntity
  8
0
100
AcDbBlockEnd
  0
BLOCK
  5
228
330
227
100
AcDbEntity
  8
0
100
AcDbBlockBegin
  2
SW_CENTERMARKSYMBOL_0
 70
     0
 10
0.0
 20
0.0
 30
0.0
  3
SW_CENTERMARKSYMBOL_0
  1

  0
LINE
  5
22A
330
227
100
AcDbEntity
  8
0
  6
Continuous
 62
     0
370
    18
100
AcDbLine
 10
0.0
 20
0.0
 30
0.0
 11
0.0
 21
0.508
 31
0.0
  0
LINE
  5
22B
330
227
100
AcDbEntity
  8
0
  6
Continuous
 62
     0
370
    18
100
AcDbLine
 10
0.0
 20
0.0
 30
0.0
 11
-0.508
 21
0.0
 31
0.0
  0
LINE
  5
22C
330
227
100
AcDbEntity
  8
0
  6
Continuous
 62
     0
370
    18
100
AcDbLine
 10
0.0
 20
0.0
 30
0.0
 11
0.0
 21
-0.508
 31
0.0
  0
LINE
  5
22D
330
227
100
AcDbEntity
  8
0
  6
Continuous
 62
     0
370
    18
100
AcDbLine
 10
0.0
 20
0.0
 30
0.0
 11
0.508
 21
0.0
 31
0.0
  0
LINE
  5
22E
330
227
100
AcDbEntity
  8
0
  6
Continuous
 62
     0
370
    18
100
AcDbLine
 10
0.0
 20
1.016
 30
0.0
 11
0.0
 21
3.683
 31
0.0
  0
LINE
  5
22F
330
227
100
AcDbEntity
  8
0
  6
Continuous
 62
     0
370
    18
100
AcDbLine
 10
-1.016
 20
0.0
 30
0.0
 11
-3.683
 21
0.0
 31
0.0
  0
LINE
  5
230
330
227
100
AcDbEntity
  8
0
  6
Continuous
 62
     0
370
    18
100
AcDbLine
 10
0.0
 20
-1.016
 30
0.0
 11
0.0
 21
-3.683
 31
0.0
  0
LINE
  5
231
330
227
100
AcDbEntity
  8
0
  6
Continuous
 62
     0
370
    18
100
AcDbLine
 10
1.016
 20
0.0
 30
0.0
 11
3.683
 21
0.0
 31
0.0
  0
ENDBLK
  5
229
330
227
100
AcDbEntity
  8
0
100
AcDbBlockEnd
  0
ENDSEC
  0
SECTION
  2
ENTITIES
  0
LINE
  5
74
330
1F
100
AcDbEntity
  8
0
  6
Continuous
 62
     7
370
    18
100
AcDbLine
 10
270.9737310706
 20
12.7
 30
0.0
 11
270.9737310706
 21
62.5944383331
 31
0.0
  0
LINE
  5
75
330
1F
100
AcDbEntity
  8
0
  6
Continuous
 62
     7
370
    18
100
AcDbLine
 10
220.7541319701
 20
62.5944383331
 30
0.0
 11
419.1
 21
62.5944383331
 31
0.0
  0
LINE
  5
76
330
1F
100
AcDbEntity
  8
0
  6
Continuous
 62
     7
370
    18
100
AcDbLine
 10
305.9481386263
 20
62.5944383331
 30
0.0
 11
305.9481386263
 21
12.7
 31
0.0
  0
LINE
  5
77
330
1F
100
AcDbEntity
  8
0
  6
Continuous
 62
     7
370
    18
100
AcDbLine
 10
349.028512112
 20
62.5944383331
 30
0.0
 11
349.028512112
 21
12.7
 31
0.0
  0
LINE
  5
78
330
1F
100
AcDbEntity
  8
0
  6
Continuous
 62
     7
370
    18
100
AcDbLine
 10
349.028512112
 20
18.1073003199
 30
0.0
 11
419.1
 21
18.1073003199
 31
0.0
  0
LINE
  5
79
330
1F
100
AcDbEntity
  8
0
  6
Continuous
 62
     7
370
    18
100
AcDbLine
 10
349.028512112
 20
30.9845221033
 30
0.0
 11
419.1
 21
30.9845221033
 31
0.0
  0
LINE
  5
7A
330
1F
100
AcDbEntity
  8
0
  6
Continuous
 62
     7
370
    18
100
AcDbLine
 10
349.028512112
 20
53.268808883
 30
0.0
 11
419.1
 21
53.268808883
 31
0.0
  0
LINE
  5
7B
330
1F
100
AcDbEntity
  8
0
  6
Continuous
 62
     7
370
    18
100
AcDbLine
 10
359.0753486998
 20
30.9845221033
 30
0.0
 11
359.0753486998
 21
18.1073003199
 31
0.0
  0
LINE
  5
7C
330
1F
100
AcDbEntity
  8
0
  6
Continuous
 62
     7
370
    18
100
AcDbLine
 10
369.9361795467
 20
18.1073003199
 30
0.0
 11
369.9361795467
 21
12.7
 31
0.0
  0
LINE
  5
7D
330
1F
100
AcDbEntity
  8
0
  6
Continuous
 62
     7
370
    18
100
AcDbLine
 10
404.5728434947
 20
30.9845221033
 30
0.0
 11
404.5728434947
 21
18.1073003199
 31
0.0
  0
LINE
  5
7E
330
1F
100
AcDbEntity
  8
0
  6
Continuous
 62
     7
370
    18
100
AcDbLine
 10
394.6227480427
 20
18.1073003199
 30
0.0
 11
394.6227480427
 21
12.7
 31
0.0
  0
LINE
  5
7F
330
1F
100
AcDbEntity
  8
0
  6
Continuous
 62
     7
370
    18
100
AcDbLine
 10
220.7541319701
 20
17.68538066
 30
0.0
 11
305.9481386263
 21
17.68538066
 31
0.0
  0
LINE
  5
80
330
1F
100
AcDbEntity
  8
0
  6
Continuous
 62
     7
370
    18
100
AcDbLine
 10
305.9481386263
 20
48.3069383331
 30
0.0
 11
349.028512112
 21
48.3069383331
 31
0.0
  0
LINE
  5
81
330
1F
100
AcDbEntity
  8
0
  6
Continuous
 62
     7
370
    18
100
AcDbLine
 10
305.9481386263
 20
53.0694383331
 30
0.0
 11
349.028512112
 21
53.0694383331
 31
0.0
  0
LINE
  5
82
330
1F
100
AcDbEntity
  8
0
  6
Continuous
 62
     7
370
    18
100
AcDbLine
 10
305.9481386263
 20
57.8319383331
 30
0.0
 11
349.028512112
 21
57.8319383331
 31
0.0
  0
LINE
  5
83
330
1F
100
AcDbEntity
  8
0
  6
Continuous
 62
     7
370
    18
100
AcDbLine
 10
349.028512112
 20
34.0194383331
 30
0.0
 11
306.0625895844
 21
34.0194383331
 31
0.0
  0
LINE
  5
84
330
1F
100
AcDbEntity
  8
0
  6
Continuous
 62
     7
370
    18
100
AcDbLine
 10
336.8606683857
 20
62.5944383331
 30
0.0
 11
336.8606683857
 21
34.0194383331
 31
0.0
  0
LINE
  5
85
330
1F
100
AcDbEntity
  8
0
  6
Continuous
 62
     7
370
    18
100
AcDbLine
 10
324.9600773885
 20
62.5944383331
 30
0.0
 11
324.9600773885
 21
34.0194383331
 31
0.0
  0
LINE
  5
86
330
1F
100
AcDbEntity
  8
0
  6
Continuous
 62
     7
370
    18
100
AcDbLine
 10
270.9737310706
 20
24.4785733387
 30
0.0
 11
305.9481386263
 21
24.4785733387
 31
0.0
  0
LINE
  5
87
330
1F
100
AcDbEntity
  8
0
  6
Continuous
 62
     7
370
    18
100
AcDbLine
 10
270.9737310706
 20
31.3365733387
 30
0.0
 11
306.0625895844
 21
31.3365733387
 31
0.0
  0
LINE
  5
88
330
1F
100
AcDbEntity
  8
0
  6
Continuous
 62
     7
370
    18
100
AcDbLine
 10
220.7541319701
 20
12.7
 30
0.0
 11
220.7541319701
 21
62.5944383331
 31
0.0
  0
LINE
  5
89
330
1F
100
AcDbEntity
  8
0
  6
Continuous
 62
     7
370
    18
100
AcDbLine
 10
220.7541319701
 20
30.8444383331
 30
0.0
 11
270.9737310706
 21
30.8444383331
 31
0.0
  0
LINE
  5
8A
330
1F
100
AcDbEntity
  8
0
  6
Continuous
 62
     7
370
    18
100
AcDbLine
 10
220.7541319701
 20
37.1944383331
 30
0.0
 11
270.9737310706
 21
37.1944383331
 31
0.0
  0
LINE
  5
8B
330
1F
100
AcDbEntity
  8
0
  6
Continuous
 62
     7
370
    18
100
AcDbLine
 10
220.7541319701
 20
43.5444383331
 30
0.0
 11
270.9737310706
 21
43.5444383331
 31
0.0
  0
LINE
  5
8C
330
1F
100
AcDbEntity
  8
0
  6
Continuous
 62
     7
370
    18
100
AcDbLine
 10
220.7541319701
 20
49.8944383331
 30
0.0
 11
270.9737310706
 21
49.8944383331
 31
0.0
  0
LINE
  5
8D
330
1F
100
AcDbEntity
  8
0
  6
Continuous
 62
     7
370
    18
100
AcDbLine
 10
246.1028272634
 20
62.5944383331
 30
0.0
 11
246.1028272634
 21
17.68538066
 31
0.0
  0
LINE
  5
8E
330
1F
100
AcDbEntity
  8
0
  6
Continuous
 62
     7
370
    18
100
AcDbLine
 10
305.9481386263
 20
58.6742077444
 30
0.0
 11
270.9737310706
 21
58.6742077444
 31
0.0
  0
LINE
  5
8F
330
1F
100
AcDbEntity
  8
0
  6
Continuous
 62
     7
370
    18
100
AcDbLine
 10
349.028512112
 20
43.5444383331
 30
0.0
 11
305.9481386263
 21
43.5444383331
 31
0.0
  0
LINE
  5
90
330
1F
100
AcDbEntity
  8
0
  6
Continuous
 62
     7
370
    18
100
AcDbLine
 10
349.028512112
 20
38.7819383331
 30
0.0
 11
305.9481386263
 21
38.7819383331
 31
0.0
  0
LINE
  5
91
330
1F
100
AcDbEntity
  8
0
  6
Continuous
 62
     7
370
    18
100
AcDbLine
 10
220.7541319701
 20
56.2444383331
 30
0.0
 11
270.9737310706
 21
56.2444383331
 31
0.0
  0
LINE
  5
92
330
1F
100
AcDbEntity
  8
0
  6
Continuous
 62
     7
370
    18
100
AcDbLine
 10
270.9737310706
 20
38.1945733387
 30
0.0
 11
306.0625895844
 21
38.1945733387
 31
0.0
  0
LINE
  5
93
330
1F
100
AcDbEntity
  8
0
  6
Continuous
 62
     7
370
    18
100
AcDbLine
 10
220.7541319701
 20
24.4944383331
 30
0.0
 11
270.9737310706
 21
24.4944383331
 31
0.0
  0
LINE
  5
94
330
1F
100
AcDbEntity
  8
0
  6
Continuous
 62
     7
370
    18
100
AcDbLine
 10
179.1690166746
 20
12.7
 30
0.0
 11
179.1690166746
 21
35.9244383331
 31
0.0
  0
LINE
  5
95
330
1F
100
AcDbEntity
  8
0
  6
Continuous
 62
     7
370
    18
100
AcDbLine
 10
220.7541319701
 20
35.9244383331
 30
0.0
 11
179.1690166746
 21
35.9244383331
 31
0.0
  0
LINE
  5
96
330
1F
100
AcDbEntity
  8
0
  6
Continuous
 62
     7
370
    50
100
AcDbLine
 10
12.7
 20
12.7
 30
0.0
 11
12.7
 21
266.7
 31
0.0
  0
LINE
  5
97
330
1F
100
AcDbEntity
  8
0
  6
Continuous
 62
     7
370
    50
100
AcDbLine
 10
12.7
 20
266.7
 30
0.0
 11
419.1
 21
266.7
 31
0.0
  0
LINE
  5
98
330
1F
100
AcDbEntity
  8
0
  6
Continuous
 62
     7
370
    50
100
AcDbLine
 10
419.1
 20
266.7
 30
0.0
 11
419.1
 21
12.7
 31
0.0
  0
LINE
  5
99
330
1F
100
AcDbEntity
  8
0
  6
Continuous
 62
     7
370
    50
100
AcDbLine
 10
419.1
 20
12.7
 30
0.0
 11
12.7
 21
12.7
 31
0.0
  0
LINE
  5
9A
330
1F
100
AcDbEntity
  8
0
  6
Continuous
 62
     7
370
    25
100
AcDbLine
 10
3.175
 20
139.7
 30
0.0
 11
12.7
 21
139.7
 31
0.0
  0
LINE
  5
9B
330
1F
100
AcDbEntity
  8
0
  6
Continuous
 62
     7
370
    25
100
AcDbLine
 10
215.9
 20
276.225
 30
0.0
 11
215.9
 21
266.7
 31
0.0
  0
LINE
  5
9C
330
1F
100
AcDbEntity
  8
0
  6
Continuous
 62
     7
370
    25
100
AcDbLine
 10
428.625
 20
139.7
 30
0.0
 11
419.1
 21
139.7
 31
0.0
  0
LINE
  5
9D
330
1F
100
AcDbEntity
  8
0
  6
Continuous
 62
     7
370
    25
100
AcDbLine
 10
215.9
 20
3.175
 30
0.0
 11
215.9
 21
12.7
 31
0.0
  0
LINE
  5
9E
330
1F
100
AcDbEntity
  8
0
  6
Continuous
 62
     7
370
    25
100
AcDbLine
 10
12.7
 20
139.7
 30
0.0
 11
3.175
 21
139.7
 31
0.0
  0
LINE
  5
9F
330
1F
100
AcDbEntity
  8
0
  6
Continuous
 62
     7
370
    25
100
AcDbLine
 10
419.1
 20
139.7
 30
0.0
 11
428.625
 21
139.7
 31
0.0
  0
LINE
  5
A0
330
1F
100
AcDbEntity
  8
0
  6
Continuous
 62
     7
370
    25
100
AcDbLine
 10
107.95
 20
266.7
 30
0.0
 11
107.95
 21
276.225
 31
0.0
  0
LINE
  5
A1
330
1F
100
AcDbEntity
  8
0
  6
Continuous
 62
     7
370
    25
100
AcDbLine
 10
107.95
 20
12.7
 30
0.0
 11
107.95
 21
3.175
 31
0.0
  0
LINE
  5
A2
330
1F
100
AcDbEntity
  8
0
  6
Continuous
 62
     7
370
    25
100
AcDbLine
 10
215.9
 20
266.7
 30
0.0
 11
215.9
 21
276.225
 31
0.0
  0
LINE
  5
A3
330
1F
100
AcDbEntity
  8
0
  6
Continuous
 62
     7
370
    25
100
AcDbLine
 10
215.9
 20
12.7
 30
0.0
 11
215.9
 21
3.175
 31
0.0
  0
LINE
  5
A4
330
1F
100
AcDbEntity
  8
0
  6
Continuous
 62
     7
370
    25
100
AcDbLine
 10
323.85
 20
266.7
 30
0.0
 11
323.85
 21
276.225
 31
0.0
  0
LINE
  5
A5
330
1F
100
AcDbEntity
  8
0
  6
Continuous
 62
     7
370
    25
100
AcDbLine
 10
323.85
 20
12.7
 30
0.0
 11
323.85
 21
3.175
 31
0.0
  0
MTEXT
  5
A7
330
1F
100
AcDbEntity
  8
0
  6
Continuous
 62
     7
370
     0
100
AcDbMText
 10
6.1065833417
 20
69.8256904019
 30
0.0
 40
6.096
 41
0.0
 71
     2
 72
     1
  1
A
  7
SLDTEXTSTYLE0
 73
     1
 44
1.0
  0
MTEXT
  5
A8
330
1F
100
AcDbEntity
  8
0
  6
Continuous
 62
     7
370
     0
100
AcDbMText
 10
425.2065833417
 20
69.8256904019
 30
0.0
 40
6.096
 41
0.0
 71
     2
 72
     1
  1
A
  7
SLDTEXTSTYLE0
 73
     1
 44
1.0
  0
MTEXT
  5
A9
330
1F
100
AcDbEntity
  8
0
  6
Continuous
 62
     7
370
     0
100
AcDbMText
 10
6.3034332283
 20
209.5256904019
 30
0.0
 40
6.096
 41
0.0
 71
     2
 72
     1
  1
B
  7
SLDTEXTSTYLE0
 73
     1
 44
1.0
  0
MTEXT
  5
AA
330
1F
100
AcDbEntity
  8
0
  6
Continuous
 62
     7
370
     0
100
AcDbMText
 10
425.4034332283
 20
209.5256904019
 30
0.0
 40
6.096
 41
0.0
 71
     2
 72
     1
  1
B
  7
SLDTEXTSTYLE0
 73
     1
 44
1.0
  0
MTEXT
  5
AB
330
1F
100
AcDbEntity
  8
0
  6
Continuous
 62
     7
370
     0
100
AcDbMText
 10
53.9136166697
 20
9.4636904019
 30
0.0
 40
6.096
 41
0.0
 71
     2
 72
     1
  1
4
  7
SLDTEXTSTYLE0
 73
     1
 44
1.0
  0
MTEXT
  5
AC
330
1F
100
AcDbEntity
  8
0
  6
Continuous
 62
     7
370
     0
100
AcDbMText
 10
53.9136166697
 20
276.1636904019
 30
0.0
 40
6.096
 41
0.0
 71
     2
 72
     1
  1
4
  7
SLDTEXTSTYLE0
 73
     1
 44
1.0
  0
MTEXT
  5
AD
330
1F
100
AcDbEntity
  8
0
  6
Continuous
 62
     7
370
     0
100
AcDbMText
 10
161.8636166697
 20
9.4636904019
 30
0.0
 40
6.096
 41
0.0
 71
     2
 72
     1
  1
3
  7
SLDTEXTSTYLE0
 73
     1
 44
1.0
  0
MTEXT
  5
AE
330
1F
100
AcDbEntity
  8
0
  6
Continuous
 62
     7
370
     0
100
AcDbMText
 10
161.8636166697
 20
276.1636904019
 30
0.0
 40
6.096
 41
0.0
 71
     2
 72
     1
  1
3
  7
SLDTEXTSTYLE0
 73
     1
 44
1.0
  0
MTEXT
  5
AF
330
1F
100
AcDbEntity
  8
0
  6
Continuous
 62
     7
370
     0
100
AcDbMText
 10
269.8136166697
 20
9.4636904019
 30
0.0
 40
6.096
 41
0.0
 71
     2
 72
     1
  1
2
  7
SLDTEXTSTYLE0
 73
     1
 44
1.0
  0
MTEXT
  5
B0
330
1F
100
AcDbEntity
  8
0
  6
Continuous
 62
     7
370
     0
100
AcDbMText
 10
269.8136166697
 20
276.1636904019
 30
0.0
 40
6.096
 41
0.0
 71
     2
 72
     1
  1
2
  7
SLDTEXTSTYLE0
 73
     1
 44
1.0
  0
MTEXT
  5
B1
330
1F
100
AcDbEntity
  8
0
  6
Continuous
 62
     7
370
     0
100
AcDbMText
 10
377.7636166697
 20
9.4636904019
 30
0.0
 40
6.096
 41
0.0
 71
     2
 72
     1
  1
1
  7
SLDTEXTSTYLE0
 73
     1
 44
1.0
  0
MTEXT
  5
B2
330
1F
100
AcDbEntity
  8
0
  6
Continuous
 62
     7
370
     0
100
AcDbMText
 10
377.7636166697
 20
276.1636904019
 30
0.0
 40
6.096
 41
0.0
 71
     2
 72
     1
  1
1
  7
SLDTEXTSTYLE0
 73
     1
 44
1.0
  0
MTEXT
  5
B3
330
1F
100
AcDbEntity
  8
0
  6
Continuous
 62
     7
370
     0
100
AcDbMText
 10
288.453747668
 20
15.8946104384
 30
0.0
 40
1.5875
 41
0.0
 71
     2
 72
     1
  1
DO NOT SCALE DRAWING
  7
SLDTEXTSTYLE0
 73
     1
 44
1.0
  0
MTEXT
  5
B5
330
1F
100
AcDbEntity
  8
0
  6
Continuous
 62
     7
370
     0
100
AcDbMText
 10
382.9745434271
 20
26.8729198671
 30
0.0
 40
6.35
 41
0.0
 71
     2
 72
     1
  1
uper a arm final-1 2 mm  thickness
  7
SLDTEXTSTYLE1
 73
     1
 44
1.0
  0
MTEXT
  5
B7
330
1F
100
AcDbEntity
  8
0
  6
Continuous
 62
     7
370
     0
100
AcDbMText
 10
396.9309015475
 20
16.7729098749
 30
0.0
 40
2.54
 41
0.0
 71
     1
 72
     1
  1
SHEET 1 OF 1
  7
SLDTEXTSTYLE2
 73
     1
 44
1.0
  0
MTEXT
  5
B8
330
1F
100
AcDbEntity
  8
0
  6
Continuous
 62
     7
370
     0
100
AcDbMText
 10
272.1579719589
 20
61.4990449608
 30
0.0
 40
1.778
 41
0.0
 71
     1
 72
     1
  1
UNLESS OTHERWISE SPECIFIED:
  7
SLDTEXTSTYLE0
 73
     1
 44
1.0
  0
MTEXT
  5
B9
330
1F
100
AcDbEntity
  8
0
  6
Continuous
 62
     7
370
     0
100
AcDbMText
 10
351.2486489046
 20
16.7646506765
 30
0.0
 40
2.54
 41
0.0
 71
     1
 72
     1
  1
SCALE: 1:5
  7
SLDTEXTSTYLE0
 73
     1
 44
1.0
  0
MTEXT
  5
BA
330
1F
100
AcDbEntity
  8
0
  6
Continuous
 62
     7
370
     0
100
AcDbMText
 10
370.1400309829
 20
16.6777203587
 30
0.0
 40
2.54
 41
0.0
 71
     1
 72
     1
  1
WEIGHT:
  7
SLDTEXTSTYLE0
 73
     1
 44
1.0
  0
MTEXT
  5
BB
330
1F
100
AcDbEntity
  8
0
  6
Continuous
 62
     7
370
     0
100
AcDbMText
 10
408.8849098979
 20
30.2232854568
 30
0.0
 40
2.54
 41
0.0
 71
     1
 72
     1
  1
REV
  7
SLDTEXTSTYLE0
 73
     1
 44
1.0
  0
MTEXT
  5
BD
330
1F
100
AcDbEntity
  8
0
  6
Continuous
 62
     7
370
     0
100
AcDbMText
 10
359.8806642798
 20
30.3225037079
 30
0.0
 40
2.54
 41
0.0
 71
     1
 72
     1
  1
DWG.  NO.
  7
SLDTEXTSTYLE3
 73
     1
 44
1.0
  0
MTEXT
  5
BE
330
1F
100
AcDbEntity
  8
0
  6
Continuous
 62
     7
370
     0
100
AcDbMText
 10
351.2800000853
 20
26.7243788986
 30
0.0
 40
6.35
 41
0.0
 71
     1
 72
     1
  1
B
  7
SLDTEXTSTYLE0
 73
     1
 44
1.0
  0
MTEXT
  5
BF
330
1F
100
AcDbEntity
  8
0
  6
Continuous
 62
     7
370
     0
100
AcDbMText
 10
351.079592027
 20
30.3580337109
 30
0.0
 40
2.54
 41
0.0
 71
     1
 72
     1
  1
SIZE
  7
SLDTEXTSTYLE0
 73
     1
 44
1.0
  0
MTEXT
  5
C0
330
1F
100
AcDbEntity
  8
0
  6
Continuous
 62
     7
370
     0
100
AcDbMText
 10
350.1934428097
 20
52.3929595276
 30
0.0
 40
2.54
 41
0.0
 71
     1
 72
     1
  1
TITLE:
  7
SLDTEXTSTYLE0
 73
     1
 44
1.0
  0
MTEXT
  5
C1
330
1F
100
AcDbEntity
  8
0
  6
Continuous
 62
     7
370
     0
100
AcDbMText
 10
327.8238425205
 20
60.9229910986
 30
0.0
 40
1.651
 41
0.0
 71
     1
 72
     1
  1
NAME
  7
SLDTEXTSTYLE0
 73
     1
 44
1.0
  0
MTEXT
  5
C2
330
1F
100
AcDbEntity
  8
0
  6
Continuous
 62
     7
370
     0
100
AcDbMText
 10
340.3148912103
 20
60.8788912243
 30
0.0
 40
1.651
 41
0.0
 71
     1
 72
     1
  1
DATE
  7
SLDTEXTSTYLE0
 73
     1
 44
1.0
  0
MTEXT
  5
C3
330
1F
100
AcDbEntity
  8
0
  6
Continuous
 62
     7
370
     0
100
AcDbMText
 10
307.2838076531
 20
32.9087008505
 30
0.0
 40
1.651
 41
0.0
 71
     1
 72
     1
  1
COMMENTS:
  7
SLDTEXTSTYLE0
 73
     1
 44
1.0
  0
MTEXT
  5
C4
330
1F
100
AcDbEntity
  8
0
  6
Continuous
 62
     7
370
     0
100
AcDbMText
 10
307.2616193103
 20
37.1230397293
 30
0.0
 40
1.651
 41
0.0
 71
     1
 72
     1
  1
Q.A.
  7
SLDTEXTSTYLE0
 73
     1
 44
1.0
  0
MTEXT
  5
C5
330
1F
100
AcDbEntity
  8
0
  6
Continuous
 62
     7
370
     0
100
AcDbMText
 10
307.3028766528
 20
41.8454756596
 30
0.0
 40
1.651
 41
0.0
 71
     1
 72
     1
  1
MFG APPR.
  7
SLDTEXTSTYLE0
 73
     1
 44
1.0
  0
MTEXT
  5
C6
330
1F
100
AcDbEntity
  8
0
  6
Continuous
 62
     7
370
     0
100
AcDbMText
 10
307.177189414
 20
46.6007959981
 30
0.0
 40
1.651
 41
0.0
 71
     1
 72
     1
  1
ENG APPR.
  7
SLDTEXTSTYLE0
 73
     1
 44
1.0
  0
MTEXT
  5
C7
330
1F
100
AcDbEntity
  8
0
  6
Continuous
 62
     7
370
     0
100
AcDbMText
 10
307.2506782356
 20
51.2367971468
 30
0.0
 40
1.651
 41
0.0
 71
     1
 72
     1
  1
CHECKED
  7
SLDTEXTSTYLE0
 73
     1
 44
1.0
  0
MTEXT
  5
C8
330
1F
100
AcDbEntity
  8
0
  6
Continuous
 62
     7
370
     0
100
AcDbMText
 10
307.196551863
 20
56.122746594
 30
0.0
 40
1.651
 41
0.0
 71
     1
 72
     1
  1
DRAWN
  7
SLDTEXTSTYLE0
 73
     1
 44
1.0
  0
MTEXT
  5
C9
330
1F
100
AcDbEntity
  8
0
  6
Continuous
 62
     7
370
     0
100
AcDbMText
 10
271.5497006873
 20
23.9382316328
 30
0.0
 40
1.524
 41
0.0
 71
     1
 72
     1
  1
FINISH
  7
SLDTEXTSTYLE0
 73
     1
 44
1.0
  0
MTEXT
  5
CA
330
1F
100
AcDbEntity
  8
0
  6
Continuous
 62
     7
370
     0
100
AcDbMText
 10
271.4802054458
 20
30.7530141342
 30
0.0
 40
1.524
 41
0.0
 71
     1
 72
     1
  1
MATERIAL
  7
SLDTEXTSTYLE0
 73
     1
 44
1.0
  0
INSERT
  5
D0
330
1F
100
AcDbEntity
  8
0
  6
Continuous
 62
     7
370
     0
100
AcDbBlockReference
  2
SW_NOTE_0
 10
271.6089478467
 20
34.8635605478
 30
0.0
  0
INSERT
  5
E0
330
1F
100
AcDbEntity
  8
0
  6
Continuous
 62
     7
370
     0
100
AcDbBlockReference
  2
SW_NOTE_0_1
 10
271.9173361573
 20
53.6662300215
 30
0.0
  0
MTEXT
  5
E1
330
1F
100
AcDbEntity
  8
0
  6
Continuous
 62
     7
370
     0
100
AcDbMText
 10
239.349610419
 20
15.9495751364
 30
0.0
 40
1.5875
 41
0.0
 71
     1
 72
     1
  1
APPLICATION
  7
SLDTEXTSTYLE0
 73
     1
 44
1.0
  0
MTEXT
  5
E2
330
1F
100
AcDbEntity
  8
0
  6
Continuous
 62
     7
370
     0
100
AcDbMText
 10
253.2540979063
 20
21.7975753227
 30
0.0
 40
1.5875
 41
0.0
 71
     1
 72
     1
  1
USED ON
  7
SLDTEXTSTYLE0
 73
     1
 44
1.0
  0
MTEXT
  5
E3
330
1F
100
AcDbEntity
  8
0
  6
Continuous
 62
     7
370
     0
100
AcDbMText
 10
227.9415038203
 20
21.7712622135
 30
0.0
 40
1.5875
 41
0.0
 71
     1
 72
     1
  1
NEXT ASSY
  7
SLDTEXTSTYLE0
 73
     1
 44
1.0
  0
MTEXT
  5
E4
330
1F
100
AcDbEntity
  8
0
  6
Continuous
 62
     7
370
     0
100
AcDbMText
 10
183.9295775012
 20
34.482890082
 30
0.0
 40
1.524
 41
0.0
 71
     1
 72
     1
  1
PROPRIETARY AND CONFIDENTIAL
  7
SLDTEXTSTYLE0
 73
     1
 44
1.0
  0
INSERT
  5
EF
330
1F
100
AcDbEntity
  8
0
  6
Continuous
 62
     7
370
     0
100
AcDbBlockReference
  2
SW_NOTE_0_2
 10
180.1544252483
 20
28.9376134837
 30
0.0
  0
LINE
  5
F0
330
1F
100
AcDbEntity
  8
0
  6
Continuous
 62
     7
100
AcDbLine
 10
352.5491285931
 20
148.2707012268
 30
0.0
 11
350.8201778898
 21
147.4004569695
 31
0.0
  0
LINE
  5
F1
330
1F
100
AcDbEntity
  8
0
  6
CENTERX2
 62
     7
100
AcDbLine
 10
294.8915258773
 20
126.319052486
 30
0.0
 11
376.0490549756
 21
103.3756668627
 31
0.0
  0
LINE
  5
F2
330
1F
100
AcDbEntity
  8
0
  6
CENTERX2
 62
     7
100
AcDbLine
 10
376.0490549756
 20
103.3756668627
 30
0.0
 11
344.8979410469
 21
149.8875498035
 31
0.0
  0
LINE
  5
F3
330
1F
100
AcDbEntity
  8
0
  6
CENTERX2
 62
     7
100
AcDbLine
 10
370.7425462456
 20
104.8178622308
 30
0.0
 11
294.8915258773
 21
126.319052486
 31
0.0
  0
LINE
  5
F4
330
1F
100
AcDbEntity
  8
0
  6
CENTERX2
 62
     7
100
AcDbLine
 10
370.7425462456
 20
104.8178622308
 30
0.0
 11
344.8979410469
 21
149.8875498035
 31
0.0
  0
LINE
  5
F5
330
1F
100
AcDbEntity
  8
0
  6
Continuous
 62
     7
100
AcDbLine
 10
294.8915258773
 20
126.319052486
 30
0.0
 11
291.6246581548
 21
123.1304894384
 31
0.0
  0
LINE
  5
F6
330
1F
100
AcDbEntity
  8
0
  6
Continuous
 62
     7
100
AcDbLine
 10
344.8979410469
 20
149.8875498035
 30
0.0
 11
348.1648087694
 21
153.0761128511
 31
0.0
  0
LINE
  5
F7
330
1F
100
AcDbEntity
  8
0
  6
CENTERX2
 62
     7
100
AcDbLine
 10
291.6246581548
 20
123.1304894384
 30
0.0
 11
370.7425462456
 21
104.8178622308
 31
0.0
  0
LINE
  5
F8
330
1F
100
AcDbEntity
  8
0
  6
CENTERX2
 62
     7
100
AcDbLine
 10
370.7425462456
 20
104.8178622308
 30
0.0
 11
348.1648087694
 21
153.0761128511
 31
0.0
  0
LINE
  5
F9
330
1F
100
AcDbEntity
  8
0
  6
CENTERX2
 62
     7
100
AcDbLine
 10
350.8201778898
 20
147.4004569695
 30
0.0
 11
299.144163118
 21
121.3900247407
 31
0.0
  0
LINE
  5
FA
330
1F
100
AcDbEntity
  8
0
  6
Continuous
 62
     7
100
AcDbLine
 10
370.7425462456
 20
104.8178622308
 30
0.0
 11
324.9821705039
 21
134.3952408551
 31
0.0
  0
LINE
  5
FB
330
1F
100
AcDbEntity
  8
0
  6
Continuous
 62
     7
100
AcDbLine
 10
297.4152124146
 20
120.5197804834
 30
0.0
 11
299.144163118
 21
121.3900247407
 31
0.0
  0
LINE
  5
FC
330
1F
100
AcDbEntity
  8
0
  6
Continuous
 62
     7
100
AcDbLine
 10
350.8201778898
 20
147.4004569695
 30
0.0
 11
347.3622764831
 21
145.6599684548
 31
0.0
  0
LINE
  5
FD
330
1F
100
AcDbEntity
  8
0
  6
Continuous
 62
     7
100
AcDbLine
 10
299.144163118
 20
121.3900247407
 30
0.0
 11
303.1783814257
 21
123.4205946745
 31
0.0
  0
LINE
  5
FE
330
1F
100
AcDbEntity
  8
0
  6
Continuous
 62
     7
100
AcDbLine
 10
299.144163118
 20
121.3900247407
 30
0.0
 11
370.7425462456
 21
104.8178622308
 31
0.0
  0
LINE
  5
FF
330
1F
100
AcDbEntity
  8
0
  6
Continuous
 62
     7
100
AcDbLine
 10
370.7425462456
 20
104.8178622308
 30
0.0
 11
350.8201778898
 21
147.4004569695
 31
0.0
  0
LINE
  5
100
330
1F
100
AcDbEntity
  8
0
  6
Continuous
 62
     7
100
AcDbLine
 10
365.8906368203
 20
115.1884612016
 30
0.0
 11
353.6605741009
 21
108.7716556827
 31
0.0
  0
LINE
  5
101
330
1F
100
AcDbEntity
  8
0
  6
Continuous
 62
     7
100
AcDbLine
 10
359.7126900319
 20
111.9470483032
 30
0.0
 11
334.0429644394
 21
219.8500624299
 31
0.0
  0
LINE
  5
102
330
1F
100
AcDbEntity
  8
0
  6
Continuous
 62
     7
100
AcDbLine
 10
370.7425462456
 20
104.8178622308
 30
0.0
 11
374.2802187323
 21
103.8563986521
 31
0.0
  0
LINE
  5
103
330
1F
100
AcDbEntity
  8
0
  6
Continuous
 62
     7
100
AcDbLine
 10
370.7425462456
 20
104.8178622308
 30
0.0
 11
361.8983650288
 21
107.2215211777
 31
0.0
  0
POINT
  5
104
330
1F
100
AcDbEntity
  8
0
  6
Continuous
 62
     7
100
AcDbPoint
 10
344.8979410469
 20
149.8875498035
 30
0.0
  0
POINT
  5
105
330
1F
100
AcDbEntity
  8
0
  6
Continuous
 62
     7
100
AcDbPoint
 10
365.8906368203
 20
115.1884612016
 30
0.0
  0
POINT
  5
106
330
1F
100
AcDbEntity
  8
0
  6
Continuous
 62
     7
100
AcDbPoint
 10
353.6605741009
 20
108.7716556827
 30
0.0
  0
POINT
  5
107
330
1F
100
AcDbEntity
  8
0
  6
Continuous
 62
     7
100
AcDbPoint
 10
360.8460301426
 20
112.5416832813
 30
0.0
  0
POINT
  5
108
330
1F
100
AcDbEntity
  8
0
  6
Continuous
 62
     7
100
AcDbPoint
 10
358.5793499212
 20
111.3524133251
 30
0.0
  0
POINT
  5
109
330
1F
100
AcDbEntity
  8
0
  6
Continuous
 62
     7
100
AcDbPoint
 10
299.144163118
 20
121.3900247407
 30
0.0
  0
POINT
  5
10A
330
1F
100
AcDbEntity
  8
0
  6
Continuous
 62
     7
100
AcDbPoint
 10
350.8201778898
 20
147.4004569695
 30
0.0
  0
POINT
  5
10B
330
1F
100
AcDbEntity
  8
0
  6
Continuous
 62
     7
100
AcDbPoint
 10
361.5912967697
 20
110.7328042794
 30
0.0
  0
POINT
  5
10C
330
1F
100
AcDbEntity
  8
0
  6
Continuous
 62
     7
100
AcDbPoint
 10
356.4239921748
 20
108.1320349063
 30
0.0
  0
POINT
  5
10D
330
1F
100
AcDbEntity
  8
0
  6
Continuous
 62
     7
100
AcDbPoint
 10
366.7580573996
 20
113.3344136136
 30
0.0
  0
POINT
  5
10E
330
1F
100
AcDbEntity
  8
0
  6
Continuous
 62
     7
100
AcDbPoint
 10
350.8201778898
 20
147.4004569695
 30
0.0
  0
POINT
  5
10F
330
1F
100
AcDbEntity
  8
0
  6
Continuous
 62
     7
100
AcDbPoint
 10
359.7126900319
 20
111.9470483032
 30
0.0
  0
POINT
  5
110
330
1F
100
AcDbEntity
  8
0
  6
Continuous
 62
     7
100
AcDbPoint
 10
299.144163118
 20
121.3900247407
 30
0.0
  0
LINE
  5
111
330
1F
100
AcDbEntity
  8
0
  6
Continuous
 62
     7
370
    25
100
AcDbLine
 10
354.9768548081
 20
122.5405482588
 30
0.0
 11
354.6368527749
 21
122.3621577654
 31
0.0
  0
LINE
  5
112
330
1F
100
AcDbEntity
  8
0
  6
Continuous
 62
     7
370
    25
100
AcDbLine
 10
357.5835370627
 20
123.9082087084
 30
0.0
 11
357.2435350295
 21
123.729818215
 31
0.0
  0
LINE
  5
113
330
1F
100
AcDbEntity
  8
0
  6
Continuous
 62
     7
370
    25
100
AcDbLine
 10
351.1216602483
 20
151.1067123559
 30
0.0
 11
349.3927095449
 21
150.2364680986
 31
0.0
  0
LINE
  5
114
330
1F
100
AcDbEntity
  8
0
  6
Continuous
 62
     7
370
    25
100
AcDbLine
 10
349.3927095449
 20
150.2364680986
 30
0.0
 11
345.9348081383
 21
148.495979584
 31
0.0
  0
LINE
  5
115
330
1F
100
AcDbEntity
  8
0
  6
Continuous
 62
     7
370
    25
100
AcDbLine
 10
348.7897448279
 20
142.8239573257
 30
0.0
 11
349.3489265881
 21
143.1054140004
 31
0.0
  0
LINE
  5
116
330
1F
100
AcDbEntity
  8
0
  6
Continuous
 62
     7
370
    25
100
AcDbLine
 10
298.8426807595
 20
117.6837693543
 30
0.0
 11
300.0895571649
 21
118.3113679488
 31
0.0
  0
LINE
  5
117
330
1F
100
AcDbEntity
  8
0
  6
Continuous
 62
     7
370
    25
100
AcDbLine
 10
297.7166947731
 20
124.2260358699
 30
0.0
 11
295.9877440698
 21
123.3557916125
 31
0.0
  0
LINE
  5
118
330
1F
100
AcDbEntity
  8
0
  6
Continuous
 62
     7
370
    25
100
AcDbLine
 10
301.7509130809
 20
126.2566058036
 30
0.0
 11
297.7166947731
 21
124.2260358699
 31
0.0
  0
LINE
  5
119
330
1F
100
AcDbEntity
  8
0
  6
Continuous
 62
     7
370
    25
100
AcDbLine
 10
371.5752382291
 20
107.8817240196
 30
0.0
 11
371.2611580514
 21
107.967084282
 31
0.0
  0
LINE
  5
11A
330
1F
100
AcDbEntity
  8
0
  6
Continuous
 62
     7
370
    25
100
AcDbLine
 10
370.9502422758
 20
101.4712452728
 30
0.0
 11
373.4475267487
 21
100.7925368634
 31
0.0
  0
LINE
  5
11B
330
1F
100
AcDbEntity
  8
0
  6
Continuous
 62
     7
370
    25
100
AcDbLine
 10
375.1129107158
 20
106.9202604408
 30
0.0
 11
371.5752382291
 21
107.8817240196
 31
0.0
  0
LINE
  5
11C
330
1F
100
AcDbEntity
  8
0
  6
Continuous
 62
     7
370
    25
100
AcDbLine
 10
361.1091048333
 20
111.3918111581
 30
0.0
 11
360.869325422
 21
111.373614092
 31
0.0
  0
LINE
  5
11D
330
1F
100
AcDbEntity
  8
0
  6
Continuous
 62
     7
370
    25
100
AcDbLine
 10
353.4441222234
 20
118.9183646155
 30
0.0
 11
354.7802033573
 21
113.3045179283
 31
0.0
  0
LWPOLYLINE
  5
11E
330
1F
100
AcDbEntity
  8
0
  6
Continuous
 62
     7
370
    25
100
AcDbPolyline
 90
       23
 70
   128
 43
0.0
 10
359.2135971085
 20
119.3562150339
 10
359.0666967272
 20
119.8478487853
 10
358.8640618786
 20
120.3250176053
 10
358.6098176238
 20
120.7780077128
 10
358.3091396427
 20
121.1975975356
 10
357.968148872
 20
121.5752454348
 10
357.5937869004
 20
121.9032635883
 10
357.193674658
 20
122.1749744923
 10
356.7759572763
 20
122.3848468965
 10
356.3491382766
 20
122.5286084039
 10
355.9219064629
 20
122.6033324447
 10
355.5029590428
 20
122.6074978531
 10
355.1008245777
 20
122.5410198332
 10
354.7236893656
 20
122.405251686
 10
354.3792307919
 20
122.2029572592
 10
354.0744610399
 20
121.9382546842
 10
353.8155843427
 20
121.6165325419
 10
353.6078706834
 20
121.2443401674
 10
353.4555485131
 20
120.8292543242
 10
353.3617186719
 20
120.379724963
 10
353.3282912649
 20
119.9049032053
 10
353.3559467775
 20
119.4144550528
 10
353.4441222234
 20
118.9183646155
  0
LINE
  5
11F
330
1F
100
AcDbEntity
  8
0
  6
Continuous
 62
     7
370
    25
100
AcDbLine
 10
359.2135971085
 20
119.3562150339
 30
0.0
 11
361.1091048333
 21
111.3918111581
 31
0.0
  0
LWPOLYLINE
  5
120
330
1F
100
AcDbEntity
  8
0
  6
Continuous
 62
     7
370
    25
100
AcDbPolyline
 90
       24
 70
   128
 43
0.0
 10
356.2625950863
 20
118.2241306081
 10
356.4866299345
 20
118.1827673433
 10
356.6989636836
 20
118.2121966442
 10
356.8838485109
 20
118.3102358744
 10
357.0275723544
 20
118.4696139125
 10
357.1194758742
 20
118.6785104186
 10
357.1527430067
 20
118.9214324945
 10
357.1249064808
 20
119.1803637211
 10
357.0380308043
 20
119.4361003538
 10
356.8985591488
 20
119.6696755766
 10
356.7168354888
 20
119.8637661836
 10
356.5063374369
 20
120.0039773626
 10
356.2826766706
 20
120.0799102916
 10
356.0624410858
 20
120.0859333729
 10
355.8619645484
 20
120.0215999019
 10
355.6961154859
 20
119.891681198
 10
355.5771941646
 20
119.705812737
 10
355.5140204349
 20
119.4777795324
 10
355.5112796034
 20
119.2244937638
 10
355.5691749449
 20
118.9647404781
 10
355.6834126268
 20
118.717784388
 10
355.8455201629
 20
118.501941097
 10
356.0434747789
 20
118.3332187146
 10
356.2625950863
 20
118.2241306081
  0
LINE
  5
121
330
1F
100
AcDbEntity
  8
0
  6
Continuous
 62
     7
370
    25
100
AcDbLine
 10
361.4491068665
 20
111.5702016515
 30
0.0
 11
361.1091048333
 21
111.3918111581
 31
0.0
  0
LINE
  5
122
330
1F
100
AcDbEntity
  8
0
  6
Continuous
 62
     7
370
    25
100
AcDbLine
 10
359.5535991417
 20
119.5346055274
 30
0.0
 11
359.2135971085
 21
119.3562150339
 31
0.0
  0
LINE
  5
123
330
1F
100
AcDbEntity
  8
0
  6
Continuous
 62
     7
370
    25
100
AcDbLine
 10
359.5535991417
 20
119.5346055274
 30
0.0
 11
361.4491068665
 21
111.5702016515
 31
0.0
  0
LWPOLYLINE
  5
124
330
1F
100
AcDbEntity
  8
0
  6
Continuous
 62
     7
370
    25
100
AcDbPolyline
 90
       15
 70
   128
 43
0.0
 10
354.9768548081
 20
122.5405482588
 10
355.0636913988
 20
122.5836421794
 10
355.4408266109
 20
122.7194103267
 10
355.842961076
 20
122.7858883465
 10
356.2619084961
 20
122.7817229382
 10
356.6891403098
 20
122.7069988973
 10
357.1159593096
 20
122.5632373899
 10
357.5336766912
 20
122.3533649858
 10
357.9337889336
 20
122.0816540817
 10
358.3081509052
 20
121.7536359282
 10
358.649141676
 20
121.375988029
 10
358.949819657
 20
120.9563982063
 10
359.2040639118
 20
120.5034080987
 10
359.4066987604
 20
120.0262392787
 10
359.5535991417
 20
119.5346055274
  0
LWPOLYLINE
  5
125
330
1F
100
AcDbEntity
  8
0
  6
Continuous
 62
     7
370
    25
100
AcDbPolyline
 90
       12
 70
   128
 43
0.0
 10
356.9487354653
 20
118.3690492891
 10
356.9352802793
 20
118.36703677
 10
356.7150446946
 20
118.3730598512
 10
356.4913839283
 20
118.4489927803
 10
356.2808858764
 20
118.5892039592
 10
356.0991622164
 20
118.7832945663
 10
355.9596905608
 20
119.016869789
 10
355.8728148843
 20
119.2726064218
 10
355.8449783584
 20
119.5315376484
 10
355.8782454909
 20
119.7744597243
 10
355.9701490107
 20
119.9833562304
 10
356.0489856593
 20
120.0839207259
  0
LINE
  5
126
330
1F
100
AcDbEntity
  8
0
  6
Continuous
 62
     7
370
    25
100
AcDbLine
 10
363.715787088
 20
112.7594716077
 30
0.0
 11
363.4760076766
 21
112.7412745416
 31
0.0
  0
LINE
  5
127
330
1F
100
AcDbEntity
  8
0
  6
Continuous
 62
     7
370
    25
100
AcDbLine
 10
356.0975029389
 20
120.0898109332
 30
0.0
 11
356.4875575066
 21
118.4509085591
 31
0.0
  0
LWPOLYLINE
  5
128
330
1F
100
AcDbEntity
  8
0
  6
Continuous
 62
     7
370
    25
100
AcDbPolyline
 90
       18
 70
   128
 43
0.0
 10
361.8202793632
 20
120.7238754836
 10
361.6733789818
 20
121.2155092349
 10
361.4707441332
 20
121.6926780549
 10
361.2164998784
 20
122.1456681625
 10
360.9158218974
 20
122.5652579852
 10
360.5748311267
 20
122.9429058844
 10
360.2004691551
 20
123.2709240379
 10
359.8003569127
 20
123.5426349419
 10
359.382639531
 20
123.7525073461
 10
358.9558205313
 20
123.8962688535
 10
358.5285887175
 20
123.9709928944
 10
358.1096412974
 20
123.9751583027
 10
357.7075068323
 20
123.9086802829
 10
357.3303716203
 20
123.7729121356
 10
356.9859130466
 20
123.5706177088
 10
356.6811432945
 20
123.3059151338
 10
356.4222665973
 20
122.9841929915
 10
356.2975172618
 20
122.7781576115
  0
LINE
  5
129
330
1F
100
AcDbEntity
  8
0
  6
Continuous
 62
     7
370
    25
100
AcDbLine
 10
361.8202793632
 20
120.7238754836
 30
0.0
 11
363.715787088
 21
112.7594716077
 31
0.0
  0
LWPOLYLINE
  5
12A
330
1F
100
AcDbEntity
  8
0
  6
Continuous
 62
     7
370
    25
100
AcDbPolyline
 90
       12
 70
   128
 43
0.0
 10
359.5121066771
 20
119.6956167596
 10
359.6342546091
 20
119.8372743621
 10
359.7261581289
 20
120.0461708682
 10
359.7594252614
 20
120.2890929441
 10
359.7315887355
 20
120.5480241707
 10
359.644713059
 20
120.8037608034
 10
359.5052414034
 20
121.0373360262
 10
359.3235177434
 20
121.2314266333
 10
359.1130196915
 20
121.3716378122
 10
358.8893589252
 20
121.4475707413
 10
358.6691233405
 20
121.4535938225
 10
358.5972423873
 20
121.4392955436
  0
LINE
  5
12B
330
1F
100
AcDbEntity
  8
0
  6
Continuous
 62
     7
370
    25
100
AcDbLine
 10
364.0557891212
 20
112.9378621011
 30
0.0
 11
363.715787088
 21
112.7594716077
 31
0.0
  0
LINE
  5
12C
330
1F
100
AcDbEntity
  8
0
  6
Continuous
 62
     7
370
    25
100
AcDbLine
 10
362.1602813964
 20
120.902265977
 30
0.0
 11
361.8202793632
 21
120.7238754836
 31
0.0
  0
LINE
  5
12D
330
1F
100
AcDbEntity
  8
0
  6
Continuous
 62
     7
370
    25
100
AcDbLine
 10
362.1602813964
 20
120.902265977
 30
0.0
 11
364.0557891212
 21
112.9378621011
 31
0.0
  0
LWPOLYLINE
  5
12E
330
1F
100
AcDbEntity
  8
0
  6
Continuous
 62
     7
370
    25
100
AcDbPolyline
 90
       15
 70
   128
 43
0.0
 10
357.5835370627
 20
123.9082087084
 10
357.6703736535
 20
123.951302629
 10
358.0475088655
 20
124.0870707763
 10
358.4496433306
 20
124.1535487961
 10
358.8685907507
 20
124.1493833878
 10
359.2958225645
 20
124.0746593469
 10
359.7226415642
 20
123.9308978395
 10
360.1403589459
 20
123.7210254354
 10
360.5404711883
 20
123.4493145313
 10
360.9148331599
 20
123.1212963779
 10
361.2558239306
 20
122.7436484787
 10
361.5565019117
 20
122.3240586559
 10
361.8107461664
 20
121.8710685484
 10
362.013381015
 20
121.3938997284
 10
362.1602813964
 20
120.902265977
  0
LWPOLYLINE
  5
12F
330
1F
100
AcDbEntity
  8
0
  6
Continuous
 62
     7
370
    25
100
AcDbPolyline
 90
        3
 70
   128
 43
0.0
 10
359.5554175678
 20
119.7367097143
 10
359.541962534
 20
119.7346972196
 10
359.5022901963
 20
119.7304535759
  0
LINE
  5
130
330
1F
100
AcDbEntity
  8
0
  6
Continuous
 62
     7
370
    25
100
AcDbLine
 10
358.6203288859
 20
121.4114211711
 30
0.0
 11
358.6556678041
 21
121.4515810608
 31
0.0
  0
LWPOLYLINE
  5
131
330
1F
100
AcDbEntity
  8
0
  6
Continuous
 62
     7
370
    25
100
AcDbPolyline
 90
       18
 70
   128
 43
0.0
 10
355.0452822515
 20
146.8356191945
 10
355.1113506525
 20
147.1612008593
 10
355.1437222815
 20
147.5951845357
 10
355.118134975
 20
148.0442581386
 10
355.0351603111
 20
148.498390106
 10
354.8966518066
 20
148.9474358801
 10
354.7057035127
 20
149.3813645203
 10
354.4665808988
 20
149.7904827778
 10
354.1846255688
 20
150.1656516268
 10
353.866135939
 20
150.4984904153
 10
353.5182265413
 20
150.7815640745
 10
353.1486690969
 20
151.0085492068
 10
352.7657189083
 20
151.1743753394
 10
352.37793045
 20
151.2753381905
 10
351.9939662753
 20
151.3091824168
 10
351.6224035094
 20
151.2751519943
 10
351.2715422506
 20
151.1740071064
 10
351.1216602483
 20
151.1067123559
  0
LWPOLYLINE
  5
132
330
1F
100
AcDbEntity
  8
0
  6
Continuous
 62
     7
370
    25
100
AcDbPolyline
 90
       13
 70
   128
 43
0.0
 10
353.1288409102
 20
148.1773267297
 10
352.9767528094
 20
148.511120263
 10
352.7376301954
 20
148.9202385205
 10
352.4556748655
 20
149.2954073695
 10
352.1371852356
 20
149.6282461579
 10
351.789275838
 20
149.9113198172
 10
351.4197183935
 20
150.1383049495
 10
351.036768205
 20
150.3041310821
 10
350.6489797467
 20
150.4050939332
 10
350.265015572
 20
150.4389381595
 10
349.8934528061
 20
150.404907737
 10
349.5425915472
 20
150.3037628491
 10
349.3927095449
 20
150.2364680986
  0
LWPOLYLINE
  5
133
330
1F
100
AcDbEntity
  8
0
  6
Continuous
 62
     7
370
    25
100
AcDbPolyline
 90
       13
 70
   128
 43
0.0
 10
353.1288409102
 20
148.1773267297
 10
352.9767528094
 20
148.511120263
 10
352.7376301954
 20
148.9202385205
 10
352.4556748655
 20
149.2954073695
 10
352.1371852356
 20
149.6282461579
 10
351.789275838
 20
149.9113198172
 10
351.4197183935
 20
150.1383049495
 10
351.036768205
 20
150.3041310821
 10
350.6489797467
 20
150.4050939332
 10
350.265015572
 20
150.4389381595
 10
349.8934528061
 20
150.404907737
 10
349.5425915472
 20
150.3037628491
 10
349.3927095449
 20
150.2364680986
  0
LWPOLYLINE
  5
134
330
1F
100
AcDbEntity
  8
0
  6
Continuous
 62
     7
370
    25
100
AcDbPolyline
 90
       43
 70
   128
 43
0.0
 10
347.1456861679
 20
142.7562943422
 10
347.5334746262
 20
142.6553314911
 10
347.9174388009
 20
142.6214872648
 10
348.2890015668
 20
142.6555176873
 10
348.6398628257
 20
142.7566625752
 10
348.9621849168
 20
142.922662519
 10
349.2487676973
 20
143.1498093541
 10
349.4932093814
 20
143.4330289955
 10
349.6900495458
 20
143.7659947846
 10
349.8348911065
 20
144.1412688158
 10
349.9244985425
 20
144.5504680874
 10
349.9568701715
 20
144.9844517637
 10
349.931282865
 20
145.4335253667
 10
349.8483082011
 20
145.8876573341
 10
349.7097996966
 20
146.3367031082
 10
349.5188514027
 20
146.7706317483
 10
349.2797287888
 20
147.1797500059
 10
348.9977734588
 20
147.5549188549
 10
348.6792838289
 20
147.8877576433
 10
348.3313744313
 20
148.1708313026
 10
347.9618169869
 20
148.3978164349
 10
347.5788667983
 20
148.5636425675
 10
347.19107834
 20
148.6646054186
 10
346.8071141653
 20
148.6984496449
 10
346.4355513994
 20
148.6644192224
 10
346.0846901405
 20
148.5632743344
 10
345.7623680494
 20
148.3972743907
 10
345.4757852689
 20
148.1701275556
 10
345.2313435848
 20
147.8869079142
 10
345.0345034204
 20
147.5539421251
 10
344.8896618597
 20
147.1786680939
 10
344.8000544238
 20
146.7694688223
 10
344.7676827947
 20
146.335485146
 10
344.7932701012
 20
145.886411543
 10
344.8762447651
 20
145.4322795756
 10
345.0147532696
 20
144.9832338015
 10
345.2057015635
 20
144.5493051613
 10
345.4448241775
 20
144.1401869038
 10
345.7267795074
 20
143.7650180548
 10
346.0452691373
 20
143.4321792664
 10
346.3931785349
 20
143.1491056071
 10
346.7627359793
 20
142.9221204748
 10
347.1456861679
 20
142.7562943422
  0
LWPOLYLINE
  5
135
330
1F
100
AcDbEntity
  8
0
  6
Continuous
 62
     7
370
    25
100
AcDbPolyline
 90
       22
 70
   128
 43
0.0
 10
347.3077025454
 20
144.9283340328
 10
347.5021599018
 20
144.8943668951
 10
347.6841880025
 20
144.9284268159
 10
347.837612852
 20
145.0274874216
 10
347.9488019792
 20
145.1827467427
 10
348.0078757422
 20
145.3804093071
 10
348.0095851778
 20
145.6029119287
 10
347.9537783952
 20
145.830484273
 10
347.8454140719
 20
146.0429055386
 10
347.6941208537
 20
146.2213011638
 10
347.5133418069
 20
146.3498199144
 10
347.3191399431
 20
146.4170423355
 10
347.1287709502
 20
146.4169954199
 10
346.9591499486
 20
146.3496833363
 10
346.8253485087
 20
146.2210870588
 10
346.7392554756
 20
146.0426329308
 10
346.7085205931
 20
145.8301773849
 10
346.7358747904
 20
145.6025980286
 10
346.818887527
 20
145.3801162864
 10
346.9501827569
 20
145.1825006375
 10
347.1180943229
 20
145.0273100995
 10
347.3077025454
 20
144.9283340328
  0
LWPOLYLINE
  5
136
330
1F
100
AcDbEntity
  8
0
  6
Continuous
 62
     7
370
    25
100
AcDbPolyline
 90
       43
 70
   128
 43
0.0
 10
297.6318027298
 20
123.423454596
 10
298.0147529184
 20
123.2576284635
 10
298.3843103628
 20
123.0306433311
 10
298.7322197605
 20
122.7475696719
 10
299.0507093903
 20
122.4147308835
 10
299.3326647203
 20
122.0395620344
 10
299.5717873342
 20
121.6304437769
 10
299.7627356281
 20
121.1965151367
 10
299.9012441326
 20
120.7474693627
 10
299.9842187965
 20
120.2933373953
 10
300.009806103
 20
119.8442637923
 10
299.977434474
 20
119.4102801159
 10
299.8878270381
 20
119.0010808444
 10
299.7429854773
 20
118.6258068132
 10
299.5461453129
 20
118.2928410241
 10
299.3017036288
 20
118.0096213826
 10
299.0151208483
 20
117.7824745476
 10
298.6927987572
 20
117.6164746038
 10
298.3419374983
 20
117.5153297159
 10
297.9703747324
 20
117.4812992934
 10
297.5864105577
 20
117.5151435197
 10
297.1986220994
 20
117.6161063708
 10
296.8156719109
 20
117.7819325034
 10
296.4461144664
 20
118.0089176357
 10
296.0982050688
 20
118.2919912949
 10
295.7797154389
 20
118.6248300834
 10
295.497760109
 20
118.9999989324
 10
295.258637495
 20
119.4091171899
 10
295.0676892011
 20
119.8430458301
 10
294.9291806967
 20
120.2920916042
 10
294.8462060327
 20
120.7462235716
 10
294.8206187262
 20
121.1952971745
 10
294.8529903553
 20
121.6292808509
 10
294.9425977912
 20
122.0384801225
 10
295.0874393519
 20
122.4137541536
 10
295.2842795163
 20
122.7467199427
 10
295.5287212004
 20
123.0299395842
 10
295.8153039809
 20
123.2570864193
 10
296.1376260721
 20
123.423086363
 10
296.488487331
 20
123.524231251
 10
296.8600500968
 20
123.5582616735
 10
297.2440142715
 20
123.5244174471
 10
297.6318027298
 20
123.423454596
  0
ARC
  5
137
330
1F
100
AcDbEntity
  8
0
  6
Continuous
 62
     7
370
    25
100
AcDbCircle
 10
297.9773852149
 20
120.8396609878
 30
0.0
 40
3.72076406183534
100
AcDbArc
 50
20.4776887455
 51
68.1735258843
  0
ARC
  5
138
330
1F
100
AcDbEntity
  8
0
  6
Continuous
 62
     7
370
    25
100
AcDbCircle
 10
298.6180375316
 20
122.332729034
 30
0.0
 40
2.096909521913548
100
AcDbArc
 50
69.2558539424
 51
115.4576235376
  0
LWPOLYLINE
  5
139
330
1F
100
AcDbEntity
  8
0
  6
Continuous
 62
     7
370
    25
100
AcDbPolyline
 90
       22
 70
   128
 43
0.0
 10
297.4697863523
 20
121.2514149055
 10
297.6593945748
 20
121.1524388388
 10
297.8273061408
 20
120.9972483008
 10
297.9586013707
 20
120.7996326519
 10
298.0416141073
 20
120.5771509097
 10
298.0689683046
 20
120.3495715534
 10
298.0382334221
 20
120.1371160074
 10
297.952140389
 20
119.9586618795
 10
297.8183389491
 20
119.8300656019
 10
297.6487179475
 20
119.7627535184
 10
297.4583489546
 20
119.7627066028
 10
297.2641470908
 20
119.8299290239
 10
297.083368044
 20
119.9584477745
 10
296.9320748258
 20
120.1368433997
 10
296.8237105026
 20
120.3492646653
 10
296.76790372
 20
120.5768370096
 10
296.7696131556
 20
120.7993396311
 10
296.8286869185
 20
120.9970021956
 10
296.9398760457
 20
121.1522615167
 10
297.0933008952
 20
121.2513221224
 10
297.275328996
 20
121.2853820431
 10
297.4697863523
 20
121.2514149055
  0
ARC
  5
13A
330
1F
100
AcDbEntity
  8
0
  6
Continuous
 62
     7
370
    25
100
AcDbCircle
 10
301.9540363246
 20
122.7993350685
 30
0.0
 40
3.808077283136453
100
AcDbArc
 50
11.1773296733
 51
67.7660567451
  0
ARC
  5
13B
330
1F
100
AcDbEntity
  8
0
  6
Continuous
 62
     7
370
    25
100
AcDbCircle
 10
302.6522558394
 20
124.3632989677
 30
0.0
 40
2.096909521913344
100
AcDbArc
 50
69.2558539424
 51
115.4576235376
  0
LWPOLYLINE
  5
13C
330
1F
100
AcDbEntity
  8
0
  6
Continuous
 62
     7
370
    25
100
AcDbPolyline
 90
        9
 70
   128
 43
0.0
 10
371.5752382291
 20
107.8817240196
 10
371.4834251755
 20
107.8978762673
 10
371.2838931799
 20
107.879612094
 10
371.0722683884
 20
107.7929534882
 10
370.8532781491
 20
107.6398362598
 10
370.631814342
 20
107.4236807948
 10
370.4128241027
 20
107.1493156491
 10
370.2011993112
 20
106.8228696866
 10
370.0305544335
 20
106.5096757568
  0
ARC
  5
13D
330
1F
100
AcDbEntity
  8
0
  6
Continuous
 62
     7
370
    25
100
AcDbCircle
 10
372.7048483461
 20
103.4008694647
 30
0.0
 40
3.453072606045763
100
AcDbArc
 50
172.2454217112
 51
201.3497947245
  0
LWPOLYLINE
  5
13E
330
1F
100
AcDbEntity
  8
0
  6
Continuous
 62
     7
370
    25
100
AcDbPolyline
 90
       43
 70
   128
 43
0.0
 10
375.7619765921
 20
105.3026397487
 10
375.7454265811
 20
105.692105879
 10
375.6961462479
 20
106.0405653433
 10
375.6152364338
 20
106.3402341329
 10
375.5045045302
 20
106.5844181423
 10
375.366424105
 20
106.7676627042
 10
375.2040796467
 20
106.8858744379
 10
375.0210976622
 20
106.9364126886
 10
374.8215656666
 20
106.9181485153
 10
374.6099408751
 20
106.8314899094
 10
374.3909506358
 20
106.6783726811
 10
374.1694868287
 20
106.4622172161
 10
373.9504965894
 20
106.1878520704
 10
373.7388717979
 20
105.8614061079
 10
373.5393398023
 20
105.490171592
 10
373.3563578178
 20
105.0824412884
 10
373.1940133595
 20
104.6473232182
 10
373.0559329343
 20
104.1945372003
 10
372.9452010308
 20
103.7341977259
 10
372.8642912166
 20
103.2765880182
 10
372.8150108834
 20
102.8319303221
 10
372.7984608724
 20
102.4101575555
 10
372.8150108834
 20
102.0206914252
 10
372.8642912166
 20
101.6722319609
 10
372.9452010308
 20
101.3725631713
 10
373.0559329343
 20
101.1283791619
 10
373.1940133595
 20
100.9451346
 10
373.3563578178
 20
100.8269228663
 10
373.5393398023
 20
100.7763846156
 10
373.7388717979
 20
100.7946487889
 10
373.9504965894
 20
100.8813073948
 10
374.1694868287
 20
101.0344246231
 10
374.3909506358
 20
101.2505800881
 10
374.6099408751
 20
101.5249452339
 10
374.8215656666
 20
101.8513911963
 10
375.0210976622
 20
102.2226257122
 10
375.2040796467
 20
102.6303560158
 10
375.366424105
 20
103.065474086
 10
375.5045045302
 20
103.5182601039
 10
375.6152364338
 20
103.9785995783
 10
375.6961462479
 20
104.436209286
 10
375.7454265811
 20
104.8808669821
 10
375.7619765921
 20
105.3026397487
  0
LWPOLYLINE
  5
13F
330
1F
100
AcDbEntity
  8
0
  6
Continuous
 62
     7
370
    25
100
AcDbPolyline
 90
       24
 70
   128
 43
0.0
 10
374.7469141212
 20
104.3119076589
 10
374.7296077902
 20
104.5262771194
 10
374.6789723286
 20
104.6909647584
 10
374.5987631369
 20
104.7937564472
 10
374.494928964
 20
104.8270285965
 10
374.3751707154
 20
104.7883135631
 10
374.2483703126
 20
104.6804826641
 10
374.1239319614
 20
104.5115332237
 10
374.011084685
 20
104.2939954493
 10
373.9181978498
 20
104.0440031223
 10
373.8521604472
 20
103.7800970299
 10
373.8178701694
 20
103.5218498798
 10
373.8178701694
 20
103.2884146817
 10
373.8521604472
 20
103.0971042563
 10
373.9181978498
 20
102.9621072228
 10
374.011084685
 20
102.8934356934
 10
374.1239319614
 20
102.8961827214
 10
374.2483703126
 20
102.9701445723
 10
374.3751707154
 20
103.1098358339
 10
374.494928964
 20
103.3048962445
 10
374.5987631369
 20
103.5408590657
 10
374.6789723286
 20
103.8002240145
 10
374.7296077902
 20
104.0637551792
 10
374.7469141212
 20
104.3119076589
  0
LWPOLYLINE
  5
140
330
1F
100
AcDbEntity
  8
0
  6
Continuous
 62
     7
370
    25
100
AcDbPolyline
 90
        9
 70
   128
 43
0.0
 10
371.5752382291
 20
107.8817240196
 10
371.4834251755
 20
107.8978762673
 10
371.2838931799
 20
107.879612094
 10
371.0722683884
 20
107.7929534882
 10
370.8532781491
 20
107.6398362598
 10
370.631814342
 20
107.4236807948
 10
370.4128241027
 20
107.1493156491
 10
370.2011993112
 20
106.8228696866
 10
370.0305544335
 20
106.5096757568
  0
LINE
  5
141
330
1F
100
AcDbEntity
  8
0
  6
Continuous
 62
     7
370
    25
100
AcDbLine
 10
372.8381298691
 20
100.6700984062
 30
0.0
 11
298.9968955035
 21
117.7613912871
 31
0.0
  0
ELLIPSE
  5
142
330
1F
100
AcDbEntity
  8
0
  6
Continuous
 62
     7
370
    25
100
AcDbEllipse
 10
297.1441171293
 20
120.3833282903
 30
0.0
 11
4.143472527190283
 21
-0.6533842620728478
 31
0.0
210
0.0
220
0.0
230
1.0
 40
0.5939147357
 41
5.592101199854705
 42
7.000780741239968
  0
LINE
  5
143
330
1F
100
AcDbEntity
  8
0
  6
Continuous
 62
     7
370
    25
100
AcDbLine
 10
371.2117646719
 20
105.1471826769
 30
0.0
 11
300.5209390835
 21
121.5092819092
 31
0.0
  0
ELLIPSE
  5
144
330
1F
100
AcDbEntity
  8
0
  6
Continuous
 62
     7
370
    25
100
AcDbEllipse
 10
375.1094277361
 20
103.6310374127
 30
0.0
 11
6.136228705519443
 21
0.6600415039499836
 31
0.0
210
0.0
220
0.0
230
1.0
 40
0.3903518439
 41
2.216361925570048
 42
3.926459522957227
  0
LINE
  5
145
330
1F
100
AcDbEntity
  8
0
  6
Continuous
 62
     7
370
    25
100
AcDbLine
 10
372.9837773203
 20
100.918574021
 30
0.0
 11
372.8381298691
 21
100.6700984062
 31
0.0
  0
ELLIPSE
  5
146
330
1F
100
AcDbEntity
  8
0
  6
Continuous
 62
     7
370
    25
100
AcDbEllipse
 10
376.9762508409
 20
103.123674894
 30
0.0
 11
7.287780957120731
 21
-4.661190189814519
 31
0.0
210
0.0
220
0.0
230
1.0
 40
0.2230235274
 41
2.975356182653797
 42
3.954516822506775
  0
ELLIPSE
  5
147
330
1F
100
AcDbEntity
  8
0
  6
Continuous
 62
     7
370
    25
100
AcDbEllipse
 10
270.4069633799
 20
106.9255388563
 30
0.0
 11
37.08505140168069
 21
20.36472541847752
 31
0.0
210
0.0
220
0.0
230
1.0
 40
0.0659646575
 41
5.622882797768185
 42
5.808946734488094
  0
LINE
  5
148
330
1F
100
AcDbEntity
  8
0
  6
Continuous
 62
     7
370
    25
100
AcDbLine
 10
368.6468854272
 20
108.9654876435
 30
0.0
 11
304.0127910141
 21
123.9256958144
 31
0.0
  0
LINE
  5
149
330
1F
100
AcDbEntity
  8
0
  6
Continuous
 62
     7
370
    25
100
AcDbLine
 10
368.6468854272
 20
108.9654876435
 30
0.0
 11
369.960952665
 21
107.9895574489
 31
0.0
  0
LINE
  5
14A
330
1F
100
AcDbEntity
  8
0
  6
Continuous
 62
     7
370
    25
100
AcDbLine
 10
350.6623419083
 20
147.406124547
 30
0.0
 11
368.6468854272
 21
108.9654876435
 31
0.0
  0
ELLIPSE
  5
14B
330
1F
100
AcDbEntity
  8
0
  6
Continuous
 62
     7
370
    25
100
AcDbEllipse
 10
376.2942908123
 20
160.2225116632
 30
0.0
 11
30.71943388998375
 21
13.53327565253946
 31
0.0
210
0.0
220
0.0
230
1.0
 40
0.0795493412
 41
3.691263605432768
 42
3.877327542152613
  0
ELLIPSE
  5
14C
330
1F
100
AcDbEntity
  8
0
  6
Continuous
 62
     7
370
    25
100
AcDbEllipse
 10
376.8595510093
 20
103.1553914076
 30
0.0
 11
6.9741992822822
 21
-4.754973949888154
 31
0.0
210
0.0
220
0.0
230
1.0
 40
0.1968609101
 41
2.624206688901996
 42
3.07654110525168
  0
LINE
  5
14D
330
1F
100
AcDbEntity
  8
0
  6
Continuous
 62
     7
370
    25
100
AcDbLine
 10
354.2433310606
 20
148.5497307878
 30
0.0
 11
373.5168330268
 21
107.3540401569
 31
0.0
  0
ELLIPSE
  5
14E
330
1F
100
AcDbEntity
  8
0
  6
Continuous
 62
     7
370
    25
100
AcDbEllipse
 10
349.0472362948
 20
146.5080704841
 30
0.0
 11
0.109765130050846
 21
3.498940378889415
 31
0.0
210
0.0
220
0.0
230
1.0
 40
0.4706985548
 41
3.39195133503304
 42
4.986694813138179
  0
LINE
  5
14F
330
1F
100
AcDbEntity
  8
0
  6
Continuous
 62
     7
370
    25
100
AcDbLine
 10
348.9588029075
 20
142.9090504534
 30
0.0
 11
357.8018613944
 21
124.0076643796
 31
0.0
  0
LINE
  5
150
330
1F
100
AcDbEntity
  8
0
  6
Continuous
 62
     7
370
    25
100
AcDbLine
 10
359.0156523322
 20
121.4132756665
 30
0.0
 11
359.6964011058
 21
119.9582253116
 31
0.0
  0
LINE
  5
151
330
1F
100
AcDbEntity
  8
0
  6
Continuous
 62
     7
370
    25
100
AcDbLine
 10
364.1465459211
 20
110.4463685979
 30
0.0
 11
364.3769971731
 21
109.9537960235
 31
0.0
  0
LINE
  5
152
330
1F
100
AcDbEntity
  8
0
  6
Continuous
 62
     7
370
    25
100
AcDbLine
 10
364.1935701111
 20
118.2434740991
 30
0.0
 11
366.0051436687
 21
114.3057289405
 31
0.0
  0
LINE
  5
153
330
1F
100
AcDbEntity
  8
0
  6
Continuous
 62
     7
370
    25
100
AcDbLine
 10
359.7512538138
 20
111.02447063
 30
0.0
 11
361.0045805934
 21
111.6820595878
 31
0.0
  0
LINE
  5
154
330
1F
100
AcDbEntity
  8
0
  6
Continuous
 62
     7
370
    25
100
AcDbLine
 10
361.3760936612
 20
111.8769831264
 30
0.0
 11
363.611262848
 21
113.0497200374
 31
0.0
  0
LINE
  5
155
330
1F
100
AcDbEntity
  8
0
  6
Continuous
 62
     7
370
    25
100
AcDbLine
 10
363.9827759158
 20
113.2446435761
 30
0.0
 11
366.0051436687
 21
114.3057289405
 31
0.0
  0
LINE
  5
156
330
1F
100
AcDbEntity
  8
0
  6
Continuous
 62
     7
370
    25
100
AcDbLine
 10
353.2864909726
 20
112.5208047051
 30
0.0
 11
357.1842281598
 21
114.5658491229
 31
0.0
  0
LINE
  5
157
330
1F
100
AcDbEntity
  8
0
  6
Continuous
 62
     7
370
    25
100
AcDbLine
 10
362.9485360229
 20
117.5902361074
 30
0.0
 11
364.1935701111
 21
118.2434740991
 31
0.0
  0
LINE
  5
158
330
1F
100
AcDbEntity
  8
0
  6
Continuous
 62
     7
370
    25
100
AcDbLine
 10
366.0051436687
 20
114.3057289405
 30
0.0
 11
364.1465459211
 21
110.4463685979
 31
0.0
  0
LINE
  5
159
330
1F
100
AcDbEntity
  8
0
  6
Continuous
 62
     7
370
    25
100
AcDbLine
 10
363.7222519886
 20
110.1053433508
 30
0.0
 11
364.1910254185
 21
110.351296949
 31
0.0
  0
LINE
  5
15A
330
1F
100
AcDbEntity
  8
0
  6
Continuous
 62
     7
100
AcDbLine
 10
195.2428298643
 20
175.7631865177
 30
0.0
 11
194.8397863959
 21
172.8223137589
 31
0.0
  0
LINE
  5
15B
330
1F
100
AcDbEntity
  8
0
  6
CENTERX2
 62
     7
100
AcDbLine
 10
176.5663955242
 20
87.6118425942
 30
0.0
 11
248.0845580833
 21
125.9785600006
 31
0.0
  0
LINE
  5
15C
330
1F
100
AcDbEntity
  8
0
  6
CENTERX2
 62
     7
100
AcDbLine
 10
248.0845580833
 20
125.9785600006
 30
0.0
 11
188.5427284558
 21
172.065921697
 31
0.0
  0
LINE
  5
15D
330
1F
100
AcDbEntity
  8
0
  6
CENTERX2
 62
     7
100
AcDbLine
 10
242.0845580833
 20
125.9785600006
 30
0.0
 11
176.5663955242
 21
87.6118425942
 31
0.0
  0
LINE
  5
15E
330
1F
100
AcDbEntity
  8
0
  6
CENTERX2
 62
     7
100
AcDbLine
 10
242.0845580833
 20
125.9785600006
 30
0.0
 11
188.5427284558
 21
172.065921697
 31
0.0
  0
LINE
  5
15F
330
1F
100
AcDbEntity
  8
0
  6
Continuous
 62
     7
100
AcDbLine
 10
176.5663955242
 20
87.6118425942
 30
0.0
 11
176.5663955242
 21
80.6118425942
 31
0.0
  0
LINE
  5
160
330
1F
100
AcDbEntity
  8
0
  6
Continuous
 62
     7
100
AcDbLine
 10
188.5427284558
 20
172.065921697
 30
0.0
 11
188.5427284558
 21
179.065921697
 31
0.0
  0
LINE
  5
161
330
1F
100
AcDbEntity
  8
0
  6
CENTERX2
 62
     7
100
AcDbLine
 10
176.5663955242
 20
80.6118425942
 30
0.0
 11
242.0845580833
 21
125.9785600006
 31
0.0
  0
LINE
  5
162
330
1F
100
AcDbEntity
  8
0
  6
CENTERX2
 62
     7
100
AcDbLine
 10
242.0845580833
 20
125.9785600006
 30
0.0
 11
188.5427284558
 21
179.065921697
 31
0.0
  0
LINE
  5
163
330
1F
100
AcDbEntity
  8
0
  6
CENTERX2
 62
     7
100
AcDbLine
 10
194.8397863959
 20
172.8223137589
 30
0.0
 11
182.7933583569
 21
84.9235761975
 31
0.0
  0
LINE
  5
164
330
1F
100
AcDbEntity
  8
0
  6
Continuous
 62
     7
100
AcDbLine
 10
242.0845580833
 20
125.9785600006
 30
0.0
 11
188.8165723764
 21
128.8729449782
 31
0.0
  0
LINE
  5
165
330
1F
100
AcDbEntity
  8
0
  6
Continuous
 62
     7
100
AcDbLine
 10
182.3903148884
 20
81.9827034386
 30
0.0
 11
182.7933583569
 21
84.9235761975
 31
0.0
  0
LINE
  5
166
330
1F
100
AcDbEntity
  8
0
  6
Continuous
 62
     7
100
AcDbLine
 10
194.8397863959
 20
172.8223137589
 30
0.0
 11
194.0336994589
 21
166.9405682411
 31
0.0
  0
LINE
  5
167
330
1F
100
AcDbEntity
  8
0
  6
Continuous
 62
     7
100
AcDbLine
 10
182.7933583569
 20
84.9235761975
 30
0.0
 11
183.7337931167
 21
91.7856126348
 31
0.0
  0
LINE
  5
168
330
1F
100
AcDbEntity
  8
0
  6
Continuous
 62
     7
100
AcDbLine
 10
182.7933583569
 20
84.9235761975
 30
0.0
 11
242.0845580833
 21
125.9785600006
 31
0.0
  0
LINE
  5
169
330
1F
100
AcDbEntity
  8
0
  6
Continuous
 62
     7
100
AcDbLine
 10
242.0845580833
 20
125.9785600006
 30
0.0
 11
194.8397863959
 21
172.8223137589
 31
0.0
  0
LINE
  5
16A
330
1F
100
AcDbEntity
  8
0
  6
Continuous
 62
     7
100
AcDbLine
 10
230.5785288326
 20
137.3869250262
 30
0.0
 11
227.9388388937
 21
116.1836448211
 31
0.0
  0
LINE
  5
16B
330
1F
100
AcDbEntity
  8
0
  6
Continuous
 62
     7
100
AcDbLine
 10
229.2451044378
 20
126.6762083397
 30
0.0
 11
189.2510248578
 21
147.4644213325
 31
0.0
  0
LINE
  5
16C
330
1F
100
AcDbEntity
  8
0
  6
Continuous
 62
     7
100
AcDbLine
 10
242.0845580833
 20
125.9785600006
 30
0.0
 11
246.0845580833
 21
125.9785600006
 31
0.0
  0
LINE
  5
16D
330
1F
100
AcDbEntity
  8
0
  6
Continuous
 62
     7
100
AcDbLine
 10
242.0845580833
 20
125.9785600006
 30
0.0
 11
232.0845580833
 21
125.9785600006
 31
0.0
  0
POINT
  5
16E
330
1F
100
AcDbEntity
  8
0
  6
Continuous
 62
     7
100
AcDbPoint
 10
188.5427284558
 20
172.065921697
 30
0.0
  0
POINT
  5
16F
330
1F
100
AcDbEntity
  8
0
  6
Continuous
 62
     7
100
AcDbPoint
 10
230.5785288326
 20
137.3869250262
 30
0.0
  0
POINT
  5
170
330
1F
100
AcDbEntity
  8
0
  6
Continuous
 62
     7
100
AcDbPoint
 10
227.9388388937
 20
116.1836448211
 30
0.0
  0
POINT
  5
171
330
1F
100
AcDbEntity
  8
0
  6
Continuous
 62
     7
100
AcDbPoint
 10
229.4897202305
 20
128.6410819864
 30
0.0
  0
POINT
  5
172
330
1F
100
AcDbEntity
  8
0
  6
Continuous
 62
     7
100
AcDbPoint
 10
229.000488645
 20
124.7113346929
 30
0.0
  0
POINT
  5
173
330
1F
100
AcDbEntity
  8
0
  6
Continuous
 62
     7
100
AcDbPoint
 10
182.7933583569
 20
84.9235761975
 30
0.0
  0
POINT
  5
174
330
1F
100
AcDbEntity
  8
0
  6
Continuous
 62
     7
100
AcDbPoint
 10
194.8397863959
 20
172.8223137589
 30
0.0
  0
POINT
  5
175
330
1F
100
AcDbEntity
  8
0
  6
Continuous
 62
     7
100
AcDbPoint
 10
231.4319220772
 20
126.5573847716
 30
0.0
  0
POINT
  5
176
330
1F
100
AcDbEntity
  8
0
  6
Continuous
 62
     7
100
AcDbPoint
 10
230.2272477347
 20
117.7682069203
 30
0.0
  0
POINT
  5
177
330
1F
100
AcDbEntity
  8
0
  6
Continuous
 62
     7
100
AcDbPoint
 10
232.6355677596
 20
135.347346433
 30
0.0
  0
POINT
  5
178
330
1F
100
AcDbEntity
  8
0
  6
Continuous
 62
     7
100
AcDbPoint
 10
194.8397863959
 20
172.8223137589
 30
0.0
  0
POINT
  5
179
330
1F
100
AcDbEntity
  8
0
  6
Continuous
 62
     7
100
AcDbPoint
 10
229.2451044378
 20
126.6762083397
 30
0.0
  0
POINT
  5
17A
330
1F
100
AcDbEntity
  8
0
  6
Continuous
 62
     7
100
AcDbPoint
 10
182.7933583569
 20
84.9235761975
 30
0.0
  0
LINE
  5
17B
330
1F
100
AcDbEntity
  8
0
  6
Continuous
 62
     7
370
    25
100
AcDbLine
 10
222.4517809267
 20
126.6292529361
 30
0.0
 11
222.3783961888
 21
126.0397908421
 31
0.0
  0
LINE
  5
17C
330
1F
100
AcDbEntity
  8
0
  6
Continuous
 62
     7
370
    25
100
AcDbLine
 10
223.01439725
 20
131.1484623236
 30
0.0
 11
222.9410125122
 21
130.5590002295
 31
0.0
  0
LINE
  5
17D
330
1F
100
AcDbEntity
  8
0
  6
Continuous
 62
     7
370
    25
100
AcDbLine
 10
192.0972333801
 20
176.1942871539
 30
0.0
 11
191.6941899117
 21
173.2534143951
 31
0.0
  0
LINE
  5
17E
330
1F
100
AcDbEntity
  8
0
  6
Continuous
 62
     7
370
    25
100
AcDbLine
 10
198.2189309257
 20
174.0953347348
 30
0.0
 11
198.3884263485
 21
175.3320858815
 31
0.0
  0
LINE
  5
17F
330
1F
100
AcDbEntity
  8
0
  6
Continuous
 62
     7
370
    25
100
AcDbLine
 10
191.6941899117
 20
173.2534143951
 30
0.0
 11
190.8881029747
 21
167.3716688774
 31
0.0
  0
LINE
  5
180
330
1F
100
AcDbEntity
  8
0
  6
Continuous
 62
     7
370
    25
100
AcDbLine
 10
197.1792959431
 20
166.5094676049
 30
0.0
 11
197.3077327713
 21
167.4466279825
 31
0.0
  0
LINE
  5
181
330
1F
100
AcDbEntity
  8
0
  6
Continuous
 62
     7
370
    25
100
AcDbLine
 10
185.5359113726
 20
81.5516028024
 30
0.0
 11
185.7919293956
 21
83.4196802888
 31
0.0
  0
LINE
  5
182
330
1F
100
AcDbEntity
  8
0
  6
Continuous
 62
     7
370
    25
100
AcDbLine
 10
179.6477618727
 20
85.3546768337
 30
0.0
 11
179.2447184042
 21
82.4138040748
 31
0.0
  0
LINE
  5
183
330
1F
100
AcDbEntity
  8
0
  6
Continuous
 62
     7
370
    25
100
AcDbLine
 10
186.7688134732
 20
90.5476751509
 30
0.0
 11
186.8793896009
 21
91.3545119986
 31
0.0
  0
LINE
  5
184
330
1F
100
AcDbEntity
  8
0
  6
Continuous
 62
     7
370
    25
100
AcDbLine
 10
180.5881966325
 20
92.2167132711
 30
0.0
 11
179.6477618727
 21
85.3546768337
 31
0.0
  0
LINE
  5
185
330
1F
100
AcDbEntity
  8
0
  6
Continuous
 62
     7
370
    25
100
AcDbLine
 10
232.0845580833
 20
122.8035600006
 30
0.0
 11
232.3280173358
 21
122.8035600006
 31
0.0
  0
LINE
  5
186
330
1F
100
AcDbEntity
  8
0
  6
Continuous
 62
     7
370
    25
100
AcDbLine
 10
234.2879090511
 20
129.1535600006
 30
0.0
 11
232.7929437209
 21
129.1535600006
 31
0.0
  0
LINE
  5
187
330
1F
100
AcDbEntity
  8
0
  6
Continuous
 62
     7
370
    25
100
AcDbLine
 10
242.6697371957
 20
122.8035600006
 30
0.0
 11
246.0845580833
 21
122.8035600006
 31
0.0
  0
LINE
  5
188
330
1F
100
AcDbEntity
  8
0
  6
Continuous
 62
     7
370
    25
100
AcDbLine
 10
246.0845580833
 20
129.1535600006
 30
0.0
 11
243.5454412115
 21
129.1535600006
 31
0.0
  0
LINE
  5
189
330
1F
100
AcDbEntity
  8
0
  6
Continuous
 62
     7
370
    25
100
AcDbLine
 10
232.2931115964
 20
123.8921697665
 30
0.0
 11
232.1392373039
 21
123.9026704439
 31
0.0
  0
LINE
  5
18A
330
1F
100
AcDbEntity
  8
0
  6
Continuous
 62
     7
370
    25
100
AcDbLine
 10
225.8423393189
 20
124.3323828617
 30
0.0
 11
225.5259542392
 21
124.3539735874
 31
0.0
  0
LINE
  5
18B
330
1F
100
AcDbEntity
  8
0
  6
Continuous
 62
     7
370
    25
100
AcDbLine
 10
222.6087131519
 20
125.8207829332
 30
0.0
 11
225.5259542392
 21
124.3539735874
 31
0.0
  0
LWPOLYLINE
  5
18C
330
1F
100
AcDbEntity
  8
0
  6
Continuous
 62
     7
370
    25
100
AcDbPolyline
 90
       23
 70
   128
 43
0.0
 10
229.3758705091
 20
125.3589791123
 10
229.160536316
 20
125.452284258
 10
228.8807058016
 20
125.548390477
 10
228.5420755083
 20
125.6453413239
 10
228.1515389723
 20
125.741163159
 10
227.7170463912
 20
125.833905326
 10
227.2474427811
 20
125.921679862
 10
226.7522879171
 20
126.0026999304
 10
226.2416617245
 20
126.0753161963
 10
225.72595908
 20
126.138050402
 10
225.2156782022
 20
126.1896254599
 10
224.7212069383
 20
126.2289914506
 10
224.2526112973
 20
126.255346996
 10
223.8194305352
 20
126.2681555732
 10
223.430482963
 20
126.2671564366
 10
223.0936864317
 20
126.2523699256
 10
222.8158971475
 20
126.2240970511
 10
222.602770099
 20
126.1829133671
 10
222.4586439384
 20
126.1296572548
 10
222.3864526587
 20
126.065412855
 10
222.3876658661
 20
125.9914879984
 10
222.4622588633
 20
125.9093875819
 10
222.6087131519
 20
125.8207829332
  0
LINE
  5
18D
330
1F
100
AcDbEntity
  8
0
  6
Continuous
 62
     7
370
    25
100
AcDbLine
 10
229.3758705091
 20
125.3589791123
 30
0.0
 11
232.2931115964
 21
123.8921697665
 31
0.0
  0
LWPOLYLINE
  5
18E
330
1F
100
AcDbEntity
  8
0
  6
Continuous
 62
     7
370
    25
100
AcDbPolyline
 90
       24
 70
   128
 43
0.0
 10
225.9922918305
 20
125.447894234
 10
226.260063023
 20
125.420495534
 10
226.5079748512
 20
125.4056593809
 10
226.7176408287
 20
125.4044861042
 10
226.8735109894
 20
125.4170627204
 10
226.9640251563
 20
125.4424564796
 10
226.9824703079
 20
125.4787840427
 10
226.9274784515
 20
125.5233511606
 10
226.8031280817
 20
125.572852494
 10
226.6186416964
 20
125.6236167555
 10
226.3877018069
 20
125.6718789921
 10
226.1274361684
 20
125.7140598143
 10
225.8571474926
 20
125.7470308637
 10
225.5968818541
 20
125.7683468283
 10
225.3659419646
 20
125.7764268005
 10
225.1814555794
 20
125.7706715258
 10
225.0571052095
 20
125.7515078465
 10
225.0021133532
 20
125.7203570451
 10
225.0205585047
 20
125.6795294341
 10
225.1110726716
 20
125.6320530104
 10
225.2669428323
 20
125.5814488834
 10
225.4766088099
 20
125.5314701296
 10
225.724520638
 20
125.4858234445
 10
225.9922918305
 20
125.447894234
  0
LWPOLYLINE
  5
18F
330
1F
100
AcDbEntity
  8
0
  6
Continuous
 62
     7
370
    25
100
AcDbPolyline
 90
       21
 70
   128
 43
0.0
 10
222.4517809267
 20
126.6292529361
 10
222.4598373965
 20
126.654874949
 10
222.5320286762
 20
126.7191193488
 10
222.6761548368
 20
126.7723754611
 10
222.8892818853
 20
126.8135591451
 10
223.1670711695
 20
126.8418320196
 10
223.5038677008
 20
126.8566185306
 10
223.892815273
 20
126.8576176672
 10
224.3259960352
 20
126.84480909
 10
224.7945916761
 20
126.8184535446
 10
225.28906294
 20
126.7790875539
 10
225.7993438178
 20
126.727512496
 10
226.3150464623
 20
126.6647782903
 10
226.825672655
 20
126.5921620244
 10
227.3208275189
 20
126.511141956
 10
227.7904311291
 20
126.4233674201
 10
228.2249237101
 20
126.330625253
 10
228.6154602462
 20
126.2348034179
 10
228.9540905395
 20
126.1378525711
 10
229.2339210538
 20
126.041746352
 10
229.4492552469
 20
125.9484412064
  0
LINE
  5
190
330
1F
100
AcDbEntity
  8
0
  6
Continuous
 62
     7
370
    25
100
AcDbLine
 10
229.4492552469
 20
125.9484412064
 30
0.0
 11
229.3758705091
 21
125.3589791123
 31
0.0
  0
LINE
  5
191
330
1F
100
AcDbEntity
  8
0
  6
Continuous
 62
     7
370
    25
100
AcDbLine
 10
232.3664963342
 20
124.4816318606
 30
0.0
 11
232.2931115964
 21
123.8921697665
 31
0.0
  0
LINE
  5
192
330
1F
100
AcDbEntity
  8
0
  6
Continuous
 62
     7
370
    25
100
AcDbLine
 10
229.4492552469
 20
125.9484412064
 30
0.0
 11
232.3664963342
 21
124.4816318606
 31
0.0
  0
LINE
  5
193
330
1F
100
AcDbEntity
  8
0
  6
Continuous
 62
     7
370
    25
100
AcDbLine
 10
232.8557279197
 20
128.411379154
 30
0.0
 11
232.7018536272
 21
128.4218798314
 31
0.0
  0
LINE
  5
194
330
1F
100
AcDbEntity
  8
0
  6
Continuous
 62
     7
370
    25
100
AcDbLine
 10
226.4049556423
 20
128.8515922491
 30
0.0
 11
226.0885705626
 21
128.8731829749
 31
0.0
  0
LINE
  5
195
330
1F
100
AcDbEntity
  8
0
  6
Continuous
 62
     7
370
    25
100
AcDbLine
 10
223.1713294753
 20
130.3399923207
 30
0.0
 11
226.0885705626
 21
128.8731829749
 31
0.0
  0
LWPOLYLINE
  5
196
330
1F
100
AcDbEntity
  8
0
  6
Continuous
 62
     7
370
    25
100
AcDbPolyline
 90
       23
 70
   128
 43
0.0
 10
229.9384868324
 20
129.8781884998
 10
229.7231526393
 20
129.9714936455
 10
229.443322125
 20
130.0675998645
 10
229.1046918317
 20
130.1645507114
 10
228.7141552956
 20
130.2603725465
 10
228.2796627146
 20
130.3531147135
 10
227.8100591044
 20
130.4408892495
 10
227.3149042405
 20
130.5219093179
 10
226.8042780479
 20
130.5945255838
 10
226.2885754033
 20
130.6572597894
 10
225.7782945255
 20
130.7088348473
 10
225.2838232617
 20
130.748200838
 10
224.8152276207
 20
130.7745563834
 10
224.3820468585
 20
130.7873649607
 10
223.9930992863
 20
130.786365824
 10
223.6563027551
 20
130.7715793131
 10
223.3785134708
 20
130.7433064385
 10
223.1653864223
 20
130.7021227546
 10
223.0212602617
 20
130.6488666423
 10
222.949068982
 20
130.5846222425
 10
222.9502821894
 20
130.5106973858
 10
223.0248751866
 20
130.4285969694
 10
223.1713294753
 20
130.3399923207
  0
LINE
  5
197
330
1F
100
AcDbEntity
  8
0
  6
Continuous
 62
     7
370
    25
100
AcDbLine
 10
229.9384868324
 20
129.8781884998
 30
0.0
 11
232.8557279197
 21
128.411379154
 31
0.0
  0
LWPOLYLINE
  5
198
330
1F
100
AcDbEntity
  8
0
  6
Continuous
 62
     7
370
    25
100
AcDbPolyline
 90
       24
 70
   128
 43
0.0
 10
226.5549081538
 20
129.9671036214
 10
226.8226793464
 20
129.9397049215
 10
227.0705911745
 20
129.9248687683
 10
227.2802571521
 20
129.9236954916
 10
227.4361273127
 20
129.9362721079
 10
227.5266414796
 20
129.9616658671
 10
227.5450866312
 20
129.9979934302
 10
227.4900947748
 20
130.0425605481
 10
227.365744405
 20
130.0920618815
 10
227.1812580197
 20
130.142826143
 10
226.9503181303
 20
130.1910883795
 10
226.6900524918
 20
130.2332692018
 10
226.4197638159
 20
130.2662402512
 10
226.1594981774
 20
130.2875562158
 10
225.928558288
 20
130.295636188
 10
225.7440719027
 20
130.2898809133
 10
225.6197215329
 20
130.270717234
 10
225.5647296765
 20
130.2395664326
 10
225.583174828
 20
130.1987388215
 10
225.673688995
 20
130.1512623979
 10
225.8295591556
 20
130.1006582709
 10
226.0392251332
 20
130.050679517
 10
226.2871369613
 20
130.005032832
 10
226.5549081538
 20
129.9671036214
  0
LWPOLYLINE
  5
199
330
1F
100
AcDbEntity
  8
0
  6
Continuous
 62
     7
370
    25
100
AcDbPolyline
 90
       21
 70
   128
 43
0.0
 10
223.01439725
 20
131.1484623236
 10
223.0224537198
 20
131.1740843365
 10
223.0946449995
 20
131.2383287363
 10
223.2387711601
 20
131.2915848486
 10
223.4518982086
 20
131.3327685326
 10
223.7296874929
 20
131.3610414071
 10
224.0664840242
 20
131.3758279181
 10
224.4554315964
 20
131.3768270547
 10
224.8886123585
 20
131.3640184774
 10
225.3572079995
 20
131.337662932
 10
225.8516792634
 20
131.2982969414
 10
226.3619601411
 20
131.2467218835
 10
226.8776627857
 20
131.1839876778
 10
227.3882889783
 20
131.1113714119
 10
227.8834438422
 20
131.0303513435
 10
228.3530474524
 20
130.9425768075
 10
228.7875400335
 20
130.8498346405
 10
229.1780765695
 20
130.7540128054
 10
229.5167068628
 20
130.6570619585
 10
229.7965373771
 20
130.5609557395
 10
230.0118715702
 20
130.4676505938
  0
LINE
  5
19A
330
1F
100
AcDbEntity
  8
0
  6
Continuous
 62
     7
370
    25
100
AcDbLine
 10
230.0118715702
 20
130.4676505938
 30
0.0
 11
229.9384868324
 21
129.8781884998
 31
0.0
  0
LINE
  5
19B
330
1F
100
AcDbEntity
  8
0
  6
Continuous
 62
     7
370
    25
100
AcDbLine
 10
232.9291126576
 20
129.000841248
 30
0.0
 11
232.8557279197
 21
128.411379154
 31
0.0
  0
LINE
  5
19C
330
1F
100
AcDbEntity
  8
0
  6
Continuous
 62
     7
370
    25
100
AcDbLine
 10
230.0118715702
 20
130.4676505938
 30
0.0
 11
232.9291126576
 21
129.000841248
 31
0.0
  0
LWPOLYLINE
  5
19D
330
1F
100
AcDbEntity
  8
0
  6
Continuous
 62
     7
370
    25
100
AcDbPolyline
 90
       19
 70
   128
 43
0.0
 10
197.509534583
 20
172.7097978484
 10
197.2995972742
 20
172.7817596897
 10
196.9797568844
 20
172.8755039688
 10
196.6121130901
 20
172.9680600665
 10
196.2048784462
 20
173.0573604325
 10
195.7671499016
 20
173.1414102443
 10
195.3087055887
 20
173.2183319678
 10
194.8397863959
 20
173.286407299
 10
194.3708672031
 20
173.3441155473
 10
193.9124228902
 20
173.390167606
 10
193.4746943455
 20
173.423534748
 10
193.0674597016
 20
173.4434716067
 10
192.6998159073
 20
173.4495328254
 10
192.3799755176
 20
173.4415830067
 10
192.1150832381
 20
173.4197997363
 10
191.9110563248
 20
173.3846696164
 10
191.7724524016
 20
173.336977396
 10
191.7023676513
 20
173.2777884404
 10
191.6941899117
 20
173.2534143951
  0
LWPOLYLINE
  5
19E
330
1F
100
AcDbEntity
  8
0
  6
Continuous
 62
     7
370
    25
100
AcDbPolyline
 90
       23
 70
   128
 43
0.0
 10
198.3884263485
 20
175.3320858815
 10
198.3802486089
 20
175.3770753436
 10
198.3101638586
 20
175.4550639365
 10
198.1715599354
 20
175.5399354788
 10
197.9675330221
 20
175.6297940804
 10
197.7026407426
 20
175.7226324486
 10
197.3828003529
 20
175.8163767277
 10
197.0151565586
 20
175.9089328254
 10
196.6079219146
 20
175.9982331914
 10
196.17019337
 20
176.0822830031
 10
195.7117490571
 20
176.1592047267
 10
195.2428298643
 20
176.2272800578
 10
194.7739106715
 20
176.2849883062
 10
194.3154663586
 20
176.3310403648
 10
193.877737814
 20
176.3644075069
 10
193.4705031701
 20
176.3843443655
 10
193.1028593758
 20
176.3904055843
 10
192.783018986
 20
176.3824557656
 10
192.5181267066
 20
176.3606724951
 10
192.3140997932
 20
176.3255423753
 10
192.1754958701
 20
176.2778501549
 10
192.1054111198
 20
176.2186611992
 10
192.0972333801
 20
176.1942871539
  0
LWPOLYLINE
  5
19F
330
1F
100
AcDbEntity
  8
0
  6
Continuous
 62
     7
370
    25
100
AcDbPolyline
 90
       43
 70
   128
 43
0.0
 10
194.0336994589
 20
166.476474701
 10
194.5026186517
 20
166.4187664527
 10
194.9610629646
 20
166.372714394
 10
195.3987915092
 20
166.3393472519
 10
195.8060261532
 20
166.3194103933
 10
196.1736699474
 20
166.3133491745
 10
196.4935103372
 20
166.3212989933
 10
196.7584026167
 20
166.3430822637
 10
196.96242953
 20
166.3782123835
 10
197.1010334531
 20
166.425904604
 10
197.1711182035
 20
166.4850935596
 10
197.1711182035
 20
166.554457067
 10
197.1010334531
 20
166.63244566
 10
196.96242953
 20
166.7173172022
 10
196.7584026167
 20
166.8071758038
 10
196.4935103372
 20
166.900014172
 10
196.1736699474
 20
166.9937584511
 10
195.8060261532
 20
167.0863145488
 10
195.3987915092
 20
167.1756149148
 10
194.9610629646
 20
167.2596647265
 10
194.5026186517
 20
167.3365864501
 10
194.0336994589
 20
167.4046617812
 10
193.5647802661
 20
167.4623700296
 10
193.1063359532
 20
167.5084220882
 10
192.6686074086
 20
167.5417892303
 10
192.2613727646
 20
167.561726089
 10
191.8937289704
 20
167.5677873077
 10
191.5738885806
 20
167.559837489
 10
191.3089963011
 20
167.5380542186
 10
191.1049693878
 20
167.5029240987
 10
190.9663654647
 20
167.4552318783
 10
190.8962807143
 20
167.3960429226
 10
190.8962807143
 20
167.3266794153
 10
190.9663654647
 20
167.2486908223
 10
191.1049693878
 20
167.16381928
 10
191.3089963011
 20
167.0739606784
 10
191.5738885806
 20
166.9811223102
 10
191.8937289704
 20
166.8873780312
 10
192.2613727646
 20
166.7948219335
 10
192.6686074086
 20
166.7055215674
 10
193.1063359532
 20
166.6214717557
 10
193.5647802661
 20
166.5445500322
 10
194.0336994589
 20
166.476474701
  0
LWPOLYLINE
  5
1A0
330
1F
100
AcDbEntity
  8
0
  6
Continuous
 62
     7
370
    25
100
AcDbPolyline
 90
       22
 70
   128
 43
0.0
 10
194.0336994589
 20
166.8236312861
 10
194.267365854
 20
166.7974869568
 10
194.4802699645
 20
166.7840560275
 10
194.6534943259
 20
166.7845318952
 10
194.7716471934
 20
166.798872277
 10
194.8242301662
 20
166.825802967
 10
194.8065710165
 20
166.8629310553
 10
194.7202388372
 20
166.9069575483
 10
194.5729046214
 20
166.9539704988
 10
194.3776596606
 20
166.9997925999
 10
194.1518523264
 20
167.0403523568
 10
193.9155465914
 20
167.0720458571
 10
193.6897392573
 20
167.0920569943
 10
193.4944942964
 20
167.098607691
 10
193.3471600806
 20
167.091115889
 10
193.2608279013
 20
167.0702472678
 10
193.2431687516
 20
167.037856096
 10
193.2957517245
 20
166.9968204714
 10
193.4139045919
 20
166.9507865893
 10
193.5871289533
 20
166.903844762
 10
193.8000330638
 20
166.8601659771
 10
194.0336994589
 20
166.8236312861
  0
LWPOLYLINE
  5
1A1
330
1F
100
AcDbEntity
  8
0
  6
Continuous
 62
     7
370
    25
100
AcDbPolyline
 90
       19
 70
   128
 43
0.0
 10
197.509534583
 20
172.7097978484
 10
197.2995972742
 20
172.7817596897
 10
196.9797568844
 20
172.8755039688
 10
196.6121130901
 20
172.9680600665
 10
196.2048784462
 20
173.0573604325
 10
195.7671499016
 20
173.1414102443
 10
195.3087055887
 20
173.2183319678
 10
194.8397863959
 20
173.286407299
 10
194.3708672031
 20
173.3441155473
 10
193.9124228902
 20
173.390167606
 10
193.4746943455
 20
173.423534748
 10
193.0674597016
 20
173.4434716067
 10
192.6998159073
 20
173.4495328254
 10
192.3799755176
 20
173.4415830067
 10
192.1150832381
 20
173.4197997363
 10
191.9110563248
 20
173.3846696164
 10
191.7724524016
 20
173.336977396
 10
191.7023676513
 20
173.2777884404
 10
191.6941899117
 20
173.2534143951
  0
LWPOLYLINE
  5
1A2
330
1F
100
AcDbEntity
  8
0
  6
Continuous
 62
     7
370
    25
100
AcDbPolyline
 90
       43
 70
   128
 43
0.0
 10
182.3903148884
 20
82.4467969787
 10
182.8592340812
 20
82.3787216476
 10
183.3176783941
 20
82.301799924
 10
183.7554069387
 20
82.2177501123
 10
184.1626415827
 20
82.1284497463
 10
184.530285377
 20
82.0358936486
 10
184.8501257667
 20
81.9421493695
 10
185.1150180462
 20
81.8493110013
 10
185.3190449595
 20
81.7594523997
 10
185.4576488827
 20
81.6745808574
 10
185.527733633
 20
81.5965922645
 10
185.527733633
 20
81.5272287571
 10
185.4576488827
 20
81.4680398015
 10
185.3190449595
 20
81.420347581
 10
185.1150180462
 20
81.3852174612
 10
184.8501257667
 20
81.3634341908
 10
184.530285377
 20
81.355484372
 10
184.1626415827
 20
81.3615455908
 10
183.7554069387
 20
81.3814824494
 10
183.3176783941
 20
81.4148495915
 10
182.8592340812
 20
81.4609016501
 10
182.3903148884
 20
81.5186098985
 10
181.9213956956
 20
81.5866852297
 10
181.4629513827
 20
81.6636069532
 10
181.0252228381
 20
81.7476567649
 10
180.6179881942
 20
81.8369571309
 10
180.2503443999
 20
81.9295132286
 10
179.9305040101
 20
82.0232575077
 10
179.6656117307
 20
82.1160958759
 10
179.4615848173
 20
82.2059544775
 10
179.3229808942
 20
82.2908260198
 10
179.2528961438
 20
82.3688146128
 10
179.2528961438
 20
82.4381781201
 10
179.3229808942
 20
82.4973670758
 10
179.4615848173
 20
82.5450592962
 10
179.6656117307
 20
82.580189416
 10
179.9305040101
 20
82.6019726865
 10
180.2503443999
 20
82.6099225052
 10
180.6179881942
 20
82.6038612864
 10
181.0252228381
 20
82.5839244278
 10
181.4629513827
 20
82.5505572857
 10
181.9213956956
 20
82.5045052271
 10
182.3903148884
 20
82.4467969787
  0
ARC
  5
1A3
330
1F
100
AcDbEntity
  8
0
  6
Continuous
 62
     7
370
    25
100
AcDbCircle
 10
181.3687346643
 20
72.3363791897
 30
0.0
 40
13.12881326058121
100
AcDbArc
 50
71.7625655543
 51
83.77049831
  0
LWPOLYLINE
  5
1A4
330
1F
100
AcDbEntity
  8
0
  6
Continuous
 62
     7
370
    25
100
AcDbPolyline
 90
       12
 70
   128
 43
0.0
 10
179.6477618727
 20
85.3546768337
 10
179.6559396123
 20
85.379050879
 10
179.7260243626
 20
85.4382398346
 10
179.8646282858
 20
85.4859320551
 10
180.0686551991
 20
85.5210621749
 10
180.3335474786
 20
85.5428454453
 10
180.6533878683
 20
85.5507952641
 10
181.0210316626
 20
85.5447340453
 10
181.4282663066
 20
85.5247971867
 10
181.8659948512
 20
85.4914300446
 10
182.3244391641
 20
85.4453779859
 10
182.7933583569
 20
85.3876697376
  0
LWPOLYLINE
  5
1A5
330
1F
100
AcDbEntity
  8
0
  6
Continuous
 62
     7
370
    25
100
AcDbPolyline
 90
       22
 70
   128
 43
0.0
 10
182.3903148884
 20
82.0996403936
 10
182.6239812835
 20
82.0631057027
 10
182.8368853941
 20
82.0194269177
 10
183.0101097554
 20
81.9724850905
 10
183.1282626229
 20
81.9264512083
 10
183.1808455957
 20
81.8854155837
 10
183.163186446
 20
81.8530244119
 10
183.0768542667
 20
81.8321557908
 10
182.9295200509
 20
81.8246639888
 10
182.7342750901
 20
81.8312146854
 10
182.5084677559
 20
81.8512258226
 10
182.2721620209
 20
81.882919323
 10
182.0463546868
 20
81.9234790799
 10
181.8511097259
 20
81.969301181
 10
181.7037755101
 20
82.0163141315
 10
181.6174433308
 20
82.0603406244
 10
181.5997841811
 20
82.0974687127
 10
181.652367154
 20
82.1243994027
 10
181.7705200214
 20
82.1387397845
 10
181.9437443828
 20
82.1392156522
 10
182.1566484933
 20
82.1257847229
 10
182.3903148884
 20
82.0996403936
  0
LWPOLYLINE
  5
1A6
330
1F
100
AcDbEntity
  8
0
  6
Continuous
 62
     7
370
    25
100
AcDbPolyline
 90
       12
 70
   128
 43
0.0
 10
179.6477618727
 20
85.3546768337
 10
179.6559396123
 20
85.379050879
 10
179.7260243626
 20
85.4382398346
 10
179.8646282858
 20
85.4859320551
 10
180.0686551991
 20
85.5210621749
 10
180.3335474786
 20
85.5428454453
 10
180.6533878683
 20
85.5507952641
 10
181.0210316626
 20
85.5447340453
 10
181.4282663066
 20
85.5247971867
 10
181.8659948512
 20
85.4914300446
 10
182.3244391641
 20
85.4453779859
 10
182.7933583569
 20
85.3876697376
  0
LWPOLYLINE
  5
1A7
330
1F
100
AcDbEntity
  8
0
  6
Continuous
 62
     7
370
    25
100
AcDbPolyline
 90
       12
 70
   128
 43
0.0
 10
183.7337931167
 20
92.2497061749
 10
184.2027123095
 20
92.1816308438
 10
184.6611566224
 20
92.1047091202
 10
185.098885167
 20
92.0206593085
 10
185.5061198109
 20
91.9313589425
 10
185.8737636052
 20
91.8388028448
 10
186.193603995
 20
91.7450585657
 10
186.4584962744
 20
91.6522201975
 10
186.6625231878
 20
91.5623615959
 10
186.8011271109
 20
91.4774900537
 10
186.8712118612
 20
91.3995014607
 10
186.8793896009
 20
91.3545119986
  0
LWPOLYLINE
  5
1A8
330
1F
100
AcDbEntity
  8
0
  6
Continuous
 62
     7
370
    25
100
AcDbPolyline
 90
       12
 70
   128
 43
0.0
 10
180.5881966325
 20
92.2167132711
 10
180.5963743721
 20
92.2410873163
 10
180.6664591224
 20
92.300276272
 10
180.8050630456
 20
92.3479684924
 10
181.0090899589
 20
92.3830986123
 10
181.2739822384
 20
92.4048818827
 10
181.5938226281
 20
92.4128317014
 10
181.9614664224
 20
92.4067704827
 10
182.3687010664
 20
92.386833624
 10
182.806429611
 20
92.3534664819
 10
183.2648739239
 20
92.3074144233
 10
183.7337931167
 20
92.2497061749
  0
LINE
  5
1A9
330
1F
100
AcDbEntity
  8
0
  6
Continuous
 62
     7
370
    25
100
AcDbLine
 10
232.0845580833
 20
123.4634602106
 30
0.0
 11
232.0845580833
 21
122.8035600006
 31
0.0
  0
LINE
  5
1AA
330
1F
100
AcDbEntity
  8
0
  6
Continuous
 62
     7
370
    25
100
AcDbLine
 10
242.0845580833
 20
128.0018164318
 30
0.0
 11
242.0845580833
 21
124.4529571578
 31
0.0
  0
LINE
  5
1AB
330
1F
100
AcDbEntity
  8
0
  6
Continuous
 62
     7
370
    25
100
AcDbLine
 10
246.0845580833
 20
129.1535600006
 30
0.0
 11
246.0845580833
 21
122.8035600006
 31
0.0
  0
ELLIPSE
  5
1AC
330
1F
100
AcDbEntity
  8
0
  6
Continuous
 62
     7
370
    25
100
AcDbEllipse
 10
249.1329263183
 20
125.9785600006
 30
0.0
 11
8.218659530982734
 21
-0.145493403604263
 31
0.0
210
0.0
220
0.0
230
1.0
 40
0.3859102133
 41
3.043011655701201
 42
4.022172295554168
  0
LINE
  5
1AD
330
1F
100
AcDbEntity
  8
0
  6
Continuous
 62
     7
370
    25
100
AcDbLine
 10
243.8567748756
 20
123.6255000684
 30
0.0
 11
185.3171308823
 21
83.0909157274
 31
0.0
  0
ELLIPSE
  5
1AE
330
1F
100
AcDbEntity
  8
0
  6
Continuous
 62
     7
370
    25
100
AcDbEllipse
 10
176.094300579
 20
36.0428026088
 30
0.0
 11
9.525500089021847
 21
61.29927325930731
 31
0.0
210
0.0
220
0.0
230
1.0
 40
0.0479342404
 41
5.59475986377389
 42
5.780823800493819
  0
LINE
  5
1AF
330
1F
100
AcDbEntity
  8
0
  6
Continuous
 62
     7
370
    25
100
AcDbLine
 10
239.3817194836
 20
126.610189595
 30
0.0
 11
185.8577035271
 21
89.5485747464
 31
0.0
  0
LINE
  5
1B0
330
1F
100
AcDbEntity
  8
0
  6
Continuous
 62
     7
370
    25
100
AcDbLine
 10
239.3817194836
 20
126.610189595
 30
0.0
 11
240.9596959037
 21
126.4355066955
 31
0.0
  0
ELLIPSE
  5
1B1
330
1F
100
AcDbEntity
  8
0
  6
Continuous
 62
     7
370
    25
100
AcDbEllipse
 10
183.2595978769
 20
88.3255693092
 30
0.0
 11
3.497918715829655
 21
2.28772497947503
 31
0.0
210
0.0
220
0.0
230
1.0
 40
0.1301164568
 41
5.460687345751172
 42
6.170597263362211
  0
LINE
  5
1B2
330
1F
100
AcDbEntity
  8
0
  6
Continuous
 62
     7
370
    25
100
AcDbLine
 10
232.5908682827
 20
122.985565786
 30
0.0
 11
231.9716872497
 21
122.5568264891
 31
0.0
  0
LINE
  5
1B3
330
1F
100
AcDbEntity
  8
0
  6
Continuous
 62
     7
370
    25
100
AcDbLine
 10
224.9374350554
 20
117.6861018076
 30
0.0
 11
186.876220615
 21
91.3313889735
 31
0.0
  0
ELLIPSE
  5
1B4
330
1F
100
AcDbEntity
  8
0
  6
Continuous
 62
     7
370
    25
100
AcDbEllipse
 10
237.1469829555
 20
125.9785600006
 30
0.0
 11
5.285866111482564
 21
3.14265651447741
 31
0.0
210
0.0
220
0.0
230
1.0
 40
0.0855175513
 41
3.624688873340342
 42
5.037061022817809
  0
LINE
  5
1B5
330
1F
100
AcDbEntity
  8
0
  6
Continuous
 62
     7
370
    25
100
AcDbLine
 10
239.0878749972
 20
126.5526431075
 30
0.0
 11
239.3817194836
 21
126.610189595
 31
0.0
  0
ELLIPSE
  5
1B6
330
1F
100
AcDbEntity
  8
0
  6
Continuous
 62
     7
370
    25
100
AcDbEllipse
 10
200.7781713416
 20
216.1527132929
 30
0.0
 11
6.255743066472291
 21
53.79838531940311
 31
0.0
210
0.0
220
0.0
230
1.0
 40
0.0549550885
 41
3.64636303100716
 42
3.832426967727
  0
ELLIPSE
  5
1B7
330
1F
100
AcDbEntity
  8
0
  6
Continuous
 62
     7
370
    25
100
AcDbEllipse
 10
194.4264880129
 20
169.8066143352
 30
0.0
 11
2.780764007758989
 21
-2.588318651572678
 31
0.0
210
0.0
220
0.0
230
1.0
 40
0.3000687355
 41
0.2081722311794892
 42
0.9180821487905055
  0
ELLIPSE
  5
1B8
330
1F
100
AcDbEntity
  8
0
  6
Continuous
 62
     7
370
    25
100
AcDbEllipse
 10
237.9423891819
 20
125.9785600006
 30
0.0
 11
4.030447742974019
 21
-3.038007430901715
 31
0.0
210
0.0
220
0.0
230
1.0
 40
0.2289001868
 41
1.45778398728874
 42
2.846766714062166
  0
LINE
  5
1B9
330
1F
100
AcDbEntity
  8
0
  6
Continuous
 62
     7
370
    25
100
AcDbLine
 10
196.7151209484
 20
166.338164672
 30
0.0
 11
227.2279160414
 21
136.0843649656
 31
0.0
  0
LINE
  5
1BA
330
1F
100
AcDbEntity
  8
0
  6
Continuous
 62
     7
370
    25
100
AcDbLine
 10
232.9495276767
 20
130.4113188915
 30
0.0
 11
234.2180539341
 21
129.1535600006
 31
0.0
  0
LINE
  5
1BB
330
1F
100
AcDbEntity
  8
0
  6
Continuous
 62
     7
370
    25
100
AcDbLine
 10
196.7323899823
 20
168.8975076993
 30
0.0
 11
239.3817194836
 21
126.610189595
 31
0.0
  0
LINE
  5
1BC
330
1F
100
AcDbEntity
  8
0
  6
Continuous
 62
     7
370
    25
100
AcDbLine
 10
197.8405991081
 20
174.4704552375
 30
0.0
 11
243.9694701102
 21
128.7331302978
 31
0.0
  0
ELLIPSE
  5
1BD
330
1F
100
AcDbEntity
  8
0
  6
Continuous
 62
     7
370
    25
100
AcDbEllipse
 10
249.0009753455
 20
125.9785600006
 30
0.0
 11
8.038626561863197
 21
-0.5793230121679187
 31
0.0
210
0.0
220
0.0
230
1.0
 40
0.3883374615
 41
2.274766964399412
 42
3.180662790364585
  0
LINE
  5
1BE
330
1F
100
AcDbEntity
  8
0
  6
Continuous
 62
     7
370
    25
100
AcDbLine
 10
227.2279160414
 20
136.0843649656
 30
0.0
 11
228.9052514623
 21
136.9215467828
 31
0.0
  0
LINE
  5
1BF
330
1F
100
AcDbEntity
  8
0
  6
Continuous
 62
     7
370
    25
100
AcDbLine
 10
226.5164818238
 20
117.7337811114
 30
0.0
 11
227.3923819169
 21
124.7694389108
 31
0.0
  0
LINE
  5
1C0
330
1F
100
AcDbEntity
  8
0
  6
Continuous
 62
     7
370
    25
100
AcDbLine
 10
227.6028261889
 20
126.4598301958
 30
0.0
 11
227.9549982402
 21
129.2886482983
 31
0.0
  0
LINE
  5
1C1
330
1F
100
AcDbEntity
  8
0
  6
Continuous
 62
     7
370
    25
100
AcDbLine
 10
228.1654425123
 20
130.9790395832
 30
0.0
 11
228.9052514623
 21
136.9215467828
 31
0.0
  0
LINE
  5
1C2
330
1F
100
AcDbEntity
  8
0
  6
Continuous
 62
     7
370
    25
100
AcDbLine
 10
226.5164818238
 20
117.7337811114
 30
0.0
 11
224.9374350554
 21
117.6861018076
 31
0.0
  0
LINE
  5
1C3
330
1F
100
AcDbEntity
  8
0
  6
Continuous
 62
     7
370
    25
100
AcDbLine
 10
224.8816551228
 20
117.6474781292
 30
0.0
 11
225.7149705105
 21
124.3410747539
 31
0.0
  0
LINE
  5
1C4
330
1F
100
AcDbEntity
  8
0
  6
Continuous
 62
     7
370
    25
100
AcDbLine
 10
226.0090510798
 20
126.7032736706
 30
0.0
 11
226.2775868338
 21
128.8602841414
 31
0.0
  0
LINE
  5
1C5
330
1F
100
AcDbEntity
  8
0
  6
Continuous
 62
     7
370
    25
100
AcDbLine
 10
226.5716674032
 20
131.2224830581
 30
0.0
 11
227.1825450336
 21
136.1293508602
 31
0.0
  0
LINE
  5
1C6
330
1F
100
AcDbEntity
  8
0
  6
Continuous
 62
     7
370
    25
100
AcDbLine
 10
228.9052514623
 20
136.9215467828
 30
0.0
 11
233.2242948357
 21
132.6183830537
 31
0.0
  0
LINE
  5
1C7
330
1F
100
AcDbEntity
  8
0
  6
Continuous
 62
     7
370
    25
100
AcDbLine
 10
231.8304066113
 20
121.4219913254
 30
0.0
 11
232.1449924362
 21
123.9488984811
 31
0.0
  0
LINE
  5
1C8
330
1F
100
AcDbEntity
  8
0
  6
Continuous
 62
     7
370
    25
100
AcDbLine
 10
232.2204563804
 20
124.5550617769
 30
0.0
 11
232.7076087596
 21
128.4681078686
 31
0.0
  0
LINE
  5
1C9
330
1F
100
AcDbEntity
  8
0
  6
Continuous
 62
     7
370
    25
100
AcDbLine
 10
232.7830727037
 20
129.0742711644
 30
0.0
 11
233.2242948357
 21
132.6183830537
 31
0.0
  0
LINE
  5
1CA
330
1F
100
AcDbEntity
  8
0
  6
Continuous
 62
     7
370
    25
100
AcDbLine
 10
231.8304066113
 20
121.4219913254
 30
0.0
 11
226.5164818238
 21
117.7337811114
 31
0.0
  0
LINE
  5
1CB
330
1F
100
AcDbEntity
  8
0
  6
Continuous
 62
     7
100
AcDbLine
 10
93.3624032988
 20
175.7631865177
 30
0.0
 11
93.7969414199
 21
172.8223137589
 31
0.0
  0
LINE
  5
1CC
330
1F
100
AcDbEntity
  8
0
  6
CENTERX2
 62
     7
100
AcDbLine
 10
109.3603356947
 20
87.6118425942
 30
0.0
 11
82.2603240462
 21
125.9785600006
 31
0.0
  0
LINE
  5
1CD
330
1F
100
AcDbEntity
  8
0
  6
CENTERX2
 62
     7
100
AcDbLine
 10
82.2603240462
 20
125.9785600006
 30
0.0
 11
95.3346088789
 21
172.065921697
 31
0.0
  0
LINE
  5
1CE
330
1F
100
AcDbEntity
  8
0
  6
CENTERX2
 62
     7
100
AcDbLine
 10
82.2603240462
 20
125.9785600006
 30
0.0
 11
109.3603356947
 21
87.6118425942
 31
0.0
  0
LINE
  5
1CF
330
1F
100
AcDbEntity
  8
0
  6
CENTERX2
 62
     7
100
AcDbLine
 10
82.2603240462
 20
125.9785600006
 30
0.0
 11
95.3346088789
 21
172.065921697
 31
0.0
  0
LINE
  5
1D0
330
1F
100
AcDbEntity
  8
0
  6
Continuous
 62
     7
100
AcDbLine
 10
109.3603356947
 20
87.6118425942
 30
0.0
 11
109.3603356947
 21
80.6118425942
 31
0.0
  0
LINE
  5
1D1
330
1F
100
AcDbEntity
  8
0
  6
Continuous
 62
     7
100
AcDbLine
 10
95.3346088789
 20
172.065921697
 30
0.0
 11
95.3346088789
 21
179.065921697
 31
0.0
  0
LINE
  5
1D2
330
1F
100
AcDbEntity
  8
0
  6
CENTERX2
 62
     7
100
AcDbLine
 10
109.3603356947
 20
80.6118425942
 30
0.0
 11
82.2603240462
 21
125.9785600006
 31
0.0
  0
LINE
  5
1D3
330
1F
100
AcDbEntity
  8
0
  6
CENTERX2
 62
     7
100
AcDbLine
 10
82.2603240462
 20
125.9785600006
 30
0.0
 11
95.3346088789
 21
179.065921697
 31
0.0
  0
LINE
  5
1D4
330
1F
100
AcDbEntity
  8
0
  6
CENTERX2
 62
     7
100
AcDbLine
 10
93.7969414199
 20
172.8223137589
 30
0.0
 11
106.7847023328
 21
84.9235761975
 31
0.0
  0
LINE
  5
1D5
330
1F
100
AcDbEntity
  8
0
  6
Continuous
 62
     7
100
AcDbLine
 10
82.2603240462
 20
125.9785600006
 30
0.0
 11
100.2908218763
 21
128.8729449782
 31
0.0
  0
LINE
  5
1D6
330
1F
100
AcDbEntity
  8
0
  6
Continuous
 62
     7
100
AcDbLine
 10
107.2192404539
 20
81.9827034386
 30
0.0
 11
106.7847023328
 21
84.9235761975
 31
0.0
  0
LINE
  5
1D7
330
1F
100
AcDbEntity
  8
0
  6
Continuous
 62
     7
100
AcDbLine
 10
93.7969414199
 20
172.8223137589
 30
0.0
 11
94.6660176621
 21
166.9405682411
 31
0.0
  0
LINE
  5
1D8
330
1F
100
AcDbEntity
  8
0
  6
Continuous
 62
     7
100
AcDbLine
 10
106.7847023328
 20
84.9235761975
 30
0.0
 11
105.7707800502
 21
91.7856126348
 31
0.0
  0
LINE
  5
1D9
330
1F
100
AcDbEntity
  8
0
  6
Continuous
 62
     7
100
AcDbLine
 10
106.7847023328
 20
84.9235761975
 30
0.0
 11
82.2603240462
 21
125.9785600006
 31
0.0
  0
LINE
  5
1DA
330
1F
100
AcDbEntity
  8
0
  6
Continuous
 62
     7
100
AcDbLine
 10
82.2603240462
 20
125.9785600006
 30
0.0
 11
93.7969414199
 21
172.8223137589
 31
0.0
  0
LINE
  5
1DB
330
1F
100
AcDbEntity
  8
0
  6
Continuous
 62
     7
100
AcDbLine
 10
85.0699610116
 20
137.3869250262
 30
0.0
 11
88.1113604587
 21
116.1836448211
 31
0.0
  0
LINE
  5
1DC
330
1F
100
AcDbEntity
  8
0
  6
Continuous
 62
     7
100
AcDbLine
 10
86.6063066852
 20
126.6762083397
 30
0.0
 11
190.2273653514
 21
147.4644213325
 31
0.0
  0
POINT
  5
1DD
330
1F
100
AcDbEntity
  8
0
  6
Continuous
 62
     7
100
AcDbPoint
 10
95.3346088789
 20
172.065921697
 30
0.0
  0
POINT
  5
1DE
330
1F
100
AcDbEntity
  8
0
  6
Continuous
 62
     7
100
AcDbPoint
 10
85.0699610116
 20
137.3869250262
 30
0.0
  0
POINT
  5
1DF
330
1F
100
AcDbEntity
  8
0
  6
Continuous
 62
     7
100
AcDbPoint
 10
88.1113604587
 20
116.1836448211
 30
0.0
  0
POINT
  5
1E0
330
1F
100
AcDbEntity
  8
0
  6
Continuous
 62
     7
100
AcDbPoint
 10
86.3244651227
 20
128.6410819864
 30
0.0
  0
POINT
  5
1E1
330
1F
100
AcDbEntity
  8
0
  6
Continuous
 62
     7
100
AcDbPoint
 10
86.8881482477
 20
124.7113346929
 30
0.0
  0
POINT
  5
1E2
330
1F
100
AcDbEntity
  8
0
  6
Continuous
 62
     7
100
AcDbPoint
 10
106.7847023328
 20
84.9235761975
 30
0.0
  0
POINT
  5
1E3
330
1F
100
AcDbEntity
  8
0
  6
Continuous
 62
     7
100
AcDbPoint
 10
93.7969414199
 20
172.8223137589
 30
0.0
  0
POINT
  5
1E4
330
1F
100
AcDbEntity
  8
0
  6
Continuous
 62
     7
100
AcDbPoint
 10
85.8660982809
 20
126.5573847716
 30
0.0
  0
POINT
  5
1E5
330
1F
100
AcDbEntity
  8
0
  6
Continuous
 62
     7
100
AcDbPoint
 10
87.1648151982
 20
117.7682069203
 30
0.0
  0
POINT
  5
1E6
330
1F
100
AcDbEntity
  8
0
  6
Continuous
 62
     7
100
AcDbPoint
 10
84.5676563084
 20
135.347346433
 30
0.0
  0
POINT
  5
1E7
330
1F
100
AcDbEntity
  8
0
  6
Continuous
 62
     7
100
AcDbPoint
 10
93.7969414199
 20
172.8223137589
 30
0.0
  0
POINT
  5
1E8
330
1F
100
AcDbEntity
  8
0
  6
Continuous
 62
     7
100
AcDbPoint
 10
86.6063066852
 20
126.6762083397
 30
0.0
  0
POINT
  5
1E9
330
1F
100
AcDbEntity
  8
0
  6
Continuous
 62
     7
100
AcDbPoint
 10
106.7847023328
 20
84.9235761975
 30
0.0
  0
LINE
  5
1EA
330
1F
100
AcDbEntity
  8
0
  6
Continuous
 62
     7
370
    25
100
AcDbLine
 10
98.2647168538
 20
126.1069676003
 30
0.0
 11
98.1801643851
 21
126.6964296943
 31
0.0
  0
LINE
  5
1EB
330
1F
100
AcDbEntity
  8
0
  6
Continuous
 62
     7
370
    25
100
AcDbLine
 10
97.6164812601
 20
130.6261769878
 30
0.0
 11
97.5319287914
 21
131.2156390818
 31
0.0
  0
LINE
  5
1EC
330
1F
100
AcDbEntity
  8
0
  6
Continuous
 62
     7
370
    25
100
AcDbLine
 10
90.22150499
 20
175.2990929776
 30
0.0
 11
90.6560431111
 21
172.3582202187
 31
0.0
  0
LINE
  5
1ED
330
1F
100
AcDbEntity
  8
0
  6
Continuous
 62
     7
370
    25
100
AcDbLine
 10
96.9378397287
 20
173.286407299
 30
0.0
 11
96.5033016076
 21
176.2272800578
 31
0.0
  0
LINE
  5
1EE
330
1F
100
AcDbEntity
  8
0
  6
Continuous
 62
     7
370
    25
100
AcDbLine
 10
90.6560431111
 20
172.3582202187
 30
0.0
 11
91.5251193533
 21
166.476474701
 31
0.0
  0
LINE
  5
1EF
330
1F
100
AcDbEntity
  8
0
  6
Continuous
 62
     7
370
    25
100
AcDbLine
 10
97.8069159709
 20
167.4046617812
 30
0.0
 11
96.9378397287
 21
173.286407299
 31
0.0
  0
LINE
  5
1F0
330
1F
100
AcDbEntity
  8
0
  6
Continuous
 62
     7
370
    25
100
AcDbLine
 10
110.3601387627
 20
82.4467969787
 30
0.0
 11
109.9256006415
 21
85.3876697376
 31
0.0
  0
LINE
  5
1F1
330
1F
100
AcDbEntity
  8
0
  6
Continuous
 62
     7
370
    25
100
AcDbLine
 10
103.643804024
 20
84.4594826574
 30
0.0
 11
104.0783421451
 21
81.5186098985
 31
0.0
  0
LINE
  5
1F2
330
1F
100
AcDbEntity
  8
0
  6
Continuous
 62
     7
370
    25
100
AcDbLine
 10
109.9256006415
 20
85.3876697376
 30
0.0
 11
108.911678359
 21
92.2497061749
 31
0.0
  0
LINE
  5
1F3
330
1F
100
AcDbEntity
  8
0
  6
Continuous
 62
     7
370
    25
100
AcDbLine
 10
102.6298817414
 20
91.3215190947
 30
0.0
 11
103.643804024
 21
84.4594826574
 31
0.0
  0
LINE
  5
1F4
330
1F
100
AcDbEntity
  8
0
  6
Continuous
 62
     7
370
    25
100
AcDbLine
 10
85.7629569705
 20
124.3323828617
 30
0.0
 11
85.6388810936
 21
124.3539735874
 31
0.0
  0
LINE
  5
1F5
330
1F
100
AcDbEntity
  8
0
  6
Continuous
 62
     7
370
    25
100
AcDbLine
 10
93.3328910474
 20
125.8207829332
 30
0.0
 11
85.6388810936
 21
124.3539735874
 31
0.0
  0
LWPOLYLINE
  5
1F6
330
1F
100
AcDbEntity
  8
0
  6
Continuous
 62
     7
370
    25
100
AcDbPolyline
 90
       23
 70
   128
 43
0.0
 10
95.9867487587
 20
125.3589791123
 10
96.450337863
 20
125.452284258
 10
96.877477185
 20
125.548390477
 10
97.2594714
 20
125.6453413239
 10
97.5885442073
 20
125.741163159
 10
97.8579966335
 20
125.833905326
 10
98.0623434042
 20
125.921679862
 10
98.1974246085
 20
126.0026999304
 10
98.2604903826
 20
126.0753161963
 10
98.2502568893
 20
126.138050402
 10
98.1669324528
 20
126.1896254599
 10
98.0122133186
 20
126.2289914506
 10
97.7892491218
 20
126.255346996
 10
97.5025787708
 20
126.2681555732
 10
97.158038047
 20
126.2671564366
 10
96.762640806
 20
126.2523699256
 10
96.3244361956
 20
126.2240970511
 10
95.8523447977
 20
126.1829133671
 10
95.355977032
 20
126.1296572548
 10
94.8454375147
 20
126.065412855
 10
94.331119358
 20
125.9914879984
 10
93.8234925966
 20
125.9093875819
 10
93.3328910474
 20
125.8207829332
  0
LINE
  5
1F7
330
1F
100
AcDbEntity
  8
0
  6
Continuous
 62
     7
370
    25
100
AcDbLine
 10
95.9867487587
 20
125.3589791123
 30
0.0
 11
90.228139364
 21
124.2611403872
 31
0.0
  0
LWPOLYLINE
  5
1F8
330
1F
100
AcDbEntity
  8
0
  6
Continuous
 62
     7
370
    25
100
AcDbPolyline
 90
       24
 70
   128
 43
0.0
 10
93.6699513503
 20
125.447894234
 10
93.7113436805
 20
125.420495534
 10
93.8230801533
 20
125.4056593809
 10
93.9968737854
 20
125.4044861042
 10
94.2198350983
 20
125.4170627204
 10
94.4754280714
 20
125.4424564796
 10
94.7446965431
 20
125.4787840427
 10
95.0076701026
 20
125.5233511606
 10
95.2448452042
 20
125.572852494
 10
95.4386316555
 20
125.6236167555
 10
95.574657202
 20
125.6718789921
 10
95.6428334511
 20
125.7140598143
 10
95.6381040823
 20
125.7470308637
 10
95.5608198513
 20
125.7683468283
 10
95.416712576
 20
125.7764268005
 10
95.2164700336
 20
125.7706715258
 10
94.9749432976
 20
125.7515078465
 10
94.7100453009
 20
125.7203570451
 10
94.4414223163
 20
125.6795294341
 10
94.1889968816
 20
125.6320530104
 10
93.9714902365
 20
125.5814488834
 10
93.8050338539
 20
125.5314701296
 10
93.7019730422
 20
125.4858234445
 10
93.6699513503
 20
125.447894234
  0
LINE
  5
1F9
330
1F
100
AcDbEntity
  8
0
  6
Continuous
 62
     7
370
    25
100
AcDbLine
 10
93.3328910474
 20
125.8207829332
 30
0.0
 11
93.2483385786
 21
126.4102450273
 31
0.0
  0
LWPOLYLINE
  5
1FA
330
1F
100
AcDbEntity
  8
0
  6
Continuous
 62
     7
370
    25
100
AcDbPolyline
 90
       15
 70
   128
 43
0.0
 10
93.2483385786
 20
126.4102450273
 10
93.7389401279
 20
126.4988496759
 10
94.2465668893
 20
126.5809500924
 10
94.7608850459
 20
126.654874949
 10
95.2714245632
 20
126.7191193488
 10
95.767792329
 20
126.7723754611
 10
96.2398837268
 20
126.8135591451
 10
96.6780883373
 20
126.8418320196
 10
97.0734855782
 20
126.8566185306
 10
97.418026302
 20
126.8576176672
 10
97.7046966531
 20
126.84480909
 10
97.9276608498
 20
126.8184535446
 10
98.0823799841
 20
126.7790875539
 10
98.1657044205
 20
126.727512496
 10
98.1801643851
 20
126.6964296943
  0
LINE
  5
1FB
330
1F
100
AcDbEntity
  8
0
  6
Continuous
 62
     7
370
    25
100
AcDbLine
 10
85.6388810936
 20
124.3539735874
 30
0.0
 11
85.5543286249
 21
124.9434356815
 31
0.0
  0
LINE
  5
1FC
330
1F
100
AcDbEntity
  8
0
  6
Continuous
 62
     7
370
    25
100
AcDbLine
 10
93.2483385786
 20
126.4102450273
 30
0.0
 11
85.5543286249
 21
124.9434356815
 31
0.0
  0
LINE
  5
1FD
330
1F
100
AcDbEntity
  8
0
  6
Continuous
 62
     7
370
    25
100
AcDbLine
 10
85.1147213768
 20
128.8515922491
 30
0.0
 11
84.9906454999
 21
128.8731829749
 31
0.0
  0
LINE
  5
1FE
330
1F
100
AcDbEntity
  8
0
  6
Continuous
 62
     7
370
    25
100
AcDbLine
 10
92.6846554537
 20
130.3399923207
 30
0.0
 11
84.9906454999
 21
128.8731829749
 31
0.0
  0
LWPOLYLINE
  5
1FF
330
1F
100
AcDbEntity
  8
0
  6
Continuous
 62
     7
370
    25
100
AcDbPolyline
 90
       23
 70
   128
 43
0.0
 10
95.338513165
 20
129.8781884998
 10
95.8021022693
 20
129.9714936455
 10
96.2292415913
 20
130.0675998645
 10
96.6112358063
 20
130.1645507114
 10
96.9403086136
 20
130.2603725465
 10
97.2097610398
 20
130.3531147135
 10
97.4141078105
 20
130.4408892495
 10
97.5491890148
 20
130.5219093179
 10
97.6122547889
 20
130.5945255838
 10
97.6020212956
 20
130.6572597894
 10
97.5186968591
 20
130.7088348473
 10
97.3639777248
 20
130.748200838
 10
97.1410135281
 20
130.7745563834
 10
96.8543431771
 20
130.7873649607
 10
96.5098024533
 20
130.786365824
 10
96.1144052123
 20
130.7715793131
 10
95.6762006019
 20
130.7433064385
 10
95.204109204
 20
130.7021227546
 10
94.7077414383
 20
130.6488666423
 10
94.1972019209
 20
130.5846222425
 10
93.6828837643
 20
130.5106973858
 10
93.1752570029
 20
130.4285969694
 10
92.6846554537
 20
130.3399923207
  0
LINE
  5
200
330
1F
100
AcDbEntity
  8
0
  6
Continuous
 62
     7
370
    25
100
AcDbLine
 10
95.338513165
 20
129.8781884998
 30
0.0
 11
89.5799037702
 21
128.7803497746
 31
0.0
  0
LWPOLYLINE
  5
201
330
1F
100
AcDbEntity
  8
0
  6
Continuous
 62
     7
370
    25
100
AcDbPolyline
 90
       24
 70
   128
 43
0.0
 10
93.0217157565
 20
129.9671036214
 10
93.0631080868
 20
129.9397049215
 10
93.1748445596
 20
129.9248687683
 10
93.3486381917
 20
129.9236954916
 10
93.5715995046
 20
129.9362721079
 10
93.8271924777
 20
129.9616658671
 10
94.0964609493
 20
129.9979934302
 10
94.3594345089
 20
130.0425605481
 10
94.5966096105
 20
130.0920618815
 10
94.7903960618
 20
130.142826143
 10
94.9264216083
 20
130.1910883795
 10
94.9945978574
 20
130.2332692018
 10
94.9898684886
 20
130.2662402512
 10
94.9125842576
 20
130.2875562158
 10
94.7684769822
 20
130.295636188
 10
94.5682344399
 20
130.2898809133
 10
94.3267077039
 20
130.270717234
 10
94.0618097072
 20
130.2395664326
 10
93.7931867226
 20
130.1987388215
 10
93.5407612879
 20
130.1512623979
 10
93.3232546428
 20
130.1006582709
 10
93.1567982602
 20
130.050679517
 10
93.0537374485
 20
130.005032832
 10
93.0217157565
 20
129.9671036214
  0
LINE
  5
202
330
1F
100
AcDbEntity
  8
0
  6
Continuous
 62
     7
370
    25
100
AcDbLine
 10
92.6846554537
 20
130.3399923207
 30
0.0
 11
92.6001029849
 21
130.9294544147
 31
0.0
  0
LWPOLYLINE
  5
203
330
1F
100
AcDbEntity
  8
0
  6
Continuous
 62
     7
370
    25
100
AcDbPolyline
 90
       15
 70
   128
 43
0.0
 10
92.6001029849
 20
130.9294544147
 10
93.0907045341
 20
131.0180590634
 10
93.5983312956
 20
131.1001594799
 10
94.1126494522
 20
131.1740843365
 10
94.6231889695
 20
131.2383287363
 10
95.1195567353
 20
131.2915848486
 10
95.5916481331
 20
131.3327685326
 10
96.0298527436
 20
131.3610414071
 10
96.4252499845
 20
131.3758279181
 10
96.7697907083
 20
131.3768270547
 10
97.0564610594
 20
131.3640184774
 10
97.2794252561
 20
131.337662932
 10
97.4341443904
 20
131.2982969414
 10
97.5174688268
 20
131.2467218835
 10
97.5319287914
 20
131.2156390818
  0
LINE
  5
204
330
1F
100
AcDbEntity
  8
0
  6
Continuous
 62
     7
370
    25
100
AcDbLine
 10
84.9906454999
 20
128.8731829749
 30
0.0
 11
84.9060930311
 21
129.4626450689
 31
0.0
  0
LINE
  5
205
330
1F
100
AcDbEntity
  8
0
  6
Continuous
 62
     7
370
    25
100
AcDbLine
 10
92.6001029849
 20
130.9294544147
 30
0.0
 11
84.9060930311
 21
129.4626450689
 31
0.0
  0
LWPOLYLINE
  5
206
330
1F
100
AcDbEntity
  8
0
  6
Continuous
 62
     7
370
    25
100
AcDbPolyline
 90
       23
 70
   128
 43
0.0
 10
96.9378397287
 20
173.286407299
 10
96.8934657108
 20
173.3441155473
 10
96.7799204571
 20
173.390167606
 10
96.599740381
 20
173.423534748
 10
96.3569504076
 20
173.4434716067
 10
96.0569740636
 20
173.4495328254
 10
95.706512325
 20
173.4415830067
 10
95.3133939279
 20
173.4197997363
 10
94.8864004875
 20
173.3846696164
 10
94.4350703319
 20
173.336977396
 10
93.9694854309
 20
173.2777884404
 10
93.5000461818
 20
173.208424933
 10
93.0372390817
 20
173.13043634
 10
92.5914024764
 20
173.0455647977
 10
92.1724956191
 20
172.9557061962
 10
91.7898761966
 20
172.862867828
 10
91.4520912947
 20
172.7691235489
 10
91.1666864698
 20
172.6765674512
 10
90.9400371941
 20
172.5872670852
 10
90.7772064379
 20
172.5032172734
 10
90.6818315713
 20
172.4262955499
 10
90.6560431111
 20
172.3582202187
 10
90.6560431111
 20
172.3582202187
  0
LWPOLYLINE
  5
207
330
1F
100
AcDbEntity
  8
0
  6
Continuous
 62
     7
370
    25
100
AcDbPolyline
 90
       23
 70
   128
 43
0.0
 10
96.5033016076
 20
176.2272800578
 10
96.4589275897
 20
176.2849883062
 10
96.345382336
 20
176.3310403648
 10
96.1652022599
 20
176.3644075069
 10
95.9224122865
 20
176.3843443655
 10
95.6224359425
 20
176.3904055843
 10
95.2719742039
 20
176.3824557656
 10
94.8788558067
 20
176.3606724951
 10
94.4518623664
 20
176.3255423753
 10
94.0005322108
 20
176.2778501549
 10
93.5349473098
 20
176.2186611992
 10
93.0655080607
 20
176.1492976919
 10
92.6027009606
 20
176.0713090989
 10
92.1568643553
 20
175.9864375566
 10
91.737957498
 20
175.896578955
 10
91.3553380755
 20
175.8037405868
 10
91.0175531736
 20
175.7099963077
 10
90.7321483487
 20
175.6174402101
 10
90.505499073
 20
175.528139844
 10
90.3426683168
 20
175.4440900323
 10
90.2472934502
 20
175.3671683088
 10
90.22150499
 20
175.2990929776
 10
90.22150499
 20
175.2990929776
  0
LWPOLYLINE
  5
208
330
1F
100
AcDbEntity
  8
0
  6
Continuous
 62
     7
370
    25
100
AcDbPolyline
 90
       23
 70
   128
 43
0.0
 10
96.9378397287
 20
173.286407299
 10
96.8934657108
 20
173.3441155473
 10
96.7799204571
 20
173.390167606
 10
96.599740381
 20
173.423534748
 10
96.3569504076
 20
173.4434716067
 10
96.0569740636
 20
173.4495328254
 10
95.706512325
 20
173.4415830067
 10
95.3133939279
 20
173.4197997363
 10
94.8864004875
 20
173.3846696164
 10
94.4350703319
 20
173.336977396
 10
93.9694854309
 20
173.2777884404
 10
93.5000461818
 20
173.208424933
 10
93.0372390817
 20
173.13043634
 10
92.5914024764
 20
173.0455647977
 10
92.1724956191
 20
172.9557061962
 10
91.7898761966
 20
172.862867828
 10
91.4520912947
 20
172.7691235489
 10
91.1666864698
 20
172.6765674512
 10
90.9400371941
 20
172.5872670852
 10
90.7772064379
 20
172.5032172734
 10
90.6818315713
 20
172.4262955499
 10
90.6560431111
 20
172.3582202187
 10
90.6560431111
 20
172.3582202187
  0
LWPOLYLINE
  5
209
330
1F
100
AcDbEntity
  8
0
  6
Continuous
 62
     7
370
    25
100
AcDbPolyline
 90
       43
 70
   128
 43
0.0
 10
91.5251193533
 20
166.476474701
 10
91.5694933712
 20
166.4187664527
 10
91.6830386249
 20
166.372714394
 10
91.863218701
 20
166.3393472519
 10
92.1060086744
 20
166.3194103933
 10
92.4059850184
 20
166.3133491745
 10
92.756446757
 20
166.3212989933
 10
93.1495651541
 20
166.3430822637
 10
93.5765585945
 20
166.3782123835
 10
94.0278887501
 20
166.425904604
 10
94.4934736511
 20
166.4850935596
 10
94.9629129002
 20
166.554457067
 10
95.4257200003
 20
166.63244566
 10
95.8715566056
 20
166.7173172022
 10
96.2904634629
 20
166.8071758038
 10
96.6730828854
 20
166.900014172
 10
97.0108677873
 20
166.9937584511
 10
97.2962726122
 20
167.0863145488
 10
97.5229218879
 20
167.1756149148
 10
97.6857526441
 20
167.2596647265
 10
97.7811275107
 20
167.3365864501
 10
97.8069159709
 20
167.4046617812
 10
97.762541953
 20
167.4623700296
 10
97.6489966993
 20
167.5084220882
 10
97.4688166232
 20
167.5417892303
 10
97.2260266498
 20
167.561726089
 10
96.9260503058
 20
167.5677873077
 10
96.5755885672
 20
167.559837489
 10
96.1824701701
 20
167.5380542186
 10
95.7554767297
 20
167.5029240987
 10
95.3041465741
 20
167.4552318783
 10
94.8385616731
 20
167.3960429226
 10
94.369122424
 20
167.3266794153
 10
93.9063153239
 20
167.2486908223
 10
93.4604787186
 20
167.16381928
 10
93.0415718613
 20
167.0739606784
 10
92.6589524388
 20
166.9811223102
 10
92.3211675369
 20
166.8873780312
 10
92.035762712
 20
166.7948219335
 10
91.8091134363
 20
166.7055215674
 10
91.6462826801
 20
166.6214717557
 10
91.5509078135
 20
166.5445500322
 10
91.5251193533
 20
166.476474701
  0
LWPOLYLINE
  5
20A
330
1F
100
AcDbEntity
  8
0
  6
Continuous
 62
     7
370
    25
100
AcDbPolyline
 90
       22
 70
   128
 43
0.0
 10
93.8746102142
 20
166.8236312861
 10
93.9144008968
 20
166.7974869568
 10
94.0209760274
 20
166.7840560275
 10
94.184865938
 20
166.7845318952
 10
94.3915082907
 20
166.798872277
 10
94.6225420058
 20
166.825802967
 10
94.8574387237
 20
166.8629310553
 10
95.0753268403
 20
166.9069575483
 10
95.2568460401
 20
166.9539704988
 10
95.3858675458
 20
166.9997925999
 10
95.4509272303
 20
167.0403523568
 10
95.4462442551
 20
167.0720458571
 10
95.3722347232
 20
167.0920569943
 10
95.2354747062
 20
167.098607691
 10
95.0481159318
 20
167.091115889
 10
94.8268060494
 20
167.0702472678
 10
94.5912094131
 20
167.037856096
 10
94.3622598181
 20
166.9968204714
 10
94.1603004405
 20
166.9507865893
 10
94.0032762573
 20
166.903844762
 10
93.9051395564
 20
166.8601659771
 10
93.8746102142
 20
166.8236312861
  0
LWPOLYLINE
  5
20B
330
1F
100
AcDbEntity
  8
0
  6
Continuous
 62
     7
370
    25
100
AcDbPolyline
 90
       43
 70
   128
 43
0.0
 10
110.3601387627
 20
82.4467969787
 10
110.3343503025
 20
82.3787216476
 10
110.2389754358
 20
82.301799924
 10
110.0761446797
 20
82.2177501123
 10
109.849495404
 20
82.1284497463
 10
109.5640905791
 20
82.0358936486
 10
109.2263056772
 20
81.9421493695
 10
108.8436862547
 20
81.8493110013
 10
108.4247793974
 20
81.7594523997
 10
107.9789427921
 20
81.6745808574
 10
107.516135692
 20
81.5965922645
 10
107.0466964429
 20
81.5272287571
 10
106.5811115419
 20
81.4680398015
 10
106.1297813863
 20
81.420347581
 10
105.7027879459
 20
81.3852174612
 10
105.3096695488
 20
81.3634341908
 10
104.9592078102
 20
81.355484372
 10
104.6592314662
 20
81.3615455908
 10
104.4164414928
 20
81.3814824494
 10
104.2362614166
 20
81.4148495915
 10
104.122716163
 20
81.4609016501
 10
104.0783421451
 20
81.5186098985
 10
104.1041306053
 20
81.5866852297
 10
104.1995054719
 20
81.6636069532
 10
104.3623362281
 20
81.7476567649
 10
104.5889855038
 20
81.8369571309
 10
104.8743903287
 20
81.9295132286
 10
105.2121752306
 20
82.0232575077
 10
105.5947946531
 20
82.1160958759
 10
106.0137015104
 20
82.2059544775
 10
106.4595381156
 20
82.2908260198
 10
106.9223452157
 20
82.3688146128
 10
107.3917844649
 20
82.4381781201
 10
107.8573693659
 20
82.4973670758
 10
108.3086995215
 20
82.5450592962
 10
108.7356929618
 20
82.580189416
 10
109.128811359
 20
82.6019726865
 10
109.4792730976
 20
82.6099225052
 10
109.7792494415
 20
82.6038612864
 10
110.022039415
 20
82.5839244278
 10
110.2022194911
 20
82.5505572857
 10
110.3157647448
 20
82.5045052271
 10
110.3601387627
 20
82.4467969787
  0
LWPOLYLINE
  5
20C
330
1F
100
AcDbEntity
  8
0
  6
Continuous
 62
     7
370
    25
100
AcDbPolyline
 90
       23
 70
   128
 43
0.0
 10
103.643804024
 20
84.4594826574
 10
103.6695924842
 20
84.5275579885
 10
103.7649673508
 20
84.6044797121
 10
103.927798107
 20
84.6885295238
 10
104.1544473827
 20
84.7778298898
 10
104.4398522076
 20
84.8703859875
 10
104.7776371095
 20
84.9641302666
 10
105.160256532
 20
85.0569686348
 10
105.5791633893
 20
85.1468272364
 10
106.0249999945
 20
85.2316987786
 10
106.4878070946
 20
85.3096873716
 10
106.9572463438
 20
85.379050879
 10
107.4228312448
 20
85.4382398346
 10
107.8741614004
 20
85.4859320551
 10
108.3011548407
 20
85.5210621749
 10
108.6942732379
 20
85.5428454453
 10
109.0447349765
 20
85.5507952641
 10
109.3447113204
 20
85.5447340453
 10
109.5875012939
 20
85.5247971867
 10
109.76768137
 20
85.4914300446
 10
109.8812266237
 20
85.4453779859
 10
109.9256006415
 20
85.3876697376
 10
109.9256006415
 20
85.3876697376
  0
LWPOLYLINE
  5
20D
330
1F
100
AcDbEntity
  8
0
  6
Continuous
 62
     7
370
    25
100
AcDbPolyline
 90
       22
 70
   128
 43
0.0
 10
108.0106479018
 20
82.0996403936
 10
107.9801185596
 20
82.0631057027
 10
107.8819818586
 20
82.0194269177
 10
107.7249576755
 20
81.9724850905
 10
107.5229982979
 20
81.9264512083
 10
107.2940487029
 20
81.8854155837
 10
107.0584520666
 20
81.8530244119
 10
106.8371421842
 20
81.8321557908
 10
106.6497834098
 20
81.8246639888
 10
106.5130233928
 20
81.8312146854
 10
106.4390138609
 20
81.8512258226
 10
106.4343308857
 20
81.882919323
 10
106.4993905702
 20
81.9234790799
 10
106.6284120759
 20
81.969301181
 10
106.8099312757
 20
82.0163141315
 10
107.0278193923
 20
82.0603406244
 10
107.2627161102
 20
82.0974687127
 10
107.4937498253
 20
82.1243994027
 10
107.700392178
 20
82.1387397845
 10
107.8642820886
 20
82.1392156522
 10
107.9708572192
 20
82.1257847229
 10
108.0106479018
 20
82.0996403936
  0
LWPOLYLINE
  5
20E
330
1F
100
AcDbEntity
  8
0
  6
Continuous
 62
     7
370
    25
100
AcDbPolyline
 90
       23
 70
   128
 43
0.0
 10
103.643804024
 20
84.4594826574
 10
103.6695924842
 20
84.5275579885
 10
103.7649673508
 20
84.6044797121
 10
103.927798107
 20
84.6885295238
 10
104.1544473827
 20
84.7778298898
 10
104.4398522076
 20
84.8703859875
 10
104.7776371095
 20
84.9641302666
 10
105.160256532
 20
85.0569686348
 10
105.5791633893
 20
85.1468272364
 10
106.0249999945
 20
85.2316987786
 10
106.4878070946
 20
85.3096873716
 10
106.9572463438
 20
85.379050879
 10
107.4228312448
 20
85.4382398346
 10
107.8741614004
 20
85.4859320551
 10
108.3011548407
 20
85.5210621749
 10
108.6942732379
 20
85.5428454453
 10
109.0447349765
 20
85.5507952641
 10
109.3447113204
 20
85.5447340453
 10
109.5875012939
 20
85.5247971867
 10
109.76768137
 20
85.4914300446
 10
109.8812266237
 20
85.4453779859
 10
109.9256006415
 20
85.3876697376
 10
109.9256006415
 20
85.3876697376
  0
LWPOLYLINE
  5
20F
330
1F
100
AcDbEntity
  8
0
  6
Continuous
 62
     7
370
    25
100
AcDbPolyline
 90
       23
 70
   128
 43
0.0
 10
102.6298817414
 20
91.3215190947
 10
102.6556702016
 20
91.3895944259
 10
102.7510450682
 20
91.4665161494
 10
102.9138758244
 20
91.5505659611
 10
103.1405251001
 20
91.6398663272
 10
103.425929925
 20
91.7324224249
 10
103.7637148269
 20
91.8261667039
 10
104.1463342494
 20
91.9190050721
 10
104.5652411067
 20
92.0088636737
 10
105.011077712
 20
92.093735216
 10
105.4738848121
 20
92.171723809
 10
105.9433240612
 20
92.2410873163
 10
106.4089089622
 20
92.300276272
 10
106.8602391178
 20
92.3479684924
 10
107.2872325582
 20
92.3830986123
 10
107.6803509553
 20
92.4048818827
 10
108.0308126939
 20
92.4128317014
 10
108.3307890379
 20
92.4067704827
 10
108.5735790113
 20
92.386833624
 10
108.7537590874
 20
92.3534664819
 10
108.8673043411
 20
92.3074144233
 10
108.911678359
 20
92.2497061749
 10
108.911678359
 20
92.2497061749
  0
CIRCLE
  5
210
330
1F
100
AcDbEntity
  8
0
  6
Continuous
 62
     7
370
    25
100
AcDbCircle
 10
82.2603240462
 20
125.9785600006
 30
0.0
 40
1.0
  0
LWPOLYLINE
  5
211
330
1F
100
AcDbEntity
  8
0
  6
Continuous
 62
     7
370
    25
100
AcDbPolyline
 90
        3
 70
   128
 43
0.0
 10
82.2603240462
 20
129.1535600006
 10
82.7335332413
 20
129.1180978739
 10
82.9876507182
 20
129.069129675
  0
ARC
  5
212
330
1F
100
AcDbEntity
  8
0
  6
Continuous
 62
     7
370
    25
100
AcDbCircle
 10
82.2603240462
 20
125.9785600006
 30
0.0
 40
3.175
100
AcDbArc
 50
90.0
 51
299.5685294108
  0
LINE
  5
213
330
1F
100
AcDbEntity
  8
0
  6
Continuous
 62
     7
370
    25
100
AcDbLine
 10
83.3198572599
 20
122.985565786
 30
0.0
 11
84.0310538235
 21
121.7949886769
 31
0.0
  0
LINE
  5
214
330
1F
100
AcDbEntity
  8
0
  6
Continuous
 62
     7
370
    25
100
AcDbLine
 10
86.4855157813
 20
117.6861018076
 30
0.0
 11
102.7598168861
 21
90.4421423295
 31
0.0
  0
LINE
  5
215
330
1F
100
AcDbEntity
  8
0
  6
Continuous
 62
     7
370
    25
100
AcDbLine
 10
78.5149734483
 20
125.3469139985
 30
0.0
 11
79.118361471
 21
125.5217272349
 31
0.0
  0
LINE
  5
216
330
1F
100
AcDbEntity
  8
0
  6
Continuous
 62
     7
370
    25
100
AcDbLine
 10
78.5149734483
 20
125.3469139985
 30
0.0
 11
103.8753487676
 21
82.892431124
 31
0.0
  0
LINE
  5
217
330
1F
100
AcDbEntity
  8
0
  6
Continuous
 62
     7
370
    25
100
AcDbLine
 10
91.1190966518
 20
118.0497836243
 30
0.0
 11
106.4948023786
 21
92.3101158455
 31
0.0
  0
LINE
  5
218
330
1F
100
AcDbEntity
  8
0
  6
Continuous
 62
     7
370
    25
100
AcDbLine
 10
90.4448557513
 20
173.7874967849
 30
0.0
 11
78.5149734483
 21
125.3469139985
 31
0.0
  0
LINE
  5
219
330
1F
100
AcDbEntity
  8
0
  6
Continuous
 62
     7
370
    25
100
AcDbLine
 10
91.4524760313
 20
166.9681111223
 30
0.0
 11
83.846468103
 21
136.0843649656
 31
0.0
  0
LINE
  5
21A
330
1F
100
AcDbEntity
  8
0
  6
Continuous
 62
     7
370
    25
100
AcDbLine
 10
82.6678483577
 20
131.2986490717
 30
0.0
 11
82.1389874649
 21
129.1512406392
 31
0.0
  0
LINE
  5
21B
330
1F
100
AcDbEntity
  8
0
  6
Continuous
 62
     7
370
    25
100
AcDbLine
 10
95.8836317799
 20
166.7197611643
 30
0.0
 11
88.4610221806
 21
136.5806930951
 31
0.0
  0
LINE
  5
21C
330
1F
100
AcDbEntity
  8
0
  6
Continuous
 62
     7
370
    25
100
AcDbLine
 10
86.7736868605
 20
114.6186365393
 30
0.0
 11
83.3005880063
 21
138.8315324333
 31
0.0
  0
LINE
  5
21D
330
1F
100
AcDbEntity
  8
0
  6
Continuous
 62
     7
370
    25
100
AcDbLine
 10
86.7736868605
 20
114.6186365393
 30
0.0
 11
84.6442002091
 21
117.5204055957
 31
0.0
  0
LINE
  5
21E
330
1F
100
AcDbEntity
  8
0
  6
Continuous
 62
     7
370
    25
100
AcDbLine
 10
84.6442002091
 20
117.5204055957
 30
0.0
 11
82.1025001622
 21
135.240004494
 31
0.0
  0
LINE
  5
21F
330
1F
100
AcDbEntity
  8
0
  6
Continuous
 62
     7
370
    25
100
AcDbLine
 10
82.1025001622
 20
135.240004494
 30
0.0
 11
83.3005880063
 21
138.8315324333
 31
0.0
  0
LINE
  5
220
330
1F
100
AcDbEntity
  8
0
  6
Continuous
 62
     7
370
    25
100
AcDbLine
 10
83.3005880063
 20
138.8315324333
 30
0.0
 11
83.846468103
 21
136.0843649656
 31
0.0
  0
LINE
  5
221
330
1F
100
AcDbEntity
  8
0
  6
Continuous
 62
     7
370
    25
100
AcDbLine
 10
83.846468103
 20
136.0843649656
 30
0.0
 11
88.4121301126
 21
136.9215467828
 31
0.0
  0
LINE
  5
222
330
1F
100
AcDbEntity
  8
0
  6
Continuous
 62
     7
370
    25
100
AcDbLine
 10
91.1644240662
 20
117.7337811114
 30
0.0
 11
90.1552290013
 21
124.7694389108
 31
0.0
  0
LINE
  5
223
330
1F
100
AcDbEntity
  8
0
  6
Continuous
 62
     7
370
    25
100
AcDbLine
 10
90.0084686771
 20
125.7925864228
 30
0.0
 11
89.5069934076
 21
129.2886482983
 31
0.0
  0
LINE
  5
224
330
1F
100
AcDbEntity
  8
0
  6
Continuous
 62
     7
370
    25
100
AcDbLine
 10
89.3602330834
 20
130.3117958103
 30
0.0
 11
88.4121301126
 21
136.9215467828
 31
0.0
  0
LINE
  5
225
330
1F
100
AcDbEntity
  8
0
  6
Continuous
 62
     7
370
    25
100
AcDbLine
 10
91.1644240662
 20
117.7337811114
 30
0.0
 11
86.4855157813
 21
117.6861018076
 31
0.0
  0
LINE
  5
226
330
1F
100
AcDbEntity
  8
0
  6
Continuous
 62
     7
370
    25
100
AcDbLine
 10
86.4855157813
 20
117.6861018076
 30
0.0
 11
86.7736868605
 21
114.6186365393
 31
0.0
  0
INSERT
  5
232
330
1F
100
AcDbEntity
  8
0
  6
Continuous
 62
     7
370
     0
100
AcDbBlockReference
  2
SW_CENTERMARKSYMBOL_0
 10
82.2603240462
 20
125.9785600006
 30
0.0
  0
LINE
  5
233
330
1F
100
AcDbEntity
  8
0
  6
Continuous
 62
     7
100
AcDbLine
 10
289.838006875
 20
263.4433468794
 30
0.0
 11
289.2457472533
 21
261.0291480043
 31
0.0
  0
LINE
  5
234
330
1F
100
AcDbEntity
  8
0
  6
CENTERX2
 62
     7
100
AcDbLine
 10
265.3195270226
 20
192.5575523007
 30
0.0
 11
335.0531067531
 21
205.7538735233
 31
0.0
  0
LINE
  5
235
330
1F
100
AcDbEntity
  8
0
  6
CENTERX2
 62
     7
100
AcDbLine
 10
335.0531067531
 20
205.7538735233
 30
0.0
 11
283.7057597948
 21
262.354325514
 31
0.0
  0
LINE
  5
236
330
1F
100
AcDbEntity
  8
0
  6
CENTERX2
 62
     7
100
AcDbLine
 10
330.810466066
 20
208.2030978588
 30
0.0
 11
265.3195270226
 21
192.5575523007
 31
0.0
  0
LINE
  5
237
330
1F
100
AcDbEntity
  8
0
  6
CENTERX2
 62
     7
100
AcDbLine
 10
330.810466066
 20
208.2030978588
 30
0.0
 11
283.7057597948
 21
262.354325514
 31
0.0
  0
LINE
  5
238
330
1F
100
AcDbEntity
  8
0
  6
Continuous
 62
     7
100
AcDbLine
 10
265.3195270226
 20
192.5575523007
 30
0.0
 11
265.3195270226
 21
186.8417666175
 31
0.0
  0
LINE
  5
239
330
1F
100
AcDbEntity
  8
0
  6
Continuous
 62
     7
100
AcDbLine
 10
283.7057597948
 20
262.354325514
 30
0.0
 11
283.7057597948
 21
268.0701111972
 31
0.0
  0
LINE
  5
23A
330
1F
100
AcDbEntity
  8
0
  6
CENTERX2
 62
     7
100
AcDbLine
 10
265.3195270226
 20
186.8417666175
 30
0.0
 11
330.810466066
 21
208.2030978588
 31
0.0
  0
LINE
  5
23B
330
1F
100
AcDbEntity
  8
0
  6
CENTERX2
 62
     7
100
AcDbLine
 10
330.810466066
 20
208.2030978588
 30
0.0
 11
283.7057597948
 21
268.0701111972
 31
0.0
  0
LINE
  5
23C
330
1F
100
AcDbEntity
  8
0
  6
CENTERX2
 62
     7
100
AcDbLine
 10
289.2457472533
 20
261.0291480043
 30
0.0
 11
271.5439024839
 21
188.8719855751
 31
0.0
  0
LINE
  5
23D
330
1F
100
AcDbEntity
  8
0
  6
Continuous
 62
     7
100
AcDbLine
 10
330.810466066
 20
208.2030978588
 30
0.0
 11
280.3948248686
 21
224.9505667897
 31
0.0
  0
LINE
  5
23E
330
1F
100
AcDbEntity
  8
0
  6
Continuous
 62
     7
100
AcDbLine
 10
270.9516428621
 20
186.4577867
 30
0.0
 11
271.5439024839
 21
188.8719855751
 31
0.0
  0
LINE
  5
23F
330
1F
100
AcDbEntity
  8
0
  6
Continuous
 62
     7
100
AcDbLine
 10
289.2457472533
 20
261.0291480043
 30
0.0
 11
288.0612280097
 21
256.2007502541
 31
0.0
  0
LINE
  5
240
330
1F
100
AcDbEntity
  8
0
  6
Continuous
 62
     7
100
AcDbLine
 10
271.5439024839
 20
188.8719855751
 30
0.0
 11
272.9258416014
 21
194.5051162837
 31
0.0
  0
LINE
  5
241
330
1F
100
AcDbEntity
  8
0
  6
Continuous
 62
     7
100
AcDbLine
 10
271.5439024839
 20
188.8719855751
 30
0.0
 11
330.810466066
 21
208.2030978588
 31
0.0
  0
LINE
  5
242
330
1F
100
AcDbEntity
  8
0
  6
Continuous
 62
     7
100
AcDbLine
 10
330.810466066
 20
208.2030978588
 30
0.0
 11
289.2457472533
 21
261.0291480043
 31
0.0
  0
LINE
  5
243
330
1F
100
AcDbEntity
  8
0
  6
Continuous
 62
     7
100
AcDbLine
 10
320.6877614073
 20
221.0683961017
 30
0.0
 11
316.670624578
 21
203.5910730178
 31
0.0
  0
LINE
  5
244
330
1F
100
AcDbEntity
  8
0
  6
Continuous
 62
     7
100
AcDbLine
 10
318.6585275315
 20
212.2398255136
 30
0.0
 11
217.1072893966
 21
203.2414589001
 31
0.0
  0
LINE
  5
245
330
1F
100
AcDbEntity
  8
0
  6
Continuous
 62
     7
100
AcDbLine
 10
330.810466066
 20
208.2030978588
 30
0.0
 11
333.6388931907
 21
206.5702816351
 31
0.0
  0
LINE
  5
246
330
1F
100
AcDbEntity
  8
0
  6
Continuous
 62
     7
100
AcDbLine
 10
330.810466066
 20
208.2030978588
 30
0.0
 11
323.7393982541
 21
212.2851384179
 31
0.0
  0
POINT
  5
247
330
1F
100
AcDbEntity
  8
0
  6
Continuous
 62
     7
100
AcDbPoint
 10
283.7057597948
 20
262.354325514
 30
0.0
  0
POINT
  5
248
330
1F
100
AcDbEntity
  8
0
  6
Continuous
 62
     7
100
AcDbPoint
 10
320.6877614073
 20
221.0683961017
 30
0.0
  0
POINT
  5
249
330
1F
100
AcDbEntity
  8
0
  6
Continuous
 62
     7
100
AcDbPoint
 10
316.670624578
 20
203.5910730178
 30
0.0
  0
POINT
  5
24A
330
1F
100
AcDbEntity
  8
0
  6
Continuous
 62
     7
100
AcDbPoint
 10
319.0307890974
 20
213.8594207465
 30
0.0
  0
POINT
  5
24B
330
1F
100
AcDbEntity
  8
0
  6
Continuous
 62
     7
100
AcDbPoint
 10
318.2862659656
 20
210.6202302807
 30
0.0
  0
POINT
  5
24C
330
1F
100
AcDbEntity
  8
0
  6
Continuous
 62
     7
100
AcDbPoint
 10
271.5439024839
 20
188.8719855751
 30
0.0
  0
POINT
  5
24D
330
1F
100
AcDbEntity
  8
0
  6
Continuous
 62
     7
100
AcDbPoint
 10
289.2457472533
 20
261.0291480043
 30
0.0
  0
POINT
  5
24E
330
1F
100
AcDbEntity
  8
0
  6
Continuous
 62
     7
100
AcDbPoint
 10
320.7282474958
 20
211.5522894638
 30
0.0
  0
POINT
  5
24F
330
1F
100
AcDbEntity
  8
0
  6
Continuous
 62
     7
100
AcDbPoint
 10
318.95808256
 20
204.3371784848
 30
0.0
  0
POINT
  5
250
330
1F
100
AcDbEntity
  8
0
  6
Continuous
 62
     7
100
AcDbPoint
 10
322.4974906437
 20
218.7683481253
 30
0.0
  0
POINT
  5
251
330
1F
100
AcDbEntity
  8
0
  6
Continuous
 62
     7
100
AcDbPoint
 10
289.2457472533
 20
261.0291480043
 30
0.0
  0
POINT
  5
252
330
1F
100
AcDbEntity
  8
0
  6
Continuous
 62
     7
100
AcDbPoint
 10
318.6585275315
 20
212.2398255136
 30
0.0
  0
POINT
  5
253
330
1F
100
AcDbEntity
  8
0
  6
Continuous
 62
     7
100
AcDbPoint
 10
271.5439024839
 20
188.8719855751
 30
0.0
  0
LINE
  5
254
330
1F
100
AcDbEntity
  8
0
  6
Continuous
 62
     7
370
    25
100
AcDbLine
 10
307.2261800997
 20
210.6947970261
 30
0.0
 11
307.11450163
 21
210.2089184562
 31
0.0
  0
LINE
  5
255
330
1F
100
AcDbEntity
  8
0
  6
Continuous
 62
     7
370
    25
100
AcDbLine
 10
308.0823817013
 20
214.4198660619
 30
0.0
 11
307.9707032315
 21
213.933987492
 31
0.0
  0
LINE
  5
256
330
1F
100
AcDbEntity
  8
0
  6
Continuous
 62
     7
370
    25
100
AcDbLine
 10
286.7544412991
 20
264.1998178564
 30
0.0
 11
286.1621816773
 21
261.7856189813
 31
0.0
  0
LINE
  5
257
330
1F
100
AcDbEntity
  8
0
  6
Continuous
 62
     7
370
    25
100
AcDbLine
 10
292.5171822363
 20
261.0384798857
 30
0.0
 11
292.921572451
 21
262.6868759024
 31
0.0
  0
LINE
  5
258
330
1F
100
AcDbEntity
  8
0
  6
Continuous
 62
     7
370
    25
100
AcDbLine
 10
286.1621816773
 20
261.7856189813
 30
0.0
 11
284.9776624338
 21
256.9572212311
 31
0.0
  0
LINE
  5
259
330
1F
100
AcDbEntity
  8
0
  6
Continuous
 62
     7
370
    25
100
AcDbLine
 10
274.035208438
 20
185.701315723
 30
0.0
 11
274.1821996438
 21
186.3004887723
 31
0.0
  0
LINE
  5
25A
330
1F
100
AcDbEntity
  8
0
  6
Continuous
 62
     7
370
    25
100
AcDbLine
 10
268.460336908
 20
189.6284565521
 30
0.0
 11
267.8680772862
 21
187.214257677
 31
0.0
  0
LINE
  5
25B
330
1F
100
AcDbEntity
  8
0
  6
Continuous
 62
     7
370
    25
100
AcDbLine
 10
275.8815074711
 20
193.2272940015
 30
0.0
 11
276.0094071773
 21
193.7486453067
 31
0.0
  0
LINE
  5
25C
330
1F
100
AcDbEntity
  8
0
  6
Continuous
 62
     7
370
    25
100
AcDbLine
 10
269.8422760255
 20
195.2615872607
 30
0.0
 11
268.460336908
 21
189.6284565521
 31
0.0
  0
LINE
  5
25D
330
1F
100
AcDbEntity
  8
0
  6
Continuous
 62
     7
370
    25
100
AcDbLine
 10
322.152027266
 20
209.5354332798
 30
0.0
 11
323.6438612661
 21
208.6742158431
 31
0.0
  0
LINE
  5
25E
330
1F
100
AcDbEntity
  8
0
  6
Continuous
 62
     7
370
    25
100
AcDbLine
 10
330.2613559896
 20
204.8540174545
 30
0.0
 11
332.0515222027
 21
203.8205764971
 31
0.0
  0
LINE
  5
25F
330
1F
100
AcDbEntity
  8
0
  6
Continuous
 62
     7
370
    25
100
AcDbLine
 10
335.2262641788
 20
209.3199867732
 30
0.0
 11
332.5812127696
 21
210.8469424496
 31
0.0
  0
LINE
  5
260
330
1F
100
AcDbEntity
  8
0
  6
Continuous
 62
     7
370
    25
100
AcDbLine
 10
319.6121059181
 20
208.6953043397
 30
0.0
 11
319.7329849444
 21
208.5198056508
 31
0.0
  0
LINE
  5
261
330
1F
100
AcDbEntity
  8
0
  6
Continuous
 62
     7
370
    25
100
AcDbLine
 10
312.2296973763
 20
207.7676189194
 30
0.0
 11
319.7329849444
 21
208.5198056508
 31
0.0
  0
LWPOLYLINE
  5
262
330
1F
100
AcDbEntity
  8
0
  6
Continuous
 62
     7
370
    25
100
AcDbPolyline
 90
       23
 70
   128
 43
0.0
 10
309.1168804295
 20
211.9653813578
 10
308.8706888008
 20
211.9222641522
 10
308.4589972613
 20
211.812536354
 10
308.0944615379
 20
211.6634474951
 10
307.7845025265
 20
211.4780325946
 10
307.5354300989
 20
211.2600661653
 10
307.3523146514
 20
211.013985375
 10
307.2388838864
 20
210.7447997191
 10
307.1974469273
 20
210.4579890412
 10
307.2288473109
 20
210.1593919797
 10
307.3324458161
 20
209.8550871096
 10
307.506133476
 20
209.5512692005
 10
307.7463745108
 20
209.2541231089
 10
308.0482783057
 20
208.9696978724
 10
308.4056989702
 20
208.7037835685
 10
308.8113604502
 20
208.4617934457
 10
309.2570046478
 20
208.248653725
 10
309.7335595323
 20
208.0687033164
 10
310.2313238205
 20
207.9256054914
 10
310.740164467
 20
207.822273309
 10
311.2497229435
 20
207.7608103145
 10
311.7496261089
 20
207.7424677172
 10
312.2296973763
 20
207.7676189194
  0
LWPOLYLINE
  5
263
330
1F
100
AcDbEntity
  8
0
  6
Continuous
 62
     7
370
    25
100
AcDbPolyline
 90
       24
 70
   128
 43
0.0
 10
310.0754835739
 20
209.5908776835
 10
310.2874691554
 20
209.4636730328
 10
310.5356442891
 20
209.3672718791
 10
310.8016029605
 20
209.308823855
 10
311.0656202318
 20
209.292663783
 10
311.3081151497
 20
209.3199901817
 10
311.5111029754
 20
209.3887763771
 10
311.6595290306
 20
209.4939208119
 10
311.7423852337
 20
209.6276254042
 10
311.7535265193
 20
209.7799738962
 10
311.692126589
 20
209.9396672971
 10
311.5627391949
 20
210.094861878
 10
311.3749604081
 20
210.2340475667
 10
311.1427169221
 20
210.3469015974
 10
310.8832331739
 20
210.425054103
 10
310.6157538861
 20
210.4627088696
 10
310.3601167736
 20
210.4570732155
 10
310.1352812718
 20
210.4085651113
 10
309.9579224013
 20
210.3207821812
 10
309.841194058
 20
210.2002348836
 10
309.7937534493
 20
210.0558636601
 10
309.819119028
 20
209.8983758638
 10
309.9154095453
 20
209.7394516441
 10
310.0754835739
 20
209.5908776835
  0
LINE
  5
264
330
1F
100
AcDbEntity
  8
0
  6
Continuous
 62
     7
370
    25
100
AcDbLine
 10
312.2296973763
 20
207.7676189194
 30
0.0
 11
312.1180189066
 21
207.2817403495
 31
0.0
  0
LWPOLYLINE
  5
265
330
1F
100
AcDbEntity
  8
0
  6
Continuous
 62
     7
370
    25
100
AcDbPolyline
 90
       16
 70
   128
 43
0.0
 10
312.1180189066
 20
207.2817403495
 10
311.6379476391
 20
207.2565891473
 10
311.1380444737
 20
207.2749317446
 10
310.6284859972
 20
207.3363947392
 10
310.1196453507
 20
207.4397269215
 10
309.6218810625
 20
207.5828247465
 10
309.145326178
 20
207.7627751551
 10
308.6996819804
 20
207.9759148758
 10
308.2940205004
 20
208.2179049986
 10
307.9365998359
 20
208.4838193025
 10
307.634696041
 20
208.768244539
 10
307.3944550062
 20
209.0653906306
 10
307.2207673463
 20
209.3692085397
 10
307.1171688411
 20
209.6735134098
 10
307.0857684575
 20
209.9721104714
 10
307.11450163
 20
210.2089184562
  0
LINE
  5
266
330
1F
100
AcDbEntity
  8
0
  6
Continuous
 62
     7
370
    25
100
AcDbLine
 10
319.7329849444
 20
208.5198056508
 30
0.0
 11
319.6213064746
 21
208.0339270809
 31
0.0
  0
LINE
  5
267
330
1F
100
AcDbEntity
  8
0
  6
Continuous
 62
     7
370
    25
100
AcDbLine
 10
312.1180189066
 20
207.2817403495
 30
0.0
 11
319.6213064746
 21
208.0339270809
 31
0.0
  0
LWPOLYLINE
  5
268
330
1F
100
AcDbEntity
  8
0
  6
Continuous
 62
     7
370
    25
100
AcDbPolyline
 90
        3
 70
   128
 43
0.0
 10
311.3636906364
 20
209.6812598141
 10
311.523764665
 20
209.5326858534
 10
311.5908957924
 20
209.4357997373
  0
ARC
  5
269
330
1F
100
AcDbEntity
  8
0
  6
Continuous
 62
     7
370
    25
100
AcDbCircle
 10
310.4792602171
 20
208.5204565688
 30
0.0
 40
1.459342777006018
100
AcDbArc
 50
52.6957738043
 51
115.6183115025
  0
LINE
  5
26A
330
1F
100
AcDbEntity
  8
0
  6
Continuous
 62
     7
370
    25
100
AcDbLine
 10
320.4683075197
 20
212.4203733754
 30
0.0
 11
320.5891865459
 21
212.2448746865
 31
0.0
  0
LINE
  5
26B
330
1F
100
AcDbEntity
  8
0
  6
Continuous
 62
     7
370
    25
100
AcDbLine
 10
313.0858989779
 20
211.4926879552
 30
0.0
 11
320.5891865459
 21
212.2448746865
 31
0.0
  0
LWPOLYLINE
  5
26C
330
1F
100
AcDbEntity
  8
0
  6
Continuous
 62
     7
370
    25
100
AcDbPolyline
 90
       23
 70
   128
 43
0.0
 10
310.1773569053
 20
215.7154661838
 10
309.7268904023
 20
215.6473331879
 10
309.3151988629
 20
215.5376053898
 10
308.9506631394
 20
215.3885165308
 10
308.6407041281
 20
215.2031016303
 10
308.3916317005
 20
214.985135201
 10
308.208516253
 20
214.7390544108
 10
308.095085488
 20
214.4698687549
 10
308.0536485288
 20
214.183058077
 10
308.0850489125
 20
213.8844610155
 10
308.1886474176
 20
213.5801561453
 10
308.3623350776
 20
213.2763382362
 10
308.6025761123
 20
212.9791921447
 10
308.9044799073
 20
212.6947669081
 10
309.2619005717
 20
212.4288526043
 10
309.6675620517
 20
212.1868624814
 10
310.1132062493
 20
211.9737227607
 10
310.5897611338
 20
211.7937723522
 10
311.0875254221
 20
211.6506745272
 10
311.5963660685
 20
211.5473423448
 10
312.105924545
 20
211.4858793503
 10
312.6058277104
 20
211.4675367529
 10
313.0858989779
 20
211.4926879552
  0
LINE
  5
26D
330
1F
100
AcDbEntity
  8
0
  6
Continuous
 62
     7
370
    25
100
AcDbLine
 10
310.1773569053
 20
215.7154661838
 30
0.0
 11
316.2958495077
 21
216.3288305137
 31
0.0
  0
LWPOLYLINE
  5
26E
330
1F
100
AcDbEntity
  8
0
  6
Continuous
 62
     7
370
    25
100
AcDbPolyline
 90
       24
 70
   128
 43
0.0
 10
310.9316851754
 20
213.3159467193
 10
311.143670757
 20
213.1887420686
 10
311.3918458906
 20
213.0923409149
 10
311.6578045621
 20
213.0338928907
 10
311.9218218334
 20
213.0177328187
 10
312.1643167512
 20
213.0450592174
 10
312.367304577
 20
213.1138454129
 10
312.5157306321
 20
213.2189898476
 10
312.5985868353
 20
213.35269444
 10
312.6097281208
 20
213.505042932
 10
312.5483281906
 20
213.6647363329
 10
312.4189407965
 20
213.8199309137
 10
312.2311620096
 20
213.9591166024
 10
311.9989185237
 20
214.0719706331
 10
311.7394347755
 20
214.1501231387
 10
311.4719554876
 20
214.1877779053
 10
311.2163183752
 20
214.1821422512
 10
310.9914828734
 20
214.133634147
 10
310.8141240028
 20
214.045851217
 10
310.6973956596
 20
213.9253039194
 10
310.6499550509
 20
213.7809326958
 10
310.6753206296
 20
213.6234448995
 10
310.7716111468
 20
213.4645206799
 10
310.9316851754
 20
213.3159467193
  0
LINE
  5
26F
330
1F
100
AcDbEntity
  8
0
  6
Continuous
 62
     7
370
    25
100
AcDbLine
 10
313.0858989779
 20
211.4926879552
 30
0.0
 11
312.9742205081
 21
211.0068093853
 31
0.0
  0
LWPOLYLINE
  5
270
330
1F
100
AcDbEntity
  8
0
  6
Continuous
 62
     7
370
    25
100
AcDbPolyline
 90
       16
 70
   128
 43
0.0
 10
312.9742205081
 20
211.0068093853
 10
312.4941492406
 20
210.9816581831
 10
311.9942460752
 20
211.0000007804
 10
311.4846875987
 20
211.0614637749
 10
310.9758469523
 20
211.1647959573
 10
310.4780826641
 20
211.3078937823
 10
310.0015277796
 20
211.4878441908
 10
309.555883582
 20
211.7009839116
 10
309.150222102
 20
211.9429740344
 10
308.7928014375
 20
212.2088883383
 10
308.4908976425
 20
212.4933135748
 10
308.2506566078
 20
212.7904596663
 10
308.0769689479
 20
213.0942775754
 10
307.9733704427
 20
213.3985824456
 10
307.9419700591
 20
213.6971795071
 10
307.9707032315
 20
213.933987492
  0
LINE
  5
271
330
1F
100
AcDbEntity
  8
0
  6
Continuous
 62
     7
370
    25
100
AcDbLine
 10
320.5891865459
 20
212.2448746865
 30
0.0
 11
320.4775080761
 21
211.7589961166
 31
0.0
  0
LINE
  5
272
330
1F
100
AcDbEntity
  8
0
  6
Continuous
 62
     7
370
    25
100
AcDbLine
 10
312.9742205081
 20
211.0068093853
 30
0.0
 11
320.4775080761
 21
211.7589961166
 31
0.0
  0
LWPOLYLINE
  5
273
330
1F
100
AcDbEntity
  8
0
  6
Continuous
 62
     7
370
    25
100
AcDbPolyline
 90
        3
 70
   128
 43
0.0
 10
312.219892238
 20
213.4063288498
 10
312.3799662666
 20
213.2577548892
 10
312.4470973939
 20
213.1608687731
  0
ARC
  5
274
330
1F
100
AcDbEntity
  8
0
  6
Continuous
 62
     7
370
    25
100
AcDbCircle
 10
311.3354618187
 20
212.2455256046
 30
0.0
 40
1.459342777006222
100
AcDbArc
 50
52.6957738043
 51
115.6183115025
  0
LWPOLYLINE
  5
275
330
1F
100
AcDbEntity
  8
0
  6
Continuous
 62
     7
370
    25
100
AcDbPolyline
 90
       43
 70
   128
 43
0.0
 10
292.0589573682
 20
264.3465229922
 10
292.3591561403
 20
264.0898734818
 10
292.6030366039
 20
263.8187816354
 10
292.7851508725
 20
263.539303197
 10
292.9014308141
 20
263.257681253
 10
292.9492789271
 20
262.9802067723
 10
292.9276263637
 20
262.7130780762
 10
292.8369568063
 20
262.4622623785
 10
292.6792956631
 20
262.2333624874
 10
292.4581648235
 20
262.0314916481
 10
292.178503985
 20
261.8611593217
 10
291.8465603086
 20
261.7261704508
 10
291.4697488675
 20
261.6295404638
 10
291.0564870067
 20
261.5734279149
 10
290.6160063132
 20
261.5590862657
 10
290.1581463979
 20
261.586835885
 10
289.6931350946
 20
261.6560568921
 10
289.2313599876
 20
261.7652030041
 10
288.7831363695
 20
261.9118360772
 10
288.3584768154
 20
262.0926805709
 10
287.966867518
 20
262.3036967181
 10
287.6170563819
 20
262.5401707666
 10
287.3168576098
 20
262.796820277
 10
287.0729771462
 20
263.0679121234
 10
286.8908628776
 20
263.3473905618
 10
286.774582936
 20
263.6290125059
 10
286.726734823
 20
263.9064869866
 10
286.7483873864
 20
264.1736156826
 10
286.8390569437
 20
264.4244313803
 10
286.996718087
 20
264.6533312715
 10
287.2178489266
 20
264.8552021107
 10
287.4975097651
 20
265.0255344372
 10
287.8294534415
 20
265.160523308
 10
288.2062648826
 20
265.257153295
 10
288.6195267434
 20
265.3132658439
 10
289.0600074369
 20
265.3276074931
 10
289.5178673522
 20
265.2998578738
 10
289.9828786555
 20
265.2306368667
 10
290.4446537625
 20
265.1214907547
 10
290.8928773806
 20
264.9748576816
 10
291.3175369347
 20
264.7940131879
 10
291.7091462321
 20
264.5829970407
 10
292.0589573682
 20
264.3465229922
  0
LWPOLYLINE
  5
276
330
1F
100
AcDbEntity
  8
0
  6
Continuous
 62
     7
370
    25
100
AcDbPolyline
 90
       15
 70
   128
 43
0.0
 10
289.9210242414
 20
259.1474992024
 10
289.5658867761
 20
259.1726370099
 10
289.1008754728
 20
259.241858017
 10
288.6391003658
 20
259.351004129
 10
288.1908767477
 20
259.4976372021
 10
287.7662171936
 20
259.6784816958
 10
287.3746078962
 20
259.889497843
 10
287.0247967601
 20
260.1259718915
 10
286.724597988
 20
260.3826214019
 10
286.4807175244
 20
260.6537132483
 10
286.2986032558
 20
260.9331916867
 10
286.1823233142
 20
261.2148136307
 10
286.1344752012
 20
261.4922881115
 10
286.1561277646
 20
261.7594168075
 10
286.1621816773
 20
261.7856189813
  0
LWPOLYLINE
  5
277
330
1F
100
AcDbEntity
  8
0
  6
Continuous
 62
     7
370
    25
100
AcDbPolyline
 90
       22
 70
   128
 43
0.0
 10
290.3976164481
 20
263.6709188133
 10
290.5347072792
 20
263.5379446132
 10
290.6098932219
 20
263.3965649893
 10
290.6164936753
 20
263.2593421416
 10
290.5539221602
 20
263.1384689224
 10
290.4277384303
 20
263.0446854475
 10
290.2491544637
 20
262.9863247904
 10
290.0340382295
 20
262.9685725515
 10
289.8015037493
 20
262.9930060952
 10
289.5722127319
 20
263.0574543938
 10
289.3665386906
 20
263.1561909332
 10
289.2027566665
 20
263.2804425387
 10
289.0954194111
 20
263.4191689096
 10
289.0540643107
 20
263.5600435993
 10
289.0823659475
 20
263.6905492733
 10
289.1778095967
 20
263.7990899298
 10
289.3319146713
 20
263.8760212551
 10
289.5309882592
 20
263.9145075634
 10
289.7573417984
 20
263.9111291772
 10
289.9908627837
 20
263.8661862811
 10
290.2108018507
 20
263.7836722485
 10
290.3976164481
 20
263.6709188133
  0
LWPOLYLINE
  5
278
330
1F
100
AcDbEntity
  8
0
  6
Continuous
 62
     7
370
    25
100
AcDbPolyline
 90
       15
 70
   128
 43
0.0
 10
289.9210242414
 20
259.1474992024
 10
289.5658867761
 20
259.1726370099
 10
289.1008754728
 20
259.241858017
 10
288.6391003658
 20
259.351004129
 10
288.1908767477
 20
259.4976372021
 10
287.7662171936
 20
259.6784816958
 10
287.3746078962
 20
259.889497843
 10
287.0247967601
 20
260.1259718915
 10
286.724597988
 20
260.3826214019
 10
286.4807175244
 20
260.6537132483
 10
286.2986032558
 20
260.9331916867
 10
286.1823233142
 20
261.2148136307
 10
286.1344752012
 20
261.4922881115
 10
286.1561277646
 20
261.7594168075
 10
286.1621816773
 20
261.7856189813
  0
LWPOLYLINE
  5
279
330
1F
100
AcDbEntity
  8
0
  6
Continuous
 62
     7
370
    25
100
AcDbPolyline
 90
       18
 70
   128
 43
0.0
 10
289.9385598926
 20
254.4441488287
 10
289.6929700021
 20
254.3869438384
 10
289.2797081413
 20
254.3308312895
 10
288.8392274478
 20
254.3164896403
 10
288.3813675325
 20
254.3442392596
 10
287.9163562293
 20
254.4134602667
 10
287.4545811222
 20
254.5226063787
 10
287.0063575041
 20
254.6692394519
 10
286.5816979501
 20
254.8500839456
 10
286.1900886527
 20
255.0611000927
 10
285.8402775165
 20
255.2975741412
 10
285.5400787444
 20
255.5542236517
 10
285.2961982808
 20
255.8253154981
 10
285.1140840123
 20
256.1047939365
 10
284.9978040706
 20
256.3864158805
 10
284.9499559576
 20
256.6638903612
 10
284.971608521
 20
256.9310190573
 10
284.9776624338
 20
256.9572212311
  0
LWPOLYLINE
  5
27A
330
1F
100
AcDbEntity
  8
0
  6
Continuous
 62
     7
370
    25
100
AcDbPolyline
 90
       16
 70
   128
 43
0.0
 10
268.730692369
 20
185.5546105872
 10
269.0805035051
 20
185.3181365386
 10
269.4721128025
 20
185.1071203915
 10
269.8967723566
 20
184.9262758978
 10
270.3449959746
 20
184.7796428247
 10
270.8067710817
 20
184.6704967126
 10
271.2717823849
 20
184.6012757055
 10
271.7296423002
 20
184.5735260863
 10
272.1701229937
 20
184.5878677354
 10
272.5833848545
 20
184.6439802844
 10
272.9601962956
 20
184.7406102714
 10
273.292139972
 20
184.8755991422
 10
273.5718008106
 20
185.0459314687
 10
273.7929316502
 20
185.2478023079
 10
273.9505927934
 20
185.4767021991
 10
274.035208438
 20
185.701315723
  0
LWPOLYLINE
  5
27B
330
1F
100
AcDbEntity
  8
0
  6
Continuous
 62
     7
370
    25
100
AcDbPolyline
 90
        8
 70
   128
 43
0.0
 10
267.8680772862
 20
187.214257677
 10
267.8620233735
 20
187.1880555032
 10
267.84037081
 20
186.9209268071
 10
267.888218923
 20
186.6434523264
 10
268.0044988647
 20
186.3618303824
 10
268.1866131332
 20
186.082351944
 10
268.4304935968
 20
185.8112600976
 10
268.730692369
 20
185.5546105872
  0
ARC
  5
27C
330
1F
100
AcDbEntity
  8
0
  6
Continuous
 62
     7
370
    25
100
AcDbCircle
 10
272.3919147444
 20
192.2767724204
 30
0.0
 40
5.289336180638707
100
AcDbArc
 50
234.5341935163
 51
268.4143596836
  0
LWPOLYLINE
  5
27D
330
1F
100
AcDbEntity
  8
0
  6
Continuous
 62
     7
370
    25
100
AcDbPolyline
 90
        8
 70
   128
 43
0.0
 10
268.460336908
 20
189.6284565521
 10
268.4542829952
 20
189.6022543783
 10
268.4326304318
 20
189.3351256823
 10
268.4804785448
 20
189.0576512015
 10
268.5967584865
 20
188.7760292575
 10
268.778872755
 20
188.4965508191
 10
269.0227532186
 20
188.2254589727
 10
269.3229519907
 20
187.9688094623
  0
LWPOLYLINE
  5
27E
330
1F
100
AcDbEntity
  8
0
  6
Continuous
 62
     7
370
    25
100
AcDbPolyline
 90
        8
 70
   128
 43
0.0
 10
268.460336908
 20
189.6284565521
 10
268.4542829952
 20
189.6022543783
 10
268.4326304318
 20
189.3351256823
 10
268.4804785448
 20
189.0576512015
 10
268.5967584865
 20
188.7760292575
 10
268.778872755
 20
188.4965508191
 10
269.0227532186
 20
188.2254589727
 10
269.3229519907
 20
187.9688094623
  0
LWPOLYLINE
  5
27F
330
1F
100
AcDbEntity
  8
0
  6
Continuous
 62
     7
370
    25
100
AcDbPolyline
 90
       43
 70
   128
 43
0.0
 10
270.7048911083
 20
193.6019401709
 10
271.0547022444
 20
193.3654661224
 10
271.4463115418
 20
193.1544499752
 10
271.8709710959
 20
192.9736054815
 10
272.3191947139
 20
192.8269724084
 10
272.780969821
 20
192.7178262964
 10
273.2459811242
 20
192.6486052893
 10
273.7038410395
 20
192.62085567
 10
274.144321733
 20
192.6351973192
 10
274.5575835938
 20
192.6913098681
 10
274.9343950349
 20
192.7879398551
 10
275.2663387113
 20
192.922928726
 10
275.5459995499
 20
193.0932610524
 10
275.7671303895
 20
193.2951318916
 10
275.9247915327
 20
193.5240317828
 10
276.01546109
 20
193.7748474805
 10
276.0371136535
 20
194.0419761765
 10
275.9892655405
 20
194.3194506573
 10
275.8729855988
 20
194.6010726013
 10
275.6908713303
 20
194.8805510397
 10
275.4469908667
 20
195.1516428861
 10
275.1467920945
 20
195.4082923965
 10
274.7969809584
 20
195.644766445
 10
274.405371661
 20
195.8557825922
 10
273.9807121069
 20
196.0366270859
 10
273.5324884889
 20
196.183260159
 10
273.0707133818
 20
196.292406271
 10
272.6057020786
 20
196.3616272781
 10
272.1478421633
 20
196.3893768974
 10
271.7073614698
 20
196.3750352482
 10
271.294099609
 20
196.3189226993
 10
270.9172881679
 20
196.2222927123
 10
270.5853444915
 20
196.0873038415
 10
270.3056836529
 20
195.916971515
 10
270.0845528133
 20
195.7151006758
 10
269.9268916701
 20
195.4862007846
 10
269.8362221128
 20
195.2353850869
 10
269.8145695493
 20
194.9682563909
 10
269.8624176623
 20
194.6907819101
 10
269.978697604
 20
194.4091599661
 10
270.1608118725
 20
194.1296815277
 10
270.4046923361
 20
193.8585896813
 10
270.7048911083
 20
193.6019401709
  0
LWPOLYLINE
  5
280
330
1F
100
AcDbEntity
  8
0
  6
Continuous
 62
     7
370
    25
100
AcDbPolyline
 90
       22
 70
   128
 43
0.0
 10
272.3662320283
 20
194.2775443498
 10
272.5530466257
 20
194.1647909146
 10
272.7729856927
 20
194.0822768821
 10
273.006506678
 20
194.0373339859
 10
273.2328602172
 20
194.0339555997
 10
273.4319338051
 20
194.072441908
 10
273.5860388798
 20
194.1493732333
 10
273.681482529
 20
194.2579138898
 10
273.7097841657
 20
194.3884195638
 10
273.6684290653
 20
194.5292942535
 10
273.56109181
 20
194.6680206245
 10
273.3973097858
 20
194.7922722299
 10
273.1916357445
 20
194.8910087693
 10
272.9623447272
 20
194.9554570679
 10
272.7298102469
 20
194.9798906116
 10
272.5146940128
 20
194.9621383727
 10
272.3361100461
 20
194.9037777156
 10
272.2099263162
 20
194.8099942408
 10
272.1473548011
 20
194.6891210215
 10
272.1539552546
 20
194.5518981738
 10
272.2291411973
 20
194.4105185499
 10
272.3662320283
 20
194.2775443498
  0
LWPOLYLINE
  5
281
330
1F
100
AcDbEntity
  8
0
  6
Continuous
 62
     7
370
    25
100
AcDbPolyline
 90
       10
 70
   128
 43
0.0
 10
329.0802842238
 20
208.8563565906
 10
329.0552043269
 20
208.8062147845
 10
328.8661835826
 20
208.3769460112
 10
328.7205948962
 20
207.9437937575
 10
328.6216904782
 20
207.5164339289
 10
328.5716796901
 20
207.1044130378
 10
328.5716796901
 20
206.7169349501
 10
328.6216904782
 20
206.362655286
 10
328.7205948962
 20
206.0494880677
 10
328.8415626953
 20
205.8207571527
  0
LWPOLYLINE
  5
282
330
1F
100
AcDbEntity
  8
0
  6
Continuous
 62
     7
370
    25
100
AcDbPolyline
 90
       13
 70
   128
 43
0.0
 10
322.2546074182
 20
213.372557444
 10
322.2123669062
 20
213.3040514813
 10
321.9841365151
 20
212.8882553436
 10
321.7951157708
 20
212.4589865703
 10
321.6495270843
 20
212.0258343166
 10
321.5506226664
 20
211.598474488
 10
321.5006118782
 20
211.1864535969
 10
321.5006118782
 20
210.7989755093
 10
321.5506226664
 20
210.4446958451
 10
321.6495270843
 20
210.1315286269
 10
321.7951157708
 20
209.8664694926
 10
321.9841365151
 20
209.6554394254
 10
322.152027266
 20
209.5354332798
  0
LWPOLYLINE
  5
283
330
1F
100
AcDbEntity
  8
0
  6
Continuous
 62
     7
370
    25
100
AcDbPolyline
 90
       43
 70
   128
 43
0.0
 10
333.6388931907
 20
209.1627987129
 10
333.3042837599
 20
208.9406765264
 10
332.9771489509
 20
208.665603635
 10
332.6647964147
 20
208.3437247125
 10
332.3742035908
 20
207.9822300022
 10
332.1118618428
 20
207.5891946986
 10
331.8836314517
 20
207.1733985608
 10
331.6946107074
 20
206.7441297876
 10
331.5490220209
 20
206.3109775338
 10
331.450117603
 20
205.8836177053
 10
331.4001068148
 20
205.4715968142
 10
331.4001068148
 20
205.0841187265
 10
331.450117603
 20
204.7298390624
 10
331.5490220209
 20
204.4166718441
 10
331.6946107074
 20
204.1516127098
 10
331.8836314517
 20
203.9405826426
 10
332.1118618428
 20
203.7882957054
 10
332.3742035908
 20
203.6981537368
 10
332.6647964147
 20
203.6721703594
 10
332.9771489509
 20
203.7109259989
 10
333.3042837599
 20
203.8135549184
 10
333.6388931907
 20
203.9777645574
 10
333.9735026215
 20
204.1998867439
 10
334.3006374305
 20
204.4749596353
 10
334.6129899667
 20
204.7968385578
 10
334.9035827906
 20
205.1583332681
 10
335.1659245387
 20
205.5513685717
 10
335.3941549297
 20
205.9671647095
 10
335.583175674
 20
206.3964334827
 10
335.7287643605
 20
206.8295857364
 10
335.8276687785
 20
207.256945565
 10
335.8776795666
 20
207.6689664561
 10
335.8776795666
 20
208.0564445438
 10
335.8276687785
 20
208.4107242079
 10
335.7287643605
 20
208.7238914262
 10
335.583175674
 20
208.9889505605
 10
335.3941549297
 20
209.1999806277
 10
335.1659245387
 20
209.3522675649
 10
334.9035827906
 20
209.4424095335
 10
334.6129899667
 20
209.4683929109
 10
334.3006374305
 20
209.4296372713
 10
333.9735026215
 20
209.3270083519
 10
333.6388931907
 20
209.1627987129
  0
LWPOLYLINE
  5
284
330
1F
100
AcDbEntity
  8
0
  6
Continuous
 62
     7
370
    25
100
AcDbPolyline
 90
       24
 70
   128
 43
0.0
 10
333.6388931907
 20
207.386822447
 10
333.4481180643
 20
207.2464107625
 10
333.2714918562
 20
207.0558536736
 10
333.1221141244
 20
206.829283928
 10
333.0110635319
 20
206.5835051672
 10
332.946576193
 20
206.3367456775
 10
332.9334348386
 20
206.1073064815
 10
332.972614103
 20
205.9122040346
 10
333.0612082393
 20
205.7659081928
 10
333.1926466258
 20
205.6792690495
 10
333.3571810785
 20
205.6587122336
 10
333.5426088298
 20
205.70576235
 10
333.7351775517
 20
205.8169299069
 10
333.920605303
 20
205.9839701151
 10
334.0851397557
 20
206.1944943665
 10
334.2165781421
 20
206.4328890406
 10
334.3051722784
 20
206.6814734949
 10
334.3443515428
 20
206.9218113576
 10
334.3312101885
 20
207.1360778689
 10
334.2667228496
 20
207.3083818619
 10
334.155672257
 20
207.4259443377
 10
334.0062945252
 20
207.4800462252
 10
333.8296683171
 20
207.466675035
 10
333.6388931907
 20
207.386822447
  0
LWPOLYLINE
  5
285
330
1F
100
AcDbEntity
  8
0
  6
Continuous
 62
     7
370
    25
100
AcDbPolyline
 90
       10
 70
   128
 43
0.0
 10
329.0802842238
 20
208.8563565906
 10
329.0552043269
 20
208.8062147845
 10
328.8661835826
 20
208.3769460112
 10
328.7205948962
 20
207.9437937575
 10
328.6216904782
 20
207.5164339289
 10
328.5716796901
 20
207.1044130378
 10
328.5716796901
 20
206.7169349501
 10
328.6216904782
 20
206.362655286
 10
328.7205948962
 20
206.0494880677
 10
328.8415626953
 20
205.8207571527
  0
ELLIPSE
  5
286
330
1F
100
AcDbEntity
  8
0
  6
Continuous
 62
     7
370
    25
100
AcDbEllipse
 10
335.7944150412
 20
205.3259253577
 30
0.0
 11
8.02273032149003
 21
-2.363378974001478
 31
0.0
210
0.0
220
0.0
230
1.0
 40
0.3068357174
 41
3.115455036077266
 42
4.045356208547025
  0
ELLIPSE
  5
287
330
1F
100
AcDbEntity
  8
0
  6
Continuous
 62
     7
370
    25
100
AcDbEllipse
 10
261.6998490847
 20
148.7451530704
 30
0.0
 11
11.00457491882293
 21
48.65301853713027
 31
0.0
210
0.0
220
0.0
230
1.0
 40
0.0610236846
 41
5.585627140804771
 42
5.771691077524682
  0
LINE
  5
288
330
1F
100
AcDbEntity
  8
0
  6
Continuous
 62
     7
370
    25
100
AcDbLine
 10
326.2510313636
 20
208.2933629306
 30
0.0
 11
272.7492552233
 21
190.842564716
 31
0.0
  0
LINE
  5
289
330
1F
100
AcDbEntity
  8
0
  6
Continuous
 62
     7
370
    25
100
AcDbLine
 10
326.2510313636
 20
208.2933629306
 30
0.0
 11
327.7933770624
 21
207.7528316841
 31
0.0
  0
LINE
  5
28A
330
1F
100
AcDbEntity
  8
0
  6
Continuous
 62
     7
370
    25
100
AcDbLine
 10
330.5514190688
 20
204.6865676031
 30
0.0
 11
272.0410210806
 21
185.6020956022
 31
0.0
  0
ELLIPSE
  5
28B
330
1F
100
AcDbEntity
  8
0
  6
Continuous
 62
     7
370
    25
100
AcDbEllipse
 10
272.2290267034
 20
191.6647238595
 30
0.0
 11
3.639874668688549
 21
1.765411499308584
 31
0.0
210
0.0
220
0.0
230
1.0
 40
0.2390659497
 41
4.739407698983194
 42
6.087539251454936
  0
ELLIPSE
  5
28C
330
1F
100
AcDbEntity
  8
0
  6
Continuous
 62
     7
370
    25
100
AcDbEllipse
 10
327.3190732104
 20
210.2186360523
 30
0.0
 11
3.956529002174648
 21
1.227369649358479
 31
0.0
210
0.0
220
0.0
230
1.0
 40
0.3243749367
 41
3.433085216216027
 42
4.288314904072516
  0
LINE
  5
28D
330
1F
100
AcDbEntity
  8
0
  6
Continuous
 62
     7
370
    25
100
AcDbLine
 10
322.9528842561
 20
209.0731083803
 30
0.0
 11
321.022792774
 21
208.4435659722
 31
0.0
  0
LINE
  5
28E
330
1F
100
AcDbEntity
  8
0
  6
Continuous
 62
     7
370
    25
100
AcDbLine
 10
313.9534423466
 20
206.1377395732
 30
0.0
 11
276.0127061613
 21
193.7625217945
 31
0.0
  0
LINE
  5
28F
330
1F
100
AcDbEntity
  8
0
  6
Continuous
 62
     7
370
    25
100
AcDbLine
 10
288.7292628175
 20
255.9810866393
 30
0.0
 11
326.2510313636
 21
208.2933629306
 31
0.0
  0
ELLIPSE
  5
290
330
1F
100
AcDbEntity
  8
0
  6
Continuous
 62
     7
370
    25
100
AcDbEllipse
 10
297.9720159987
 20
296.5996096974
 30
0.0
 11
12.13967857177215
 21
45.84328797286298
 31
0.0
210
0.0
220
0.0
230
1.0
 40
0.0644132225
 41
3.641011679750143
 42
3.827075616469981
  0
LINE
  5
291
330
1F
100
AcDbEntity
  8
0
  6
Continuous
 62
     7
370
    25
100
AcDbLine
 10
290.4438613077
 20
260.6166914663
 30
0.0
 11
331.0268397806
 21
209.0383693435
 31
0.0
  0
ELLIPSE
  5
292
330
1F
100
AcDbEntity
  8
0
  6
Continuous
 62
     7
370
    25
100
AcDbEllipse
 10
335.7011116135
 20
205.37978828
 30
0.0
 11
7.865984786897229
 21
-2.575416925565747
 31
0.0
210
0.0
220
0.0
230
1.0
 40
0.3308812515
 41
2.310737528401099
 42
3.216633354366268
  0
ELLIPSE
  5
293
330
1F
100
AcDbEntity
  8
0
  6
Continuous
 62
     7
370
    25
100
AcDbEllipse
 10
333.7394222969
 20
206.5122474174
 30
0.0
 11
-2.210493936626051
 21
4.496330652450155
 31
0.0
210
0.0
220
0.0
230
1.0
 40
0.3645704489
 41
5.784869881898921
 42
7.090665537053822
  0
ELLIPSE
  5
294
330
1F
100
AcDbEntity
  8
0
  6
Continuous
 62
     7
370
    25
100
AcDbEllipse
 10
289.8530763932
 20
263.5047740177
 30
0.0
 11
-2.313759951540703
 21
3.040536887600864
 31
0.0
210
0.0
220
0.0
230
1.0
 40
0.4656004758
 41
2.339445187699877
 42
3.501512803451729
  0
LINE
  5
295
330
1F
100
AcDbEntity
  8
0
  6
Continuous
 62
     7
370
    25
100
AcDbLine
 10
292.8047247531
 20
262.2105753574
 30
0.0
 11
333.7493969428
 21
210.1725640809
 31
0.0
  0
LINE
  5
296
330
1F
100
AcDbEntity
  8
0
  6
Continuous
 62
     7
370
    25
100
AcDbLine
 10
313.5060242683
 20
204.1911615402
 30
0.0
 11
314.2658797405
 21
207.4970582892
 31
0.0
  0
LINE
  5
297
330
1F
100
AcDbEntity
  8
0
  6
Continuous
 62
     7
370
    25
100
AcDbLine
 10
314.9506663075
 20
210.4763533899
 30
0.0
 11
315.1220813421
 21
211.222127325
 31
0.0
  0
LINE
  5
298
330
1F
100
AcDbEntity
  8
0
  6
Continuous
 62
     7
370
    25
100
AcDbLine
 10
315.806867909
 20
214.2014224257
 30
0.0
 11
317.1171278687
 21
219.9019593035
 31
0.0
  0
LINE
  5
299
330
1F
100
AcDbEntity
  8
0
  6
Continuous
 62
     7
370
    25
100
AcDbLine
 10
318.8490776757
 20
205.9488834777
 30
0.0
 11
319.3214117559
 21
208.0038633487
 31
0.0
  0
LINE
  5
29A
330
1F
100
AcDbEntity
  8
0
  6
Continuous
 62
     7
370
    25
100
AcDbLine
 10
319.4394996088
 20
208.5176271674
 30
0.0
 11
320.1776133574
 21
211.7289323844
 31
0.0
  0
LINE
  5
29B
330
1F
100
AcDbEntity
  8
0
  6
Continuous
 62
     7
370
    25
100
AcDbLine
 10
320.2957012104
 20
212.2426962031
 30
0.0
 11
320.9395546424
 21
215.0439038614
 31
0.0
  0
LINE
  5
29C
330
1F
100
AcDbEntity
  8
0
  6
Continuous
 62
     7
370
    25
100
AcDbLine
 10
318.8490776757
 20
205.9488834777
 30
0.0
 11
313.5060242683
 21
204.1911615402
 31
0.0
  0
LINE
  5
29D
330
1F
100
AcDbEntity
  8
0
  6
Continuous
 62
     7
370
    25
100
AcDbLine
 10
321.022792774
 20
208.4435659722
 30
0.0
 11
318.8490776757
 21
205.9488834777
 31
0.0
  0
LINE
  5
29E
330
1F
100
AcDbEntity
  8
0
  6
Continuous
 62
     7
370
    25
100
AcDbLine
 10
321.0938173974
 20
208.4667322381
 30
0.0
 11
321.5495552357
 21
210.4495069803
 31
0.0
  0
LINE
  5
29F
330
1F
100
AcDbEntity
  8
0
  6
Continuous
 62
     7
370
    25
100
AcDbLine
 10
322.2015519235
 20
213.286143432
 30
0.0
 11
322.2289183971
 21
213.4052065165
 31
0.0
  0
ENDSEC
  0
SECTION
  2
OBJECTS
  0
DICTIONARY
  5
C
330
0
100
AcDbDictionary
281
     1
  3
ACAD_GROUP
350
D
  3
ACAD_LAYOUT
350
1A
  3
ACAD_MLINESTYLE
350
17
  3
ACAD_PLOTSETTINGS
350
19
  3
ACAD_PLOTSTYLENAME
350
E
  3
ACAD_SCALELIST
350
47
  3
DWGPROPS
350
2A0
  0
DICTIONARY
  5
D
102
{ACAD_REACTORS
330
C
102
}
330
C
100
AcDbDictionary
281
     1
  0
DICTIONARY
  5
1A
102
{ACAD_REACTORS
330
C
102
}
330
C
100
AcDbDictionary
281
     1
  3
Layout1
350
1E
  3
Layout2
350
26
  3
Model
350
22
  0
DICTIONARY
  5
17
102
{ACAD_REACTORS
330
C
102
}
330
C
100
AcDbDictionary
281
     1
  3
Standard
350
18
  0
DICTIONARY
  5
19
102
{ACAD_REACTORS
330
C
102
}
330
C
100
AcDbDictionary
281
     1
  0
ACDBDICTIONARYWDFLT
  5
E
102
{ACAD_REACTORS
330
C
102
}
330
C
100
AcDbDictionary
281
     1
  3
Normal
350
F
100
AcDbDictionaryWithDefault
340
F
  0
DICTIONARY
  5
47
102
{ACAD_REACTORS
330
C
102
}
330
C
100
AcDbDictionary
281
     1
  3
A0
350
48
  3
A1
350
49
  3
A2
350
4A
  3
A3
350
4B
  3
A4
350
4C
  3
A5
350
4D
  3
A6
350
4E
  3
A7
350
4F
  3
A8
350
50
  3
A9
350
51
  3
B0
350
52
  3
B1
350
53
  3
B2
350
54
  3
B3
350
55
  3
B4
350
56
  3
B5
350
57
  3
B6
350
58
  3
B7
350
59
  3
B8
350
5A
  3
B9
350
5B
  3
C0
350
5C
  3
C1
350
5D
  3
C2
350
5E
  3
C3
350
5F
  3
C4
350
60
  3
C5
350
61
  3
C6
350
62
  3
C7
350
63
  3
C8
350
64
  3
C9
350
65
  3
D0
350
66
  3
D1
350
67
  3
D2
350
68
  0
XRECORD
  5
2A0
102
{ACAD_REACTORS
330
C
102
}
330
C
100
AcDbXrecord
280
     1
  1
DWGPROPS COOKIE
  2

  3

  4

  6

  7

  8
shubh
  9

300
=
301
=
302
=
303
=
304
=
305
=
306
=
307
=
308
=
309
=
 40
0.0
 41
2460607.730030857
 42
2460607.73003279
  1

 90
        0
  0
LAYOUT
  5
1E
102
{ACAD_REACTORS
330
1A
102
}
330
1A
100
AcDbPlotSettings
  1

  2
none_device
  4

  6

 40
0.0
 41
0.0
 42
0.0
 43
0.0
 44
0.0
 45
0.0
 46
0.0
 47
0.0
 48
0.0
 49
0.0
140
0.0
141
0.0
142
1.0
143
1.0
 70
   688
 72
     1
 73
     0
 74
     5
  7

 75
    16
147
1.0
148
0.0
149
0.0
100
AcDbLayout
  1
Layout1
 70
     1
 71
     1
 10
0.0
 20
0.0
 11
420.0
 21
297.0
 12
0.0
 22
0.0
 32
0.0
 14
1.0000000000E+20
 24
1.0000000000E+20
 34
1.0000000000E+20
 15
-1.0000000000E+20
 25
-1.0000000000E+20
 35
-1.0000000000E+20
146
0.0
 13
0.0
 23
0.0
 33
0.0
 16
1.0
 26
0.0
 36
0.0
 17
0.0
 27
1.0
 37
0.0
 76
     0
330
1B
  0
LAYOUT
  5
26
102
{ACAD_REACTORS
330
1A
102
}
330
1A
100
AcDbPlotSettings
  1

  2
none_device
  4

  6

 40
0.0
 41
0.0
 42
0.0
 43
0.0
 44
0.0
 45
0.0
 46
0.0
 47
0.0
 48
0.0
 49
0.0
140
0.0
141
0.0
142
1.0
143
1.0
 70
   688
 72
     1
 73
     0
 74
     5
  7

 75
    16
147
1.0
148
0.0
149
0.0
100
AcDbLayout
  1
Layout2
 70
     1
 71
     2
 10
0.0
 20
0.0
 11
0.0
 21
0.0
 12
0.0
 22
0.0
 32
0.0
 14
0.0
 24
0.0
 34
0.0
 15
0.0
 25
0.0
 35
0.0
146
0.0
 13
0.0
 23
0.0
 33
0.0
 16
1.0
 26
0.0
 36
0.0
 17
0.0
 27
1.0
 37
0.0
 76
     0
330
23
  0
LAYOUT
  5
22
102
{ACAD_REACTORS
330
1A
102
}
330
1A
100
AcDbPlotSettings
  1

  2
none_device
  4
Letter_(8.50_x_11.00_Inches)
  6

 40
6.35
 41
6.35
 42
6.35000508
 43
6.35000508
 44
215.9
 45
279.4
 46
0.0
 47
0.0
 48
0.0
 49
0.0
140
0.0
141
0.0
142
1.0
143
1.0
 70
  1712
 72
     1
 73
     0
 74
     0
  7

 75
     0
147
1.0
148
0.0
149
0.0
100
AcDbLayout
  1
Model
 70
     1
 71
     0
 10
0.0
 20
0.0
 11
431.8
 21
279.4
 12
0.0
 22
0.0
 32
0.0
 14
0.0
 24
0.0
 34
0.0
 15
431.8
 25
279.4
 35
0.0
146
0.0
 13
0.0
 23
0.0
 33
0.0
 16
1.0
 26
0.0
 36
0.0
 17
0.0
 27
1.0
 37
0.0
 76
     0
330
1F
331
29
  0
MLINESTYLE
  5
18
102
{ACAD_REACTORS
330
17
102
}
330
17
100
AcDbMlineStyle
  2
Standard
 70
     0
  3

 62
   256
 51
90.0
 52
90.0
 71
     2
 49
0.5
 62
   256
  6
BYLAYER
 49
-0.5
 62
   256
  6
BYLAYER
  0
ACDBPLACEHOLDER
  5
F
102
{ACAD_REACTORS
330
E
102
}
330
E
  0
SCALE
  5
48
102
{ACAD_REACTORS
330
47
102
}
330
47
100
AcDbScale
 70
     0
300
1:1
140
1.0
141
1.0
290
     1
  0
SCALE
  5
49
102
{ACAD_REACTORS
330
47
102
}
330
47
100
AcDbScale
 70
     0
300
1:2
140
1.0
141
2.0
290
     0
  0
SCALE
  5
4A
102
{ACAD_REACTORS
330
47
102
}
330
47
100
AcDbScale
 70
     0
300
1:4
140
1.0
141
4.0
290
     0
  0
SCALE
  5
4B
102
{ACAD_REACTORS
330
47
102
}
330
47
100
AcDbScale
 70
     0
300
1:5
140
1.0
141
5.0
290
     0
  0
SCALE
  5
4C
102
{ACAD_REACTORS
330
47
102
}
330
47
100
AcDbScale
 70
     0
300
1:8
140
1.0
141
8.0
290
     0
  0
SCALE
  5
4D
102
{ACAD_REACTORS
330
47
102
}
330
47
100
AcDbScale
 70
     0
300
1:10
140
1.0
141
10.0
290
     0
  0
SCALE
  5
4E
102
{ACAD_REACTORS
330
47
102
}
330
47
100
AcDbScale
 70
     0
300
1:16
140
1.0
141
16.0
290
     0
  0
SCALE
  5
4F
102
{ACAD_REACTORS
330
47
102
}
330
47
100
AcDbScale
 70
     0
300
1:20
140
1.0
141
20.0
290
     0
  0
SCALE
  5
50
102
{ACAD_REACTORS
330
47
102
}
330
47
100
AcDbScale
 70
     0
300
1:30
140
1.0
141
30.0
290
     0
  0
SCALE
  5
51
102
{ACAD_REACTORS
330
47
102
}
330
47
100
AcDbScale
 70
     0
300
1:40
140
1.0
141
40.0
290
     0
  0
SCALE
  5
52
102
{ACAD_REACTORS
330
47
102
}
330
47
100
AcDbScale
 70
     0
300
1:50
140
1.0
141
50.0
290
     0
  0
SCALE
  5
53
102
{ACAD_REACTORS
330
47
102
}
330
47
100
AcDbScale
 70
     0
300
1:100
140
1.0
141
100.0
290
     0
  0
SCALE
  5
54
102
{ACAD_REACTORS
330
47
102
}
330
47
100
AcDbScale
 70
     0
300
2:1
140
2.0
141
1.0
290
     0
  0
SCALE
  5
55
102
{ACAD_REACTORS
330
47
102
}
330
47
100
AcDbScale
 70
     0
300
4:1
140
4.0
141
1.0
290
     0
  0
SCALE
  5
56
102
{ACAD_REACTORS
330
47
102
}
330
47
100
AcDbScale
 70
     0
300
8:1
140
8.0
141
1.0
290
     0
  0
SCALE
  5
57
102
{ACAD_REACTORS
330
47
102
}
330
47
100
AcDbScale
 70
     0
300
10:1
140
10.0
141
1.0
290
     0
  0
SCALE
  5
58
102
{ACAD_REACTORS
330
47
102
}
330
47
100
AcDbScale
 70
     0
300
100:1
140
100.0
141
1.0
290
     0
  0
SCALE
  5
59
102
{ACAD_REACTORS
330
47
102
}
330
47
100
AcDbScale
 70
     0
300
1/128" = 1'-0"
140
0.0078125
141
12.0
290
     0
  0
SCALE
  5
5A
102
{ACAD_REACTORS
330
47
102
}
330
47
100
AcDbScale
 70
     0
300
1/64" = 1'-0"
140
0.015625
141
12.0
290
     0
  0
SCALE
  5
5B
102
{ACAD_REACTORS
330
47
102
}
330
47
100
AcDbScale
 70
     0
300
1/32" = 1'-0"
140
0.03125
141
12.0
290
     0
  0
SCALE
  5
5C
102
{ACAD_REACTORS
330
47
102
}
330
47
100
AcDbScale
 70
     0
300
1/16" = 1'-0"
140
0.0625
141
12.0
290
     0
  0
SCALE
  5
5D
102
{ACAD_REACTORS
330
47
102
}
330
47
100
AcDbScale
 70
     0
300
3/32" = 1'-0"
140
0.09375
141
12.0
290
     0
  0
SCALE
  5
5E
102
{ACAD_REACTORS
330
47
102
}
330
47
100
AcDbScale
 70
     0
300
1/8" = 1'-0"
140
0.125
141
12.0
290
     0
  0
SCALE
  5
5F
102
{ACAD_REACTORS
330
47
102
}
330
47
100
AcDbScale
 70
     0
300
3/16" = 1'-0"
140
0.1875
141
12.0
290
     0
  0
SCALE
  5
60
102
{ACAD_REACTORS
330
47
102
}
330
47
100
AcDbScale
 70
     0
300
1/4" = 1'-0"
140
0.25
141
12.0
290
     0
  0
SCALE
  5
61
102
{ACAD_REACTORS
330
47
102
}
330
47
100
AcDbScale
 70
     0
300
3/8" = 1'-0"
140
0.375
141
12.0
290
     0
  0
SCALE
  5
62
102
{ACAD_REACTORS
330
47
102
}
330
47
100
AcDbScale
 70
     0
300
1/2" = 1'-0"
140
0.5
141
12.0
290
     0
  0
SCALE
  5
63
102
{ACAD_REACTORS
330
47
102
}
330
47
100
AcDbScale
 70
     0
300
3/4" = 1'-0"
140
0.75
141
12.0
290
     0
  0
SCALE
  5
64
102
{ACAD_REACTORS
330
47
102
}
330
47
100
AcDbScale
 70
     0
300
1" = 1'-0"
140
1.0
141
12.0
290
     0
  0
SCALE
  5
65
102
{ACAD_REACTORS
330
47
102
}
330
47
100
AcDbScale
 70
     0
300
1-1/2" = 1'-0"
140
1.5
141
12.0
290
     0
  0
SCALE
  5
66
102
{ACAD_REACTORS
330
47
102
}
330
47
100
AcDbScale
 70
     0
300
3" = 1'-0"
140
3.0
141
12.0
290
     0
  0
SCALE
  5
67
102
{ACAD_REACTORS
330
47
102
}
330
47
100
AcDbScale
 70
     0
300
6" = 1'-0"
140
6.0
141
12.0
290
     0
  0
SCALE
  5
68
102
{ACAD_REACTORS
330
47
102
}
330
47
100
AcDbScale
 70
     0
300
1'-0" = 1'-0"
140
12.0
141
12.0
290
     0
  0
ENDSEC
  0
EOF
